SplineFontDB: 3.0
FontName: ReHersheyContrasteOK
FullName: Untitled1
FamilyName: Untitled1
Weight: Regular
Copyright: Copyright (c) 2019, Ame'lie,,,
UComments: "2019-11-28: Created with FontForge (http://fontforge.org)"
Version: 001.000
ItalicAngle: 0
UnderlinePosition: -100
UnderlineWidth: 50
Ascent: 800
Descent: 200
InvalidEm: 0
LayerCount: 2
Layer: 0 0 "Back" 1
Layer: 1 0 "Fore" 0
XUID: [1021 1021 34300134 9616204]
FSType: 0
OS2Version: 0
OS2_WeightWidthSlopeOnly: 0
OS2_UseTypoMetrics: 1
CreationTime: 1574962797
ModificationTime: 1575550566
PfmFamily: 17
TTFWeight: 400
TTFWidth: 5
LineGap: 90
VLineGap: 0
OS2TypoAscent: 0
OS2TypoAOffset: 1
OS2TypoDescent: 0
OS2TypoDOffset: 1
OS2TypoLinegap: 90
OS2WinAscent: 0
OS2WinAOffset: 1
OS2WinDescent: 0
OS2WinDOffset: 1
HheadAscent: 0
HheadAOffset: 1
HheadDescent: 0
HheadDOffset: 1
OS2CapHeight: 700
OS2XHeight: 500
OS2Vendor: 'PfEd'
MarkAttachClasses: 1
DEI: 91125
Encoding: ISO8859-1
UnicodeInterp: none
NameList: AGL For New Fonts
DisplaySize: -48
AntiAlias: 1
FitToEm: 0
WinInfo: 0 30 11
BeginPrivate: 0
EndPrivate
BeginChars: 256 164

StartChar: exclam
Encoding: 33 33 0
Width: 229
VWidth: -2429
Flags: HW
LayerCount: 2
Fore
SplineSet
119.743164062 45 m 1
 126.415039062 35.8857421875 l 1
 137.971679688 45 l 1
 131.299804688 54.115234375 l 1
 119.743164062 45 l 1
108.151367188 49.2421875 m 2
 130.466796875 66.8427734375 l 2
 133.723632812 69.4111328125 137.620117188 68.6640625 138.953125 66.8427734375 c 2
 151.836914062 49.2421875 l 2
 153.600585938 46.83203125 152.2578125 42.8828125 149.5625 40.7578125 c 2
 127.247070312 23.158203125 l 2
 123.991210938 20.58984375 120.094726562 21.3369140625 118.762695312 23.158203125 c 2
 105.87890625 40.7578125 l 2
 104.114257812 43.16796875 105.45703125 47.1171875 108.151367188 49.2421875 c 2
89.8232421875 45 m 1
 118.3984375 5.966796875 l 1
 167.891601562 45 l 1
 139.31640625 84.0341796875 l 1
 89.8232421875 45 l 1
78.232421875 49.2421875 m 2
 138.484375 96.76171875 l 2
 141.740234375 99.330078125 145.63671875 98.5830078125 146.96875 96.76171875 c 2
 181.755859375 49.2421875 l 2
 183.63671875 46.6748046875 181.791992188 42.578125 179.482421875 40.7568359375 c 2
 119.23046875 -6.76171875 l 2
 116.174804688 -9.1708984375 112.301757812 -8.88671875 110.74609375 -6.76171875 c 2
 75.958984375 40.7568359375 l 2
 74.0791015625 43.3251953125 75.923828125 47.421875 78.232421875 49.2421875 c 2
162.81640625 221 m 1
 156.81640625 221 l 1
 298.293945312 749 l 1
 304.293945312 749 l 1
 310.293945312 749 l 1
 168.81640625 221 l 1
 162.81640625 221 l 1
189.216796875 221 m 1
 183.216796875 221 l 1
 324.694335938 749 l 1
 330.694335938 749 l 1
 336.694335938 749 l 1
 195.216796875 221 l 1
 189.216796875 221 l 1
EndSplineSet
EndChar

StartChar: quotedbl
Encoding: 34 34 1
Width: 379
VWidth: -2677
Flags: HW
LayerCount: 2
Fore
SplineSet
262.501953125 599 m 1
 256.501953125 599 l 1
 382.033203125 754 l 5
 388.033203125 754 l 5
 394.033203125 754 l 5
 268.501953125 599 l 1
 262.501953125 599 l 1
236.1015625 599 m 1
 230.1015625 599 l 1
 271.6328125 754 l 1
 277.6328125 754 l 1
 283.6328125 754 l 1
 242.1015625 599 l 1
 236.1015625 599 l 1
399.501953125 599 m 1
 393.501953125 599 l 1
 435.033203125 754 l 1
 441.033203125 754 l 1
 447.033203125 754 l 1
 405.501953125 599 l 1
 399.501953125 599 l 1
425.90234375 599 m 1
 419.90234375 599 l 1
 545.43359375 754 l 5
 551.43359375 754 l 5
 557.43359375 754 l 5
 431.90234375 599 l 1
 425.90234375 599 l 1
EndSplineSet
EndChar

StartChar: numbersign
Encoding: 35 35 2
Width: 660
VWidth: -2516
Flags: HW
LayerCount: 2
Fore
SplineSet
107.8359375 1.544921875 m 1
 102.404296875 3 l 1
 375.881835938 531 l 1
 381.313476562 529.544921875 l 1
 386.743164062 528.08984375 l 1
 113.266601562 0.08984375 l 1
 107.8359375 1.544921875 l 1
134.235351562 1.544921875 m 1
 128.803710938 3 l 1
 402.28125 531 l 1
 407.712890625 529.544921875 l 1
 413.142578125 528.08984375 l 1
 139.666015625 0.08984375 l 1
 134.235351562 1.544921875 l 1
136.154296875 353.544921875 m 1
 137.76171875 359.544921875 l 1
 701.483398438 246.544921875 l 5
 699.875976562 240.544921875 l 5
 698.267578125 234.544921875 l 5
 134.545898438 347.544921875 l 1
 136.154296875 353.544921875 l 1
143.227539062 379.9453125 m 1
 144.8359375 385.9453125 l 1
 738.8359375 385.9453125 l 1
 737.227539062 379.9453125 l 1
 735.620117188 373.9453125 l 1
 141.620117188 373.9453125 l 1
 143.227539062 379.9453125 l 1
88.2041015625 289.544921875 m 1
 89.8125 295.544921875 l 1
 653.801757812 183.544921875 l 1
 652.194335938 177.544921875 l 1
 650.5859375 171.544921875 l 1
 86.5966796875 283.544921875 l 1
 88.2041015625 289.544921875 l 1
51.1201171875 151.14453125 m 1
 52.7275390625 157.14453125 l 1
 646.727539062 157.14453125 l 1
 645.120117188 151.14453125 l 1
 643.512695312 145.14453125 l 1
 49.5126953125 145.14453125 l 1
 51.1201171875 151.14453125 l 1
415.8359375 1.544921875 m 1
 410.404296875 3 l 1
 683.881835938 531 l 1
 689.313476562 529.544921875 l 1
 694.743164062 528.08984375 l 1
 421.266601562 0.08984375 l 1
 415.8359375 1.544921875 l 1
389.435546875 1.544921875 m 1
 384.00390625 3 l 1
 657.481445312 531 l 1
 662.913085938 529.544921875 l 1
 668.342773438 528.08984375 l 1
 394.866210938 0.08984375 l 1
 389.435546875 1.544921875 l 1
EndSplineSet
EndChar

StartChar: dollar
Encoding: 36 36 3
Width: 521
VWidth: -2388
Flags: HW
LayerCount: 2
Fore
SplineSet
578.895507812 594.581054688 m 5
 573.396484375 590.510742188 l 5
 519.330078125 673 l 5
 420.955078125 703.034179688 l 5
 306.484375 673 l 5
 208.212890625 590.510742188 l 5
 204.895507812 594.581054688 l 5
 201.578125 598.651367188 l 5
 301.33203125 682.384765625 l 6
 302.075195312 683.008789062 303.419921875 683.788085938 304.56640625 684.088867188 c 6
 422.54296875 715.04296875 l 6
 423.422851562 715.2734375 424.81640625 715.34375 425.801757812 715.04296875 c 6
 527.189453125 684.088867188 l 6
 527.946289062 683.858398438 528.978515625 683.19921875 529.512695312 682.384765625 c 6
 584.39453125 598.651367188 l 5
 578.895507812 594.581054688 l 5
437.625 101.850585938 m 5
 440.846679688 97.701171875 l 5
 373.057617188 50.505859375 l 6
 372.061523438 49.791015625 370.684570312 49.0771484375 369.879882812 48.87109375 c 6
 366.454101562 47.9921875 l 6
 365.337890625 47.7060546875 363.865234375 47.333984375 363.263671875 47.9921875 c 6
 206.157226562 137.87109375 l 6
 205.38671875 138.311523438 204.392578125 138.727539062 203.857421875 139.505859375 c 6
 87.2578125 253.83203125 l 5
 92.7041015625 257.981445312 l 5
 98.1494140625 262.130859375 l 5
 213.924804688 149 l 5
 368.077148438 60 l 5
 368.077148438 60 l 5
 434.40234375 106 l 5
 437.625 101.850585938 l 5
204.895507812 594.581054688 m 5
 210.982421875 594.950195312 l 5
 193.40234375 509.715820312 l 5
 194.52734375 405.25 l 5
 249.18359375 332.348632812 l 5
 294.1171875 299 l 5
 291.11328125 293.17578125 l 5
 288.109375 287.3515625 l 5
 242.01171875 321.009765625 l 6
 241.482421875 321.403320312 240.5703125 321.59375 240.046875 322.112304688 c 6
 183.79296875 396.599609375 l 6
 183.322265625 397.068359375 182.893554688 397.786132812 182.701171875 398.53125 c 6
 180.990234375 505.2734375 l 6
 180.817382812 505.9453125 180.7890625 506.854492188 180.961914062 507.694335938 c 6
 198.807617188 594.211914062 l 5
 204.895507812 594.581054688 l 5
437.625 101.850585938 m 5
 431.549804688 101.541992188 l 5
 459.67578125 163 l 5
 399.393554688 203 l 5
 346.568359375 243.502929688 l 5
 288.3359375 287.297851562 l 5
 291.11328125 293.17578125 l 5
 293.889648438 299.053710938 l 5
 353.36328125 254.991210938 l 6
 353.969726562 254.708007812 354.900390625 254.446289062 355.461914062 253.922851562 c 6
 410.004882812 211.818359375 l 6
 410.518554688 211.338867188 410.774414062 210.254882812 411.178710938 209.8359375 c 6
 472.08984375 167.473632812 l 6
 472.663085938 167.1953125 472.59375 165.76171875 472.114257812 164.955078125 c 6
 443.698242188 102.159179688 l 5
 437.625 101.850585938 l 5
45.759765625 82.78125 m 5
 50.9287109375 87.28515625 l 5
 138.9375 10.8056640625 l 5
 298.798828125 -2.087890625 l 5
 407.477539062 53.3525390625 l 5
 494.520507812 155.602539062 l 5
 505.040039062 306.033203125 l 5
 405.543945312 399.302734375 l 5
 314.659179688 472.75 l 6
 313.016601562 473.086914062 311.790039062 474.254882812 311.365234375 475.698242188 c 6
 204.6875 547.639648438 l 6
 203.294921875 549.006835938 205.0078125 552.120117188 206.604492188 553.909179688 c 6
 291.604492188 649.13671875 l 6
 293.109375 650.74609375 295.369140625 651.703125 296.947265625 651.797851562 c 6
 436.776367188 558.169921875 l 6
 437.609375 557.611328125 439.647460938 557.7734375 440.538085938 556.866210938 c 6
 544.243164062 451.266601562 l 5
 539.239257812 446.581054688 l 5
 534.234375 441.895507812 l 5
 431.948242188 546.051757812 l 5
 294.416015625 636 l 5
 219.203125 552.315429688 l 5
 322.6875 484 l 5
 412.015625 410.87109375 l 6
 412.428710938 410.533203125 413.313476562 410.458984375 413.822265625 410.079101562 c 6
 515.913085938 314.87890625 l 6
 516.907226562 314.138671875 517.676757812 312.650390625 517.5859375 311.026367188 c 6
 506.80078125 155.826171875 l 6
 506.720703125 154.3984375 506.061523438 152.83984375 504.969726562 151.557617188 c 6
 415.075195312 45.9580078125 l 6
 414.345703125 45.1015625 413.387695312 44.3349609375 412.370117188 43.81640625 c 6
 300.244140625 -13.3837890625 l 6
 299.215820312 -13.9091796875 297.7109375 -14.2978515625 296.500976562 -14.2001953125 c 6
 132.837890625 -1 l 6
 131.737304688 -0.9111328125 130.489257812 -0.3828125 129.7421875 0.4775390625 c 6
 40.5888671875 78.27734375 l 5
 45.759765625 82.78125 l 5
445.392578125 774 m 1
 451.392578125 774 l 1
 221.4921875 -84 l 1
 215.4921875 -84 l 1
 209.4921875 -84 l 1
 439.392578125 774 l 1
 445.392578125 774 l 1
471.79296875 774 m 1
 477.79296875 774 l 1
 247.892578125 -84 l 1
 241.892578125 -84 l 1
 235.892578125 -84 l 1
 465.79296875 774 l 1
 471.79296875 774 l 1
EndSplineSet
EndChar

StartChar: percent
Encoding: 37 37 4
Width: 739
VWidth: -2471
Flags: HW
LayerCount: 2
Fore
SplineSet
209.24609375 471.350585938 m 1
 205.671875 417.1953125 l 1
 223.620117188 372.999023438 l 1
 259.833984375 343.208007812 l 1
 311.059570312 332.271484375 l 1
 368.14453125 343.208007812 l 1
 420.323242188 372.999023438 l 1
 461.95703125 417.1953125 l 1
 487.404296875 471.350585938 l 1
 490.979492188 525.506835938 l 1
 473.030273438 569.702148438 l 1
 436.81640625 599.494140625 l 1
 385.591796875 610.4296875 l 1
 328.505859375 599.494140625 l 1
 276.327148438 569.702148438 l 1
 234.694335938 525.506835938 l 1
 209.24609375 471.350585938 l 1
197.5625 472.5390625 m 2
 224.119140625 529.055664062 l 2
 224.479492188 529.822265625 225.067382812 530.649414062 225.60546875 531.220703125 c 2
 269.086914062 577.377929688 l 2
 269.682617188 578.01171875 270.489257812 578.626953125 271.142578125 579 c 2
 325.63671875 610.11328125 l 2
 326.40234375 610.55078125 327.33203125 610.8828125 328.045898438 611.01953125 c 2
 387.620117188 622.432617188 l 2
 388.438476562 622.588867188 389.345703125 622.571289062 389.995117188 622.432617188 c 2
 443.454101562 611.01953125 l 2
 444.1796875 610.864257812 444.908203125 610.499023438 445.376953125 610.11328125 c 2
 483.197265625 579 l 2
 483.715820312 578.573242188 484.159179688 577.932617188 484.384765625 577.377929688 c 2
 503.129882812 531.220703125 l 2
 503.393554688 530.572265625 503.500976562 529.731445312 503.456054688 529.055664062 c 2
 499.725585938 472.5390625 l 2
 499.673828125 471.76171875 499.412109375 470.850585938 499.088867188 470.163085938 c 2
 472.532226562 413.646484375 l 2
 472.171875 412.879882812 471.584960938 412.052734375 471.045898438 411.48046875 c 2
 427.564453125 365.323242188 l 2
 426.96875 364.690429688 426.163085938 364.075195312 425.508789062 363.702148438 c 2
 371.014648438 332.588867188 l 2
 370.249023438 332.151367188 369.319335938 331.819335938 368.60546875 331.682617188 c 2
 309.03125 320.26953125 l 2
 308.211914062 320.112304688 307.305664062 320.130859375 306.65625 320.26953125 c 2
 253.197265625 331.682617188 l 2
 252.47265625 331.837890625 251.743164062 332.203125 251.274414062 332.588867188 c 2
 213.454101562 363.702148438 l 2
 212.935546875 364.12890625 212.491210938 364.76953125 212.266601562 365.323242188 c 2
 193.521484375 411.48046875 l 2
 193.2578125 412.129882812 193.151367188 412.970703125 193.1953125 413.646484375 c 2
 196.92578125 470.163085938 l 2
 196.9765625 470.939453125 197.240234375 471.8515625 197.5625 472.5390625 c 2
284.018554688 550.5078125 m 1
 257.869140625 522 l 1
 323.137695312 459.872070312 l 1
 407.547851562 388.205078125 l 1
 436.715820312 417.203125 l 1
 362.634765625 500.581054688 l 1
 284.018554688 550.5078125 l 1
281.814453125 556.055664062 m 1
 282.587890625 562 l 1
 368.401367188 513.030273438 l 2
 369.950195312 512.146484375 372.736328125 511.086914062 373.654296875 510 c 2
 449.638671875 420.000976562 l 2
 451.45703125 419.400390625 449.310546875 415.405273438 447.930664062 414 c 2
 413.552734375 379 l 2
 411.643554688 377.315429688 408.196289062 374.943359375 407.420898438 376.090820312 c 2
 316.041015625 448 l 2
 314.708007812 449.048828125 311.823242188 449.455078125 311.790039062 451.228515625 c 2
 244.995117188 519.41796875 l 2
 243.884765625 520.55078125 245.450195312 523.411132812 246.712890625 525.23828125 c 2
 277.466796875 559.108398438 l 1
 281.814453125 556.055664062 l 1
424.803710938 126.350585938 m 1
 421.229492188 72.1953125 l 1
 439.177734375 27.9990234375 l 1
 475.391601562 -1.7919921875 l 1
 526.6171875 -12.728515625 l 1
 583.702148438 -1.7919921875 l 1
 635.880859375 27.9990234375 l 1
 677.514648438 72.1953125 l 1
 702.961914062 126.350585938 l 1
 706.536132812 180.506835938 l 1
 688.587890625 224.702148438 l 1
 652.374023438 254.494140625 l 1
 601.149414062 265.4296875 l 1
 544.063476562 254.494140625 l 1
 491.884765625 224.702148438 l 1
 450.250976562 180.506835938 l 1
 424.803710938 126.350585938 l 1
413.120117188 127.5390625 m 2
 439.676757812 184.055664062 l 2
 440.037109375 184.822265625 440.624023438 185.649414062 441.163085938 186.220703125 c 2
 484.64453125 232.377929688 l 2
 485.240234375 233.01171875 486.046875 233.626953125 486.700195312 234 c 2
 541.194335938 265.11328125 l 2
 541.959960938 265.55078125 542.889648438 265.8828125 543.602539062 266.01953125 c 2
 603.177734375 277.432617188 l 2
 603.99609375 277.588867188 604.903320312 277.571289062 605.552734375 277.432617188 c 2
 659.010742188 266.01953125 l 2
 659.737304688 265.864257812 660.465820312 265.499023438 660.934570312 265.11328125 c 2
 698.754882812 234 l 2
 699.2734375 233.573242188 699.716796875 232.932617188 699.942382812 232.377929688 c 2
 718.6875 186.220703125 l 2
 718.951171875 185.572265625 719.05859375 184.731445312 719.013671875 184.055664062 c 2
 715.283203125 127.5390625 l 2
 715.231445312 126.76171875 714.969726562 125.850585938 714.646484375 125.163085938 c 2
 688.08984375 68.646484375 l 2
 687.729492188 67.8798828125 687.142578125 67.052734375 686.603515625 66.48046875 c 2
 643.122070312 20.3232421875 l 2
 642.526367188 19.6904296875 641.720703125 19.0751953125 641.065429688 18.7021484375 c 2
 586.572265625 -12.4111328125 l 2
 585.806640625 -12.8486328125 584.875976562 -13.1806640625 584.163085938 -13.3173828125 c 2
 524.587890625 -24.73046875 l 2
 523.76953125 -24.8876953125 522.86328125 -24.869140625 522.212890625 -24.73046875 c 2
 468.754882812 -13.3173828125 l 2
 468.030273438 -13.162109375 467.30078125 -12.796875 466.83203125 -12.4111328125 c 2
 429.010742188 18.7021484375 l 2
 428.493164062 19.12890625 428.048828125 19.76953125 427.82421875 20.3232421875 c 2
 409.079101562 66.48046875 l 2
 408.815429688 67.1298828125 408.708984375 67.970703125 408.752929688 68.646484375 c 2
 412.483398438 125.163085938 l 2
 412.534179688 125.939453125 412.797851562 126.8515625 413.120117188 127.5390625 c 2
500.147460938 205.362304688 m 1
 471.426757812 177 l 1
 537.206054688 109 l 1
 632.709960938 49.201171875 l 5
 657.560546875 73 l 1
 588.323242188 159.6328125 l 1
 500.147460938 205.362304688 l 1
498.163085938 211.03125 m 1
 499.14453125 217 l 1
 594.264648438 171.969726562 l 2
 596.793945312 172.4453125 598.479492188 170.05078125 599.283203125 169 c 2
 670.505859375 75.939453125 l 2
 672.1171875 75.2890625 670.295898438 71.3134765625 668.823242188 69.853515625 c 2
 638.717773438 40 l 6
 636.76953125 38.390625 633.497070312 35.8681640625 632.592773438 37.0908203125 c 6
 530.119140625 97.1240234375 l 2
 528.647460938 97.986328125 525.868164062 98.5634765625 525.861328125 100.352539062 c 2
 458.5234375 174.534179688 l 2
 457.306640625 175.874023438 459.166015625 178.905273438 460.389648438 180.5234375 c 2
 493.96484375 214.252929688 l 1
 498.163085938 211.03125 l 1
86.6376953125 -12.6494140625 m 1
 83.2802734375 -8.61328125 l 1
 812.060546875 610.55078125 l 1
 385.624023438 610.55078125 l 1
 387.231445312 616.55078125 l 1
 388.838867188 622.55078125 l 1
 828.838867188 622.55078125 l 2
 830.096679688 622.55078125 831.345703125 622.107421875 832.178710938 621.293945312 c 0
 834.337890625 619.180664062 833.59375 615.067382812 830.58984375 612.514648438 c 2
 89.99609375 -16.685546875 l 1
 86.6376953125 -12.6494140625 l 1
94.046875 23.2119140625 m 1
 90.6884765625 27.248046875 l 1
 745.409179688 583.489257812 l 1
 362.97265625 583.489257812 l 1
 364.580078125 589.489257812 l 1
 366.1875 595.489257812 l 1
 762.1875 595.489257812 l 2
 763.4453125 595.489257812 764.694335938 595.045898438 765.526367188 594.232421875 c 0
 767.686523438 592.119140625 766.942382812 588.005859375 763.938476562 585.453125 c 2
 97.404296875 19.17578125 l 1
 94.046875 23.2119140625 l 1
EndSplineSet
EndChar

StartChar: ampersand
Encoding: 38 38 5
Width: 628
VWidth: -2443
Flags: HW
LayerCount: 2
Fore
SplineSet
574.955078125 595.356445312 m 1
 569.100585938 591.954101562 l 1
 534.59765625 674 l 1
 450.319335938 704.947265625 l 1
 349.45703125 674 l 1
 270.984375 591.954101562 l 1
 266.955078125 595.356445312 l 1
 262.923828125 598.758789062 l 1
 342.9765625 682.45703125 l 2
 343.87109375 683.392578125 345.27734375 684.330078125 346.62890625 684.745117188 c 2
 451.637695312 716.963867188 l 2
 452.810546875 717.32421875 454.3125 717.377929688 455.442382812 716.963867188 c 2
 543.18359375 684.745117188 l 2
 544.1640625 684.384765625 545.157226562 683.533203125 545.610351562 682.45703125 c 2
 580.807617188 598.758789062 l 1
 574.955078125 595.356445312 l 1
556.846679688 199.356445312 m 1
 561.803710938 197.103515625 l 1
 473.315429688 65.6279296875 l 2
 472.491210938 64.4033203125 471.182617188 63.3046875 470.026367188 62.71484375 c 2
 328.556640625 -9.443359375 l 2
 327.239257812 -10.115234375 325.696289062 -10.3720703125 324.583007812 -10.2353515625 c 2
 188.225585938 6.552734375 l 2
 186.955078125 6.708984375 185.8125 7.3994140625 185.198242188 8.20703125 c 2
 109.93359375 107.052734375 l 1
 115.267578125 111.356445312 l 1
 120.6015625 115.66015625 l 1
 194.7890625 18.228515625 l 1
 327.245117188 1.9208984375 l 1
 464.666992188 72.0146484375 l 1
 551.889648438 201.609375 l 1
 556.846679688 199.356445312 l 1
266.955078125 595.356445312 m 1
 272.99609375 595.515625 l 1
 256.334960938 526.489257812 l 1
 269.430664062 465.4609375 l 1
 309.659179688 421.901367188 l 1
 371.079101562 403.129882812 l 1
 367.901367188 397.356445312 l 1
 364.72265625 391.58203125 l 1
 302.158203125 410.703125 l 2
 301.481445312 410.91015625 300.747070312 411.33984375 300.247070312 411.881835938 c 2
 258.48828125 457.09765625 l 2
 258.037109375 457.586914062 257.638671875 458.326171875 257.474609375 459.0859375 c 2
 243.880859375 522.434570312 l 2
 243.733398438 523.119140625 243.739257812 524.040039062 243.942382812 524.8828125 c 2
 260.9140625 595.197265625 l 1
 266.955078125 595.356445312 l 1
115.267578125 111.356445312 m 1
 109.055664062 109.870117188 l 1
 110.265625 207.876953125 l 2
 110.279296875 208.915039062 110.595703125 210.022460938 111.169921875 211.046875 c 2
 165.567382812 308.143554688 l 2
 166.142578125 309.170898438 166.977539062 310.114257812 167.952148438 310.842773438 c 2
 260.353515625 379.932617188 l 2
 261.33203125 380.6640625 262.450195312 381.178710938 263.552734375 381.408203125 c 2
 368.176757812 403.21484375 l 1
 367.901367188 397.356445312 l 1
 367.624023438 391.497070312 l 1
 264.69921875 370.044921875 l 1
 175.299804688 303.19921875 l 1
 122.668945312 209.256835938 l 1
 121.479492188 112.841796875 l 1
 115.267578125 111.356445312 l 1
627.5859375 463.356445312 m 1
 633.5859375 463.356445312 l 1
 562.846679688 199.356445312 l 1
 556.846679688 199.356445312 l 1
 550.846679688 199.356445312 l 1
 621.5859375 463.356445312 l 1
 627.5859375 463.356445312 l 1
601.185546875 463.356445312 m 1
 607.185546875 463.356445312 l 1
 536.446289062 199.356445312 l 1
 530.446289062 199.356445312 l 1
 524.446289062 199.356445312 l 1
 595.185546875 463.356445312 l 1
 601.185546875 463.356445312 l 1
687.157226562 275.15625 m 1
 685.549804688 269.15625 l 1
 516.756835938 378.15625 l 1
 518.364257812 384.15625 l 1
 519.971679688 390.15625 l 1
 688.765625 281.15625 l 1
 687.157226562 275.15625 l 1
723.438476562 410.556640625 m 1
 721.830078125 404.556640625 l 1
 523.830078125 404.556640625 l 1
 525.438476562 410.556640625 l 1
 527.045898438 416.556640625 l 1
 725.045898438 416.556640625 l 1
 723.438476562 410.556640625 l 1
530.446289062 199.356445312 m 1
 535.578125 197.374023438 l 1
 481.19921875 109.374023438 l 2
 480.620117188 108.436523438 479.724609375 107.642578125 478.9140625 106.916992188 c 2
 421.838867188 55.2646484375 l 2
 420.219726562 54.0810546875 417.708007812 52.91796875 416.65234375 53.75 c 2
 254.755859375 145.432617188 l 2
 253.506835938 146.17578125 251.913085938 146.881835938 251.2109375 148.05859375 c 2
 155.37890625 253.811523438 l 2
 154.365234375 254.978515625 155.219726562 257.630859375 156.108398438 259.084960938 c 2
 221.861328125 333.301757812 l 2
 223.370117188 335.004882812 225.119140625 336.669921875 226.98828125 337.14453125 c 2
 378.0546875 375.5390625 l 1
 404.104492188 470.629882812 l 5
 346.670898438 525.381835938 l 2
 345.9140625 526.103515625 343.606445312 526.619140625 343.047851562 528.017578125 c 2
 290.474609375 595.028320312 l 2
 289.2734375 596.55859375 290.536132812 599.36328125 291.772460938 601.118164062 c 2
 334.66796875 648.515625 l 2
 336.205078125 650.21484375 338.96875 652.7421875 340.444335938 651.739257812 c 2
 455.08984375 575.1640625 l 2
 456.064453125 574.513671875 458.481445312 574.481445312 459.34375 573.330078125 c 2
 555.02734375 489 l 1
 549.583007812 484.848632812 l 1
 544.138671875 480.697265625 l 1
 449.85546875 563 l 1
 341.487304688 640 l 1
 303.416992188 598.73828125 l 1
 353.888671875 537 l 1
 413.803710938 481.962890625 l 6
 414.6875 479.87109375 418.388671875 479.151367188 417.543945312 476 c 6
 388.827148438 370.956054688 l 2
 388.206054688 368.684570312 385.798828125 365.916015625 382.854492188 365.166992188 c 2
 230.333984375 326.404296875 l 1
 168.130859375 258 l 1
 262.068359375 157 l 1
 418.684570312 66 l 1
 471.822265625 114.7734375 l 1
 525.314453125 201.337890625 l 1
 530.446289062 199.356445312 l 1
EndSplineSet
EndChar

StartChar: quotesingle
Encoding: 39 39 6
Width: 241
VWidth: -2677
Flags: HW
LayerCount: 2
Fore
SplineSet
213.239257812 551 m 5
 219.239257812 551 l 5
 266.3984375 727 l 5
 260.3984375 727 l 5
 254.3984375 727 l 5
 207.239257812 551 l 5
 213.239257812 551 l 5
239.639648438 551 m 5
 245.639648438 551 l 5
 395.798828125 727 l 5
 389.798828125 727 l 5
 383.798828125 727 l 5
 233.639648438 551 l 5
 239.639648438 551 l 5
EndSplineSet
EndChar

StartChar: parenleft
Encoding: 40 40 7
Width: 281
VWidth: -2448
Flags: HW
LayerCount: 2
Fore
SplineSet
386.680664062 687 m 5
 390.513671875 683.397460938 l 5
 310.130859375 604.495117188 l 5
 245.275390625 518.981445312 l 5
 162.28125 335 l 5
 146.6796875 151.018554688 l 5
 165.708984375 65.5048828125 l 5
 203.807617188 -13.3974609375 l 5
 198.044921875 -17 l 5
 192.28125 -20.6025390625 l 5
 153.963867188 58.751953125 l 6
 153.85546875 58.9765625 153.705078125 59.38671875 153.6328125 59.7119140625 c 6
 134.325195312 146.478515625 l 6
 134.237304688 146.870117188 134.18359375 147.51171875 134.228515625 148.040039062 c 6
 149.991210938 333.918945312 l 6
 150.041992188 334.526367188 150.250976562 335.375976562 150.5703125 336.081054688 c 6
 234.419921875 521.959960938 l 6
 234.61328125 522.387695312 234.986328125 523.0390625 235.353515625 523.521484375 c 6
 301.159179688 610.288085938 l 6
 301.349609375 610.5390625 301.709960938 610.958007812 302.004882812 611.248046875 c 6
 382.848632812 690.602539062 l 5
 386.680664062 687 l 5
413.081054688 687 m 5
 416.9140625 683.397460938 l 5
 336.53125 604.495117188 l 5
 271.67578125 518.981445312 l 5
 188.681640625 335 l 5
 173.080078125 151.018554688 l 5
 192.109375 65.5048828125 l 5
 230.208007812 -13.3974609375 l 5
 224.4453125 -17 l 5
 218.681640625 -20.6025390625 l 5
 180.364257812 58.751953125 l 6
 180.255859375 58.9765625 180.10546875 59.38671875 180.033203125 59.7119140625 c 6
 160.725585938 146.478515625 l 6
 160.637695312 146.870117188 160.583984375 147.51171875 160.62890625 148.040039062 c 6
 176.391601562 333.918945312 l 6
 176.442382812 334.526367188 176.651367188 335.375976562 176.970703125 336.081054688 c 6
 260.8203125 521.959960938 l 6
 261.013671875 522.387695312 261.38671875 523.0390625 261.75390625 523.521484375 c 6
 327.559570312 610.288085938 l 6
 327.75 610.5390625 328.110351562 610.958007812 328.405273438 611.248046875 c 6
 409.249023438 690.602539062 l 5
 413.081054688 687 l 5
EndSplineSet
EndChar

StartChar: parenright
Encoding: 41 41 8
Width: 281
VWidth: -2448
Flags: HW
LayerCount: 2
Fore
SplineSet
275.796875 687 m 5
 270.034179688 683.397460938 l 5
 308.131835938 604.495117188 l 5
 327.161132812 518.981445312 l 5
 311.559570312 335 l 5
 228.565429688 151.018554688 l 5
 163.709960938 65.5048828125 l 5
 83.328125 -13.3974609375 l 5
 87.1611328125 -17 l 5
 90.9931640625 -20.6025390625 l 5
 171.8359375 58.751953125 l 6
 172.065429688 58.9765625 172.436523438 59.38671875 172.682617188 59.7119140625 c 6
 238.48828125 146.478515625 l 6
 238.78515625 146.870117188 239.182617188 147.51171875 239.420898438 148.040039062 c 6
 323.271484375 333.918945312 l 6
 323.544921875 334.526367188 323.791015625 335.375976562 323.850585938 336.081054688 c 6
 339.612304688 521.959960938 l 6
 339.649414062 522.387695312 339.624023438 523.0390625 339.516601562 523.521484375 c 6
 320.208984375 610.288085938 l 6
 320.153320312 610.5390625 320.017578125 610.958007812 319.876953125 611.248046875 c 6
 281.560546875 690.602539062 l 5
 275.796875 687 l 5
249.396484375 687 m 5
 243.633789062 683.397460938 l 5
 281.731445312 604.495117188 l 5
 300.760742188 518.981445312 l 5
 285.159179688 335 l 5
 202.165039062 151.018554688 l 5
 137.309570312 65.5048828125 l 5
 56.927734375 -13.3974609375 l 5
 60.7607421875 -17 l 5
 64.5927734375 -20.6025390625 l 5
 145.435546875 58.751953125 l 6
 145.665039062 58.9765625 146.036132812 59.38671875 146.282226562 59.7119140625 c 6
 212.087890625 146.478515625 l 6
 212.384765625 146.870117188 212.782226562 147.51171875 213.020507812 148.040039062 c 6
 296.87109375 333.918945312 l 6
 297.14453125 334.526367188 297.390625 335.375976562 297.450195312 336.081054688 c 6
 313.211914062 521.959960938 l 6
 313.249023438 522.387695312 313.223632812 523.0390625 313.116210938 523.521484375 c 6
 293.80859375 610.288085938 l 6
 293.752929688 610.5390625 293.6171875 610.958007812 293.4765625 611.248046875 c 6
 255.16015625 690.602539062 l 5
 249.396484375 687 l 5
EndSplineSet
EndChar

StartChar: asterisk
Encoding: 42 42 9
Width: 319
VWidth: -2635
Flags: HW
LayerCount: 2
Fore
SplineSet
344.881835938 740 m 1
 350.881835938 740 l 1
 291.93359375 520 l 1
 285.93359375 520 l 1
 279.93359375 520 l 1
 338.881835938 740 l 1
 344.881835938 740 l 1
371.282226562 740 m 1
 377.282226562 740 l 1
 318.333984375 520 l 1
 312.333984375 520 l 1
 306.333984375 520 l 1
 365.282226562 740 l 1
 371.282226562 740 l 1
261.829101562 709.200195312 m 1
 266.625 714.083007812 l 1
 416.055664062 582.083007812 l 1
 411.259765625 577.200195312 l 1
 406.463867188 572.317382812 l 1
 257.034179688 704.317382812 l 1
 261.829101562 709.200195312 l 1
242.734375 687.200195312 m 1
 247.530273438 692.083007812 l 1
 396.9609375 560.083007812 l 1
 392.165039062 555.200195312 l 1
 387.369140625 550.317382812 l 1
 237.938476562 682.317382812 l 1
 242.734375 687.200195312 l 1
437.829101562 709.200195312 m 1
 440.008789062 704.317382812 l 1
 219.838867188 572.317382812 l 1
 217.66015625 577.200195312 l 1
 215.481445312 582.083007812 l 1
 435.650390625 714.083007812 l 1
 437.829101562 709.200195312 l 1
445.134765625 687.200195312 m 1
 447.313476562 682.317382812 l 1
 227.14453125 550.317382812 l 1
 224.965820312 555.200195312 l 1
 222.787109375 560.083007812 l 1
 442.956054688 692.083007812 l 1
 445.134765625 687.200195312 l 1
EndSplineSet
EndChar

StartChar: plus
Encoding: 43 43 10
Width: 512
VWidth: -2567
Flags: HW
LayerCount: 2
Fore
SplineSet
290.364257812 76 m 1
 284.364257812 76 l 1
 390.471679688 472 l 1
 396.471679688 472 l 1
 402.471679688 472 l 1
 296.364257812 76 l 1
 290.364257812 76 l 1
263.963867188 76 m 1
 257.963867188 76 l 1
 364.071289062 472 l 1
 370.071289062 472 l 1
 376.071289062 472 l 1
 269.963867188 76 l 1
 263.963867188 76 l 1
135.165039062 285 m 1
 136.7734375 291 l 1
 532.7734375 291 l 1
 531.165039062 285 l 1
 529.557617188 279 l 1
 133.557617188 279 l 1
 135.165039062 285 l 1
128.091796875 258.599609375 m 1
 129.69921875 264.599609375 l 1
 525.69921875 264.599609375 l 1
 524.091796875 258.599609375 l 1
 522.483398438 252.599609375 l 1
 126.483398438 252.599609375 l 1
 128.091796875 258.599609375 l 1
EndSplineSet
EndChar

StartChar: comma
Encoding: 44 44 11
Width: 188
VWidth: -2669
Flags: HW
LayerCount: 2
Fore
SplineSet
91.4072265625 48.400390625 m 1
 93.0146484375 54.400390625 l 1
 134.814453125 54.400390625 l 2
 138.815429688 54.400390625 140.200195312 50.427734375 138.836914062 47.357421875 c 2
 105.59375 -27.4423828125 l 2
 105.217773438 -28.2880859375 104.599609375 -29.1728515625 103.983398438 -29.814453125 c 2
 49.056640625 -87.0146484375 l 1
 45.0380859375 -83.599609375 l 1
 41.01953125 -80.1845703125 l 1
 94.9091796875 -24.0634765625 l 1
 124.448242188 42.400390625 l 1
 89.7998046875 42.400390625 l 1
 91.4072265625 48.400390625 l 1
72.89453125 22 m 1
 74.5029296875 28 l 1
 99.583984375 28 l 2
 103.584960938 28 104.969726562 24.02734375 103.60546875 20.95703125 c 2
 83.6611328125 -23.923828125 l 2
 83.28515625 -24.76953125 82.666015625 -25.654296875 82.048828125 -26.296875 c 2
 49.0908203125 -60.615234375 l 1
 45.07421875 -57.19921875 l 1
 41.056640625 -53.783203125 l 1
 72.9765625 -20.544921875 l 1
 89.216796875 16 l 1
 71.287109375 16 l 1
 72.89453125 22 l 1
EndSplineSet
EndChar

StartChar: hyphen
Encoding: 45 45 12
Width: 339
VWidth: -2709
Flags: HW
LayerCount: 2
Fore
SplineSet
173.92578125 358 m 5
 175.533203125 364 l 5
 351.533203125 364 l 5
 349.92578125 358 l 5
 348.318359375 352 l 5
 172.318359375 352 l 5
 173.92578125 358 l 5
166.8515625 331.599609375 m 5
 168.459960938 337.599609375 l 5
 344.459960938 337.599609375 l 5
 342.8515625 331.599609375 l 5
 341.244140625 325.599609375 l 5
 165.244140625 325.599609375 l 5
 166.8515625 331.599609375 l 5
EndSplineSet
EndChar

StartChar: period
Encoding: 46 46 13
Width: 227
VWidth: -2683
Flags: HW
LayerCount: 2
Fore
SplineSet
119.052734375 53 m 1
 125.724609375 43.8857421875 l 1
 137.28125 53 l 1
 130.609375 62.1142578125 l 1
 119.052734375 53 l 1
107.4609375 57.2421875 m 2
 129.776367188 74.841796875 l 2
 133.033203125 77.41015625 136.9296875 76.6630859375 138.26171875 74.841796875 c 2
 151.145507812 57.2421875 l 2
 153.026367188 54.6748046875 151.181640625 50.578125 148.872070312 48.7578125 c 2
 126.556640625 31.158203125 l 2
 123.30078125 28.58984375 119.404296875 29.3369140625 118.071289062 31.158203125 c 2
 105.1875 48.7578125 l 2
 103.30859375 51.3251953125 105.153320312 55.421875 107.4609375 57.2421875 c 2
89.1328125 53 m 1
 117.708007812 13.9658203125 l 1
 167.201171875 53 l 1
 138.625976562 92.0341796875 l 1
 89.1328125 53 l 1
77.541015625 57.2421875 m 2
 137.793945312 104.76171875 l 2
 141.049804688 107.330078125 144.946289062 106.583007812 146.279296875 104.76171875 c 2
 181.065429688 57.2421875 l 2
 182.946289062 54.6748046875 181.1015625 50.578125 178.791992188 48.7578125 c 2
 118.540039062 1.23828125 l 2
 115.284179688 -1.330078125 111.387695312 -0.5830078125 110.0546875 1.23828125 c 2
 75.267578125 48.7578125 l 2
 73.388671875 51.3251953125 75.2333984375 55.421875 77.541015625 57.2421875 c 2
EndSplineSet
EndChar

StartChar: slash
Encoding: 47 47 14
Width: 481
VWidth: -2380
Flags: HW
LayerCount: 2
Fore
SplineSet
45.451171875 0.31640625 m 5
 40.8037109375 3 l 5
 716.599609375 883 l 5
 721.24609375 880.31640625 l 5
 725.89453125 877.633789062 l 5
 50.099609375 -2.3662109375 l 5
 45.451171875 0.31640625 l 5
76.251953125 0.31640625 m 5
 71.6044921875 3 l 5
 747.400390625 883 l 5
 752.046875 880.31640625 l 5
 756.6953125 877.633789062 l 5
 80.900390625 -2.3662109375 l 5
 76.251953125 0.31640625 l 5
EndSplineSet
EndChar

StartChar: zero
Encoding: 48 48 15
Width: 657
VWidth: -2434
Flags: HW
LayerCount: 2
Fore
SplineSet
541.05078125 537.904296875 m 1
 392.970703125 653 l 1
 310.947265625 591.170898438 l 1
 183.892578125 384 l 1
 225.241210938 292 l 1
 326.4765625 180.47265625 l 1
 498.651367188 92 l 1
 582.1484375 164.703125 l 1
 674.947265625 336.407226562 l 1
 624.022460938 433 l 1
 541.05078125 537.904296875 l 1
544.640625 543.904296875 m 1
 548.971679688 546.72265625 l 1
 635.08203125 441.407226562 l 2
 635.849609375 440.696289062 636.302734375 439.428710938 636.427734375 438.1875 c 2
 687.3828125 338.241210938 l 2
 687.64453125 337.540039062 687.170898438 336.396484375 686.749023438 335.487304688 c 2
 592.35546875 160.348632812 l 2
 591.6953125 159.194335938 590.642578125 157.922851562 589.461914062 156.948242188 c 2
 501.654296875 81.240234375 l 2
 500.369140625 80.3447265625 498.42578125 79.6708984375 496.825195312 79.8203125 c 2
 319.970703125 168.728515625 l 2
 318.860351562 169.188476562 317.290039062 169.487304688 316.637695312 170.599609375 c 2
 213.384765625 285.140625 l 2
 212.90234375 285.860351562 213.140625 287.451171875 212.684570312 288.314453125 c 2
 171.705078125 383.64453125 l 2
 171.391601562 384.375 172.18359375 385.646484375 172.767578125 386.584960938 c 2
 301.791992188 596.9140625 l 2
 302.33984375 597.833984375 303.537109375 598.909179688 304.627929688 599.725585938 c 2
 391.586914062 664.821289062 l 2
 392.65625 665.482421875 394.450195312 667 395.741210938 667 c 2
 546.249023438 549.904296875 l 1
 544.640625 543.904296875 l 1
152.674804688 357.904296875 m 1
 138.1484375 222.189453125 l 1
 166.618164062 106.802734375 l 1
 233.483398438 29.43359375 l 1
 332.627929688 1.21484375 l 1
 446.895507812 29.43359375 l 1
 555.223632812 106.802734375 l 1
 645.52734375 222.189453125 l 1
 703.732421875 357.904296875 l 1
 718.5234375 494.614257812 l 1
 690.0546875 610 l 1
 623.189453125 687.37109375 l 1
 524.044921875 715.592773438 l 1
 409.77734375 687.37109375 l 1
 301.44921875 610 l 1
 211.14453125 494.614257812 l 1
 152.674804688 357.904296875 l 1
140.91796875 358.817382812 m 2
 200.181640625 497.40625 l 2
 200.447265625 498.034179688 200.899414062 498.766601562 201.267578125 499.23828125 c 2
 293.036132812 616.495117188 l 2
 293.549804688 617.150390625 294.275390625 617.823242188 294.869140625 618.247070312 c 2
 405.560546875 697.305664062 l 2
 406.421875 697.920898438 407.447265625 698.38671875 408.346679688 698.608398438 c 2
 525.728515625 727.599609375 l 2
 526.801757812 727.865234375 527.884765625 727.859375 528.796875 727.599609375 c 2
 630.641601562 698.608398438 l 2
 631.4765625 698.37109375 632.233398438 697.880859375 632.73046875 697.305664062 c 2
 701.0546875 618.247070312 l 2
 701.4765625 617.758789062 701.80859375 617.063476562 701.948242188 616.495117188 c 2
 730.87890625 499.23828125 l 2
 731.017578125 498.673828125 731.04296875 497.930664062 730.982421875 497.40625 c 2
 715.9765625 358.817382812 l 2
 715.91015625 358.224609375 715.694335938 357.48046875 715.487304688 356.990234375 c 2
 656.490234375 219.397460938 l 2
 656.225585938 218.76953125 655.774414062 218.037109375 655.405273438 217.565429688 c 2
 563.635742188 100.307617188 l 2
 563.124023438 99.65234375 562.396484375 98.9794921875 561.803710938 98.556640625 c 2
 451.112304688 19.4990234375 l 2
 450.250976562 18.8828125 449.225585938 18.4169921875 448.325195312 18.1953125 c 2
 330.9453125 -10.7919921875 l 2
 329.872070312 -11.056640625 328.7890625 -11.0517578125 327.876953125 -10.7919921875 c 2
 226.030273438 18.1953125 l 2
 225.196289062 18.4326171875 224.439453125 18.9228515625 223.942382812 19.4990234375 c 2
 155.618164062 98.556640625 l 2
 155.196289062 99.0439453125 154.864257812 99.7392578125 154.723632812 100.307617188 c 2
 125.793945312 217.565429688 l 2
 125.654296875 218.129882812 125.629882812 218.873046875 125.689453125 219.397460938 c 2
 140.428710938 356.990234375 l 2
 140.49609375 357.583984375 140.7109375 358.327148438 140.91796875 358.817382812 c 2
285.913085938 193 m 5
 281.266601562 195.68359375 l 5
 538.6484375 534.366210938 l 1
 543.295898438 531.682617188 l 1
 547.944335938 529 l 1
 290.561523438 190.317382812 l 5
 285.913085938 193 l 5
316.713867188 193 m 5
 312.067382812 195.68359375 l 5
 569.44921875 534.366210938 l 1
 574.096679688 531.682617188 l 1
 578.745117188 529 l 1
 321.362304688 190.317382812 l 5
 316.713867188 193 l 5
EndSplineSet
EndChar

StartChar: one
Encoding: 49 49 16
Width: 492
VWidth: -2448
Flags: HW
LayerCount: 2
Fore
SplineSet
164.48046875 375 m 1
 161.19140625 379.09375 l 1
 557.614257812 709.09375 l 2
 560.643554688 711.615234375 564.768554688 711.595703125 566.416015625 709.051757812 c 0
 567.154296875 707.909179688 567.194335938 706.083984375 566.904296875 705 c 2
 378.267578125 1 l 1
 372.267578125 1 l 1
 366.267578125 1 l 1
 550.825195312 689.778320312 l 1
 167.770507812 370.90625 l 1
 164.48046875 375 l 1
156.66015625 337.599609375 m 1
 153.370117188 341.693359375 l 1
 468.384765625 484.315429688 l 6
 471.4140625 486.836914062 475.5390625 486.817382812 477.186523438 484.2734375 c 4
 477.924804688 483.130859375 477.965820312 481.305664062 477.674804688 480.221679688 c 6
 349.66796875 1 l 1
 343.66796875 1 l 1
 337.66796875 1 l 1
 461.596679688 465 l 5
 159.94921875 333.505859375 l 1
 156.66015625 337.599609375 l 1
EndSplineSet
EndChar

StartChar: two
Encoding: 50 50 17
Width: 573
VWidth: -2446
Flags: HW
LayerCount: 2
Fore
SplineSet
263.26953125 509.934570312 m 1
 258.190429688 512 l 1
 301.366210938 595.814453125 l 2
 302.439453125 597.505859375 304.645507812 598.373046875 306.020507812 599.424804688 c 2
 367.791015625 645.302734375 l 2
 369.012695312 646.375976562 371.862304688 645.278320312 372.845703125 644.6484375 c 2
 499.166992188 563.767578125 l 6
 500.338867188 563.22265625 500.244140625 561.017578125 500.74609375 560.159179688 c 6
 589.774414062 456.59375 l 5
 583.564453125 455.180664062 l 5
 577.354492188 453.766601562 l 5
 488.268554688 555.024414062 l 5
 365.612304688 633 l 1
 309.822265625 589 l 1
 268.349609375 507.869140625 l 1
 263.26953125 509.934570312 l 1
601.985351562 443.934570312 m 1
 596.5703125 445.419921875 l 1
 625.924804688 501.497070312 l 1
 638.071289062 557.171875 l 1
 633.2265625 609.618164062 l 1
 611.13671875 655.112304688 l 1
 573.765625 688.330078125 l 1
 525.630859375 706.0078125 l 1
 470.303710938 707.494140625 l 1
 411.333984375 692.122070312 l 1
 355.244140625 661.10546875 l 1
 308.069335938 618.294921875 l 1
 272.645507812 566.931640625 l 1
 251.481445312 509.33984375 l 1
 245.669921875 509.934570312 l 1
 239.859375 510.528320312 l 1
 261.354492188 569.021484375 l 2
 261.53125 569.50390625 261.887695312 570.216796875 262.26171875 570.758789062 c 2
 298.829101562 623.782226562 l 2
 299.1328125 624.221679688 299.6640625 624.848632812 300.155273438 625.293945312 c 2
 348.85546875 669.487304688 l 2
 349.265625 669.859375 349.935546875 670.356445312 350.514648438 670.676757812 c 2
 408.3984375 702.684570312 l 2
 408.880859375 702.951171875 409.630859375 703.26953125 410.245117188 703.4296875 c 2
 471.099609375 719.293945312 l 2
 471.6015625 719.424804688 472.354492188 719.530273438 472.9375 719.514648438 c 2
 530.052734375 717.98046875 l 2
 530.526367188 717.967773438 531.211914062 717.856445312 531.713867188 717.672851562 c 2
 581.403320312 699.423828125 l 2
 581.821289062 699.26953125 582.39453125 698.950195312 582.78125 698.607421875 c 2
 621.346679688 664.327148438 l 2
 621.66796875 664.041992188 622.071289062 663.538085938 622.299804688 663.063476562 c 2
 645.096679688 616.115234375 l 2
 645.28515625 615.728515625 645.475585938 615.092773438 645.52734375 614.5390625 c 2
 650.528320312 560.3984375 l 2
 650.569335938 559.94921875 650.537109375 559.2421875 650.411132812 558.662109375 c 2
 637.872070312 501.1875 l 2
 637.766601562 500.704101562 637.512695312 499.974609375 637.21484375 499.404296875 c 2
 607.400390625 442.44921875 l 1
 601.985351562 443.934570312 l 1
601.985351562 443.934570312 m 1
 605.358398438 439.91015625 l 1
 277.603515625 159 l 1
 514.76953125 36.3349609375 l 1
 513.161132812 30.3349609375 l 1
 511.553710938 24.3349609375 l 1
 260.873046875 147 l 2
 259.662109375 147 258.37890625 147.4375 257.544921875 148.247070312 c 0
 255.377929688 150.352539062 256.110351562 154.465820312 259.108398438 157.024414062 c 2
 598.61328125 447.958984375 l 1
 601.985351562 443.934570312 l 1
589.79296875 462 m 5
 593.165039062 457.975585938 l 5
 69.640625 11.9150390625 l 1
 511.525390625 11.9150390625 l 1
 509.91796875 5.9150390625 l 1
 508.310546875 -0.0849609375 l 1
 52.91015625 -0.0849609375 l 2
 51.69921875 -0.0849609375 50.416015625 0.3525390625 49.58203125 1.162109375 c 0
 47.4150390625 3.267578125 48.146484375 7.3837890625 51.1455078125 9.939453125 c 2
 586.420898438 466.024414062 l 5
 589.79296875 462 l 5
EndSplineSet
EndChar

StartChar: three
Encoding: 51 51 18
Width: 566
VWidth: -2440
Flags: HW
LayerCount: 2
Fore
SplineSet
629.967773438 598.581054688 m 1
 624.46875 594.510742188 l 1
 570.401367188 677 l 1
 472.02734375 707.034179688 l 1
 357.555664062 677 l 1
 259.28515625 594.510742188 l 1
 255.967773438 598.581054688 l 1
 252.649414062 602.651367188 l 1
 352.403320312 686.384765625 l 2
 353.146484375 687.008789062 354.491210938 687.788085938 355.638671875 688.088867188 c 2
 473.615234375 719.04296875 l 2
 474.494140625 719.2734375 475.888671875 719.34375 476.874023438 719.04296875 c 2
 578.26171875 688.088867188 l 2
 579.018554688 687.858398438 580.05078125 687.19921875 580.583984375 686.384765625 c 2
 635.465820312 602.651367188 l 1
 629.967773438 598.581054688 l 1
522.280273438 114.581054688 m 1
 525.516601562 110.444335938 l 1
 413.817382812 18.890625 l 2
 412.857421875 18.103515625 411.482421875 17.4638671875 410.631835938 17.2451171875 c 2
 279.763671875 -16.47265625 l 2
 278.639648438 -16.7626953125 277.296875 -16.6923828125 276.563476562 -16.47265625 c 2
 163.764648438 17.2451171875 l 2
 162.794921875 17.5341796875 161.8671875 18.294921875 161.459960938 18.890625 c 2
 98.826171875 110.444335938 l 1
 104.280273438 114.581054688 l 1
 109.733398438 118.71875 l 1
 171.544921875 28.3671875 l 1
 281.381835938 -4.46484375 l 1
 408.810546875 28.3671875 l 1
 519.04296875 118.71875 l 1
 522.280273438 114.581054688 l 1
629.967773438 598.581054688 m 1
 636.106445312 599.235351562 l 1
 622.450195312 512.94140625 l 2
 622.29296875 511.950195312 621.85546875 510.90234375 621.25390625 510.013671875 c 2
 566.833984375 429.674804688 l 2
 566.209960938 428.751953125 565.344726562 427.90625 564.4375 427.298828125 c 2
 482.466796875 372.423828125 l 2
 481.525390625 371.793945312 480.443359375 371.35546875 479.452148438 371.177734375 c 2
 389.833984375 355.0859375 l 1
 390.302734375 360.981445312 l 1
 390.770507812 366.877929688 l 1
 478.813476562 382.686523438 l 1
 557.904296875 435.633789062 l 1
 610.411132812 513.149414062 l 1
 623.827148438 597.926757812 l 1
 629.967773438 598.581054688 l 1
522.280273438 114.581054688 m 1
 516.282226562 114.58984375 l 1
 540.189453125 203.357421875 l 1
 523.190429688 282.015625 l 1
 469.072265625 336.130859375 l 1
 387.448242188 355.120117188 l 1
 390.302734375 360.981445312 l 1
 393.15625 366.842773438 l 1
 476.048828125 347.557617188 l 2
 476.817382812 347.37890625 477.61328125 346.966796875 478.171875 346.407226562 c 2
 534.000976562 290.583007812 l 2
 534.518554688 290.065429688 534.94921875 289.299804688 535.125 288.486328125 c 2
 552.66015625 207.34375 l 2
 552.823242188 206.591796875 552.799804688 205.625 552.557617188 204.721679688 c 2
 528.278320312 114.573242188 l 1
 522.280273438 114.581054688 l 1
146.622070312 269.1171875 m 5
 151.41796875 274 l 5
 277.799804688 156 l 1
 437.560546875 73 l 1
 495.76171875 126 l 1
 414.197265625 206 l 1
 327.85546875 253.038085938 l 2
 326.505859375 254.852539062 324.727539062 256.49609375 325.322265625 258.713867188 c 2
 358.21875 378.581054688 l 2
 358.958007812 381.243164062 361.440429688 383.62109375 364.067382812 384.336914062 c 2
 522.137695312 427.432617188 l 1
 555.66796875 469 l 1
 461.462890625 569 l 1
 348.094726562 646 l 1
 280.671875 594.040039062 l 1
 277.967773438 598.581054688 l 1
 275.262695312 603.122070312 l 1
 344.862304688 656.609375 l 2
 346.2421875 657.577148438 348.31640625 658.743164062 349.356445312 658.065429688 c 2
 467.69140625 580.913085938 l 2
 468.830078125 580.517578125 470.689453125 579.690429688 471.521484375 578.791992188 c 2
 568.361328125 474.234375 l 2
 570.032226562 473.67578125 569.12890625 470.53125 567.990234375 468.568359375 c 2
 530.85546875 420.791015625 l 2
 529.59375 419.16796875 527.854492188 417.396484375 525.7578125 416.825195312 c 2
 369.015625 374.091796875 l 1
 338.470703125 263 l 1
 423.359375 216.509765625 l 2
 424.364257812 215.958984375 425.133789062 214.224609375 426.022460938 213.303710938 c 2
 508.599609375 127.791992188 l 2
 509.668945312 126.713867188 508.272460938 123.540039062 506.416992188 121.834960938 c 2
 443.140625 63.6689453125 l 2
 441.616210938 62.2880859375 439.237304688 60.4072265625 437.89453125 61.1640625 c 2
 273.083984375 143.908203125 l 2
 272.216796875 144.342773438 270.374023438 144.203125 269.5859375 145.017578125 c 2
 141.826171875 264.234375 l 5
 146.622070312 269.1171875 l 5
EndSplineSet
EndChar

StartChar: four
Encoding: 52 52 19
Width: 594
VWidth: -2447
Flags: HW
LayerCount: 2
Fore
SplineSet
588.254882812 153.765625 m 1
 586.647460938 147.765625 l 1
 102.647460938 147.765625 l 1
 104.254882812 153.765625 l 1
 105.862304688 159.765625 l 1
 589.862304688 159.765625 l 1
 588.254882812 153.765625 l 1
597.528320312 180.166015625 m 1
 595.920898438 174.166015625 l 1
 274.65234375 301 l 5
 276.260742188 307 l 5
 277.868164062 313 l 5
 599.135742188 186.166015625 l 1
 597.528320312 180.166015625 l 1
104.254882812 153.765625 m 1
 100.068359375 157 l 1
 599.440429688 707 l 1
 603.626953125 703.765625 l 1
 607.814453125 700.53125 l 1
 108.442382812 150.53125 l 1
 104.254882812 153.765625 l 1
278.463867188 310.299804688 m 5
 274.276367188 313.534179688 l 5
 549.45703125 615.700195312 l 1
 553.643554688 612.465820312 l 1
 557.831054688 609.231445312 l 1
 282.651367188 307.065429688 l 5
 278.463867188 310.299804688 l 5
414.991210938 -0.234375 m 1
 408.991210938 -0.234375 l 1
 597.626953125 703.765625 l 1
 603.626953125 703.765625 l 1
 609.626953125 703.765625 l 1
 420.991210938 -0.234375 l 1
 414.991210938 -0.234375 l 1
388.473632812 -0.671875 m 1
 382.473632812 -0.671875 l 1
 546.5859375 611.8046875 l 1
 552.5859375 611.8046875 l 1
 558.5859375 611.8046875 l 1
 394.473632812 -0.671875 l 1
 388.473632812 -0.671875 l 1
EndSplineSet
EndChar

StartChar: five
Encoding: 53 53 20
Width: 564
VWidth: -2438
Flags: HW
LayerCount: 2
Fore
SplineSet
553.595703125 182.48046875 m 1
 558.056640625 179.5625 l 1
 453.24609375 52.439453125 l 2
 452.30859375 51.302734375 450.919921875 50.3408203125 449.768554688 49.880859375 c 2
 301.046875 -9.544921875 l 2
 299.716796875 -10.076171875 298.208984375 -10.1689453125 297.177734375 -9.921875 c 2
 163.80859375 22.0302734375 l 2
 162.615234375 22.31640625 161.58984375 23.1298828125 161.087890625 23.9853515625 c 2
 96.2001953125 134.58203125 l 1
 101.805664062 138.48046875 l 1
 107.412109375 142.37890625 l 1
 171.41015625 33.298828125 l 1
 301.120117188 2.2236328125 l 1
 445.76171875 60.0185546875 l 1
 549.134765625 185.3984375 l 1
 553.595703125 182.48046875 l 1
553.595703125 182.48046875 m 1
 547.450195312 181.79296875 l 1
 568.326171875 318.515625 l 1
 505.514648438 420.095703125 l 1
 381.993164062 451.729492188 l 1
 240.42578125 401.297851562 l 1
 239.723632812 406.880859375 l 1
 239.021484375 412.463867188 l 1
 382.532226562 463.587890625 l 2
 383.5859375 463.962890625 385.072265625 464.127929688 386.196289062 463.83984375 c 2
 513.158203125 431.325195312 l 2
 514.090820312 431.0859375 515.181640625 430.39453125 515.752929688 429.469726562 c 2
 580.314453125 325.060546875 l 2
 580.7890625 324.293945312 581.08984375 322.995117188 580.903320312 321.768554688 c 2
 559.741210938 183.16796875 l 1
 553.595703125 182.48046875 l 1
613.754882812 556.280273438 m 5
 612.147460938 550.280273438 l 5
 352.961914062 678.280273438 l 1
 245.486328125 406.159179688 l 1
 239.723632812 406.880859375 l 1
 233.9609375 407.602539062 l 1
 343.490234375 685.001953125 l 2
 344.515625 687.63671875 347.698242188 690.280273438 350.860351562 690.280273438 c 2
 615.362304688 562.280273438 l 5
 613.754882812 556.280273438 l 5
654.780273438 712 m 1
 653.171875 706 l 1
 334.208007812 706 l 1
 206.892578125 384 l 1
 201.129882812 384.721679688 l 1
 195.3671875 385.443359375 l 1
 324.737304688 712.721679688 l 2
 325.77734375 715.354492188 328.9453125 718 332.107421875 718 c 2
 656.387695312 718 l 1
 654.780273438 712 l 1
132.517578125 278.66796875 m 1
 137.830078125 283 l 1
 285.459960938 151 l 1
 445.1875 94 l 1
 490.522460938 132.700195312 l 1
 516.962890625 179 l 1
 398.9921875 306 l 1
 273.818359375 379.698242188 l 2
 272.546875 380.446289062 270.525390625 381.010742188 269.228515625 380.659179688 c 2
 200.212890625 374 l 1
 199.205078125 381.640625 l 1
 204 386.5234375 l 1
 277.036132812 392 l 1
 402.23046875 318.306640625 l 2
 403.676757812 318.024414062 405.952148438 318.4921875 406.83984375 317.327148438 c 2
 528.848632812 186.7109375 l 2
 529.83203125 185.658203125 530.65234375 183.46484375 529.84765625 181.263671875 c 2
 501.263671875 129.09765625 l 2
 500.592773438 127.873046875 499.353515625 126.379882812 498.076171875 125.086914062 c 2
 448.393554688 83.40625 l 2
 447.15625 82.55859375 445.0390625 81.3359375 444.157226562 82 c 2
 279.833984375 139 l 2
 278.8984375 139.28125 276.587890625 139.33984375 276.12890625 140.66796875 c 2
 127.205078125 274.3359375 l 1
 132.517578125 278.66796875 l 1
EndSplineSet
EndChar

StartChar: six
Encoding: 54 54 21
Width: 574
VWidth: -2441
Flags: HW
LayerCount: 2
Fore
SplineSet
560.854492188 191.221679688 m 1
 566.056640625 189.35546875 l 1
 517.025390625 106.98046875 l 2
 516.588867188 106.247070312 515.928710938 105.474609375 515.349609375 104.958007812 c 2
 443.98046875 41.1875 l 2
 443.338867188 40.6142578125 442.497070312 40.0771484375 441.833984375 39.7705078125 c 2
 357.298828125 0.6650390625 l 2
 356.520507812 0.3046875 355.592773438 0.064453125 354.900390625 -0.0009765625 c 2
 266.3828125 -8.392578125 l 2
 265.584960938 -8.4677734375 264.716796875 -8.3603515625 264.112304688 -8.1591796875 c 2
 187.999023438 17.1494140625 l 2
 187.321289062 17.375 186.657226562 17.8125 186.247070312 18.2421875 c 2
 135.602539062 71.2353515625 l 2
 135.146484375 71.7119140625 134.780273438 72.3994140625 134.616210938 72.9736328125 c 2
 113.666015625 146.231445312 l 2
 113.47265625 146.907226562 113.446289062 147.765625 113.547851562 148.438476562 c 2
 126.498046875 234.521484375 l 1
 132.64453125 235.221679688 l 1
 138.791015625 235.921875 l 1
 126.017578125 151.012695312 l 1
 146.3828125 79.796875 l 1
 195.616210938 28.28125 l 1
 269.641601562 3.6669921875 l 1
 355.731445312 11.828125 l 1
 437.91015625 49.84375 l 1
 507.290039062 111.8359375 l 1
 548.830078125 175.087890625 l 1
 560.854492188 191.221679688 l 1
560.854492188 191.221679688 m 1
 554.764648438 190.841796875 l 1
 572.370117188 276.966796875 l 1
 556.151367188 350.825195312 l 1
 510.05859375 406.006835938 l 1
 437.740234375 434.879882812 l 1
 351.639648438 430.762695312 l 1
 267.896484375 395.874023438 l 1
 195.715820312 335.831054688 l 1
 143.583984375 255.1015625 l 1
 138.5390625 257.221679688 l 1
 133.494140625 259.342773438 l 1
 186.342773438 341.181640625 l 2
 186.754882812 341.818359375 187.419921875 342.590820312 188.100585938 343.157226562 c 2
 262.338867188 404.911132812 l 2
 262.91796875 405.392578125 263.763671875 405.92578125 264.533203125 406.247070312 c 2
 350.663085938 442.130859375 l 2
 351.357421875 442.419921875 352.286132812 442.654296875 353.071289062 442.69140625 c 2
 441.5859375 446.923828125 l 2
 442.28515625 446.95703125 443.151367188 446.840820312 443.817382812 446.575195312 c 2
 518.162109375 416.892578125 l 2
 518.741210938 416.661132812 519.400390625 416.213867188 519.834960938 415.694335938 c 2
 567.2421875 358.940429688 l 2
 567.611328125 358.497070312 567.969726562 357.802734375 568.119140625 357.124023438 c 2
 584.799804688 281.16015625 l 2
 584.934570312 280.547851562 584.950195312 279.684570312 584.791992188 278.911132812 c 2
 566.944335938 191.602539062 l 1
 560.854492188 191.221679688 l 1
132.64453125 235.221679688 m 1
 126.64453125 235.221679688 l 1
 132.5390625 257.221679688 l 2
 132.6171875 257.509765625 132.755859375 257.900390625 132.845703125 258.116210938 c 2
 212.2890625 447.866210938 l 2
 212.53515625 448.454101562 212.95703125 449.154296875 213.2890625 449.595703125 c 2
 319.069335938 589.845703125 l 2
 319.635742188 590.595703125 320.42578125 591.329101562 321.127929688 591.8125 c 2
 453.244140625 682.5625 l 2
 454.04296875 683.110351562 455.01171875 683.541992188 455.809570312 683.75 c 2
 614.262695312 725 l 1
 614.33203125 719.221679688 l 1
 614.401367188 713.444335938 l 1
 457.293945312 672.544921875 l 1
 327.591796875 583.452148438 l 1
 223.295898438 445.171875 l 1
 144.418945312 256.772460938 l 1
 138.64453125 235.221679688 l 1
 132.64453125 235.221679688 l 1
196.140625 340.822265625 m 1
 190.692382812 342.244140625 l 1
 283.030273438 522.643554688 l 2
 283.537109375 523.634765625 284.305664062 524.578125 285.174804688 525.3046875 c 2
 432.5859375 648.504882812 l 2
 433.46484375 649.239257812 434.516601562 649.80859375 435.516601562 650.114257812 c 2
 608.065429688 702.9140625 l 1
 608.4375 697.221679688 l 1
 608.809570312 691.530273438 l 1
 437.846679688 639.21484375 l 1
 293.150390625 518.283203125 l 1
 201.588867188 339.400390625 l 1
 196.140625 340.822265625 l 1
215.782226562 230.421875 m 5
 312.852539062 145 l 5
 444.560546875 73 l 5
 496.76171875 126 l 5
 514.99609375 153 l 5
 400.168945312 288 l 5
 258.069335938 366 l 5
 177.831054688 279.001953125 l 5
 215.782226562 230.421875 l 5
209.213867188 227.991210938 m 5
 203.161132812 227.77734375 l 5
 163.567382812 278.208007812 l 6
 163.229492188 279.048828125 164.299804688 280.405273438 165.110351562 281.280273438 c 6
 250.853515625 373.944335938 l 6
 251.833984375 375.154296875 254.017578125 377.420898438 255.282226562 376.861328125 c 6
 403.020507812 300.33984375 l 6
 404.259765625 300.017578125 406.990234375 300.622070312 407.930664062 299.416992188 c 6
 526.525390625 161.014648438 l 6
 527.575195312 160.069335938 528.58984375 158.188476562 527.767578125 156.455078125 c 6
 508.306640625 123.859375 l 6
 507.419921875 122.374023438 506.638671875 120.637695312 505.235351562 119.2421875 c 6
 448.196289062 62.5439453125 l 6
 446.9296875 61.474609375 444.55859375 60.263671875 443.266601562 60.876953125 c 6
 306.591796875 133.149414062 l 6
 305.65234375 133.583984375 303.783203125 133.903320312 303.016601562 135.078125 c 6
 203.709960938 223.928710938 l 5
 209.213867188 227.991210938 l 5
EndSplineSet
EndChar

StartChar: seven
Encoding: 55 55 22
Width: 596
VWidth: -2448
Flags: HW
LayerCount: 2
Fore
SplineSet
605.795898438 309 m 1
 604.188476562 303 l 1
 208.188476562 303 l 1
 209.795898438 309 l 1
 211.404296875 315 l 1
 607.404296875 315 l 1
 605.795898438 309 l 1
612.870117188 335.400390625 m 1
 611.262695312 329.400390625 l 1
 252.5078125 468.400390625 l 5
 254.115234375 474.400390625 l 5
 255.72265625 480.400390625 l 5
 614.477539062 341.400390625 l 1
 612.870117188 335.400390625 l 1
215.267578125 1 m 1
 210.415039062 3.4052734375 l 1
 702.73046875 705 l 1
 227.904296875 705 l 1
 229.51171875 711 l 1
 231.119140625 717 l 1
 715.119140625 717 l 2
 715.439453125 717 716.443359375 716.880859375 716.997070312 716.668945312 c 0
 719.952148438 715.538085938 720.592773438 711.754882812 718.364257812 708.594726562 c 2
 220.120117188 -1.4052734375 l 1
 215.267578125 1 l 1
218.2578125 45 m 1
 213.405273438 47.4052734375 l 1
 563.639648438 551 l 1
 229.629882812 678.599609375 l 1
 231.237304688 684.599609375 l 1
 232.845703125 690.599609375 l 1
 576.029296875 563 l 2
 576.349609375 563 577.352539062 562.880859375 577.90625 562.668945312 c 0
 580.862304688 561.538085938 581.502929688 557.754882812 579.274414062 554.594726562 c 2
 223.110351562 42.5947265625 l 1
 218.2578125 45 l 1
EndSplineSet
EndChar

StartChar: eight
Encoding: 56 56 23
Width: 591
VWidth: -2429
Flags: HW
LayerCount: 2
Fore
SplineSet
140.805664062 259.750976562 m 1
 134.537109375 167.202148438 l 1
 162.083007812 80.6728515625 l 1
 221.477539062 22.546875 l 1
 307.33984375 1.2880859375 l 1
 404.594726562 22.546875 l 1
 495.139648438 80.6728515625 l 1
 569.056640625 167.202148438 l 1
 612.383789062 259.750976562 l 1
 605.581054688 306.862304688 l 1
 562.538085938 341.186523438 l 1
 406.033203125 369.616210938 l 1
 234.293945312 341.186523438 l 1
 172.857421875 306.862304688 l 1
 140.805664062 259.750976562 l 1
129.842773438 262.716796875 m 2
 164.153320312 313.1484375 l 2
 164.9140625 314.266601562 166.1640625 315.33203125 167.135742188 315.875 c 2
 231.616210938 351.900390625 l 2
 232.41796875 352.348632812 233.377929688 352.673828125 234.127929688 352.797851562 c 2
 408.224609375 381.6171875 l 2
 408.923828125 381.733398438 409.733398438 381.715820312 410.2734375 381.6171875 c 2
 568.926757812 352.797851562 l 2
 569.693359375 352.659179688 570.455078125 352.30078125 570.956054688 351.900390625 c 2
 616.131835938 315.875 l 2
 616.965820312 315.2109375 617.520507812 314.061523438 617.653320312 313.1484375 c 2
 624.936523438 262.716796875 l 2
 625.088867188 261.663085938 624.796875 260.268554688 624.409179688 259.391601562 c 2
 579.84765625 164.0625 l 2
 579.540039062 163.368164062 579.024414062 162.586914062 578.579101562 162.065429688 c 2
 503.012695312 73.60546875 l 2
 502.456054688 72.953125 501.685546875 72.302734375 501.055664062 71.8984375 c 2
 408.15234375 12.2578125 l 2
 407.33203125 11.73046875 406.346679688 11.33203125 405.538085938 11.1552734375 c 2
 305.481445312 -10.7158203125 l 2
 304.537109375 -10.9228515625 303.540039062 -10.9072265625 302.767578125 -10.7158203125 c 2
 214.431640625 11.1552734375 l 2
 213.64453125 11.349609375 212.896484375 11.7783203125 212.40625 12.2578125 c 2
 151.463867188 71.8984375 l 2
 150.991210938 72.361328125 150.604492188 73.0361328125 150.422851562 73.60546875 c 2
 122.262695312 162.065429688 l 2
 122.068359375 162.673828125 122.008789062 163.467773438 122.063476562 164.0625 c 2
 128.58984375 259.391601562 l 2
 128.693359375 260.513671875 129.282226562 261.892578125 129.842773438 262.716796875 c 2
222.118164062 481.106445312 m 1
 228.259765625 438.579101562 l 1
 267.1953125 407.529296875 l 1
 409.27734375 381.721679688 l 1
 565.189453125 407.529296875 l 1
 620.764648438 438.579101562 l 1
 649.696289062 481.106445312 l 1
 653.712890625 558.806640625 l 1
 628.73046875 637.291992188 l 1
 574.875 690 l 1
 497.04296875 709.26953125 l 1
 408.884765625 690 l 1
 326.783203125 637.291992188 l 1
 259.740234375 558.806640625 l 1
 222.118164062 481.106445312 l 1
210.094726562 481.466796875 m 2
 248.950195312 561.946289062 l 2
 249.2578125 562.640625 249.7734375 563.421875 250.21875 563.943359375 c 2
 318.91015625 644.359375 l 2
 319.466796875 645.010742188 320.237304688 645.662109375 320.8671875 646.06640625 c 2
 405.327148438 700.2890625 l 2
 406.149414062 700.81640625 407.133789062 701.21484375 407.943359375 701.391601562 c 2
 498.903320312 721.2734375 l 2
 499.846679688 721.479492188 500.844726562 721.46484375 501.6171875 721.2734375 c 2
 581.922851562 701.391601562 l 2
 582.708007812 701.197265625 583.45703125 700.767578125 583.946289062 700.2890625 c 2
 639.349609375 646.06640625 l 2
 639.823242188 645.603515625 640.2109375 644.928710938 640.390625 644.359375 c 2
 665.98828125 563.943359375 l 2
 666.182617188 563.334960938 666.2421875 562.541015625 666.1875 561.946289062 c 2
 661.9140625 481.466796875 l 2
 661.809570312 480.34375 661.219726562 478.96484375 660.659179688 478.141601562 c 2
 629.46875 432.293945312 l 2
 628.708007812 431.174804688 627.45703125 430.109375 626.486328125 429.567382812 c 2
 567.866210938 396.81640625 l 2
 567.064453125 396.368164062 566.106445312 396.04296875 565.35546875 395.91796875 c 2
 407.0859375 369.719726562 l 2
 406.38671875 369.604492188 405.577148438 369.622070312 405.038085938 369.719726562 c 2
 260.807617188 395.91796875 l 2
 260.041015625 396.057617188 259.279296875 396.416015625 258.776367188 396.81640625 c 2
 217.708984375 429.567382812 l 2
 216.875 430.231445312 216.319335938 431.379882812 216.1875 432.293945312 c 2
 209.565429688 478.141601562 l 2
 209.4140625 479.1953125 209.705078125 480.588867188 210.094726562 481.466796875 c 2
160.55859375 258.163085938 m 1
 278.211914062 165 l 1
 463.435546875 80 l 1
 528.11328125 140.0234375 l 1
 551.890625 175 l 1
 425.647460938 245 l 1
 245.547851562 323 l 5
 182.168945312 288 l 1
 160.55859375 258.163085938 l 1
154.26171875 255.245117188 m 1
 148.059570312 254 l 1
 169.997070312 289.697265625 l 2
 170.666992188 291.731445312 171.891601562 294.659179688 174.4921875 296.087890625 c 2
 243.704101562 334.103515625 l 6
 244.727539062 334.548828125 246.10546875 335.439453125 246.870117188 334.956054688 c 6
 429.674804688 257.0234375 l 2
 430.141601562 256.82421875 431.219726562 256.916992188 431.73046875 256.68359375 c 2
 563.1796875 184.654296875 l 2
 565.717773438 184.900390625 566.609375 181.034179688 565.342773438 178.060546875 c 2
 538.587890625 136.092773438 l 2
 537.896484375 135.0078125 536.932617188 133.658203125 535.799804688 132.620117188 c 2
 466.975585938 69.52734375 l 2
 465.809570312 68.6640625 463.494140625 67.2255859375 462.318359375 67.9384765625 c 2
 272.227539062 153.071289062 l 2
 271.224609375 153.520507812 269.471679688 153.852539062 268.551757812 154.916992188 c 2
 148.817382812 251.09375 l 1
 154.26171875 255.245117188 l 1
289.462890625 569 m 1
 414.491210938 487 l 1
 564.682617188 428 l 1
 607.440429688 450.432617188 l 1
 609.276367188 473.672851562 l 1
 491.266601562 572 l 1
 350.272460938 628 l 1
 307.947265625 591.1015625 l 1
 289.462890625 569 l 1
281.678710938 565.844726562 m 1
 276.2265625 567.258789062 l 1
 298.01953125 595.842773438 l 2
 298.763671875 596.819335938 299.754882812 598.078125 300.84375 599.0234375 c 2
 349.979492188 641.669921875 l 2
 351.334960938 642.598632812 353.204101562 643.587890625 354.421875 643.072265625 c 2
 497.236328125 583.912109375 l 2
 498.168945312 583.525390625 499.817382812 582.98828125 500.802734375 582.158203125 c 2
 620.883789062 481 l 2
 621.70703125 480.555664062 621.725585938 479.290039062 621.71484375 478.256835938 c 2
 619.817382812 448.80078125 l 2
 619.655273438 446.27734375 617.6953125 443.39453125 614.934570312 441.971679688 c 2
 565.775390625 416.630859375 l 2
 564.801757812 416.17578125 563.465820312 415.559570312 562.677734375 415.962890625 c 2
 409.58203125 475.041992188 l 2
 408.923828125 475.295898438 407.66796875 475.202148438 407.157226562 475.715820312 c 2
 277.485351562 560.521484375 l 1
 281.678710938 565.844726562 l 1
EndSplineSet
EndChar

StartChar: nine
Encoding: 57 57 24
Width: 574
VWidth: -2441
Flags: HW
LayerCount: 2
Fore
SplineSet
290.171875 510.08203125 m 5
 387.2421875 424.66015625 l 5
 518.950195312 352.66015625 l 5
 571.151367188 405.66015625 l 5
 589.385742188 432.66015625 l 5
 474.559570312 567.66015625 l 5
 332.458984375 645.66015625 l 5
 252.220703125 558.662109375 l 5
 290.171875 510.08203125 l 5
283.603515625 507.651367188 m 5
 277.55078125 507.4375 l 5
 237.95703125 557.868164062 l 6
 237.620117188 558.708984375 238.690429688 560.065429688 239.5 560.940429688 c 6
 325.243164062 653.604492188 l 6
 326.223632812 654.814453125 328.407226562 657.081054688 329.671875 656.521484375 c 6
 477.41015625 580 l 6
 478.649414062 579.677734375 481.379882812 580.282226562 482.3203125 579.077148438 c 6
 600.915039062 440.674804688 l 6
 601.96484375 439.729492188 602.979492188 437.848632812 602.157226562 436.115234375 c 6
 582.696289062 403.51953125 l 6
 581.809570312 402.034179688 581.029296875 400.297851562 579.625 398.90234375 c 6
 522.5859375 342.204101562 l 6
 521.3203125 341.134765625 518.948242188 339.923828125 517.657226562 340.537109375 c 6
 380.981445312 412.809570312 l 6
 380.041992188 413.244140625 378.173828125 413.563476562 377.40625 414.73828125 c 6
 278.099609375 503.588867188 l 5
 283.603515625 507.651367188 l 5
210.380859375 525.385742188 m 1
 205.178710938 527.251953125 l 1
 254.209960938 609.626953125 l 2
 254.647460938 610.360351562 255.307617188 611.1328125 255.885742188 611.649414062 c 2
 327.255859375 675.419921875 l 2
 327.897460938 675.993164062 328.73828125 676.530273438 329.401367188 676.836914062 c 2
 413.936523438 715.942382812 l 2
 414.715820312 716.302734375 415.643554688 716.54296875 416.3359375 716.608398438 c 2
 504.852539062 725 l 2
 505.651367188 725.075195312 506.51953125 724.967773438 507.123046875 724.766601562 c 2
 583.236328125 699.458007812 l 2
 583.9140625 699.232421875 584.578125 698.794921875 584.98828125 698.365234375 c 2
 635.633789062 645.372070312 l 2
 636.088867188 644.895507812 636.456054688 644.208007812 636.620117188 643.633789062 c 2
 657.5703125 570.375976562 l 2
 657.762695312 569.700195312 657.790039062 568.841796875 657.688476562 568.168945312 c 2
 644.73828125 482.0859375 l 1
 638.591796875 481.385742188 l 1
 632.444335938 480.685546875 l 1
 645.21875 565.594726562 l 1
 624.853515625 636.810546875 l 1
 575.620117188 688.326171875 l 1
 501.594726562 712.940429688 l 1
 415.50390625 704.779296875 l 1
 333.326171875 666.763671875 l 1
 263.946289062 604.771484375 l 1
 222.40625 541.51953125 l 1
 210.380859375 525.385742188 l 1
210.380859375 525.385742188 m 1
 216.471679688 525.765625 l 1
 198.866210938 439.640625 l 1
 215.083984375 365.782226562 l 1
 261.177734375 310.600585938 l 1
 333.495117188 281.727539062 l 1
 419.596679688 285.844726562 l 1
 503.33984375 320.733398438 l 1
 575.51953125 380.776367188 l 1
 627.65234375 461.505859375 l 1
 632.696289062 459.385742188 l 1
 637.741210938 457.264648438 l 1
 584.892578125 375.42578125 l 2
 584.481445312 374.7890625 583.81640625 374.016601562 583.134765625 373.450195312 c 2
 508.897460938 311.696289062 l 2
 508.318359375 311.21484375 507.47265625 310.681640625 506.703125 310.360351562 c 2
 420.573242188 274.4765625 l 2
 419.87890625 274.1875 418.94921875 273.953125 418.165039062 273.916015625 c 2
 329.650390625 269.68359375 l 2
 328.951171875 269.650390625 328.084960938 269.766601562 327.41796875 270.032226562 c 2
 253.07421875 299.71484375 l 2
 252.494140625 299.946289062 251.8359375 300.393554688 251.401367188 300.913085938 c 2
 203.994140625 357.666992188 l 2
 203.624023438 358.110351562 203.266601562 358.8046875 203.1171875 359.483398438 c 2
 186.436523438 435.447265625 l 2
 186.301757812 436.059570312 186.286132812 436.922851562 186.444335938 437.696289062 c 2
 204.291992188 525.004882812 l 1
 210.380859375 525.385742188 l 1
638.591796875 481.385742188 m 1
 644.591796875 481.385742188 l 1
 638.696289062 459.385742188 l 2
 638.619140625 459.09765625 638.48046875 458.70703125 638.390625 458.491210938 c 2
 558.947265625 268.741210938 l 2
 558.701171875 268.153320312 558.279296875 267.453125 557.947265625 267.01171875 c 2
 452.166992188 126.76171875 l 2
 451.600585938 126.01171875 450.810546875 125.278320312 450.107421875 124.794921875 c 2
 317.991210938 34.044921875 l 2
 317.193359375 33.4970703125 316.223632812 33.0654296875 315.42578125 32.857421875 c 2
 156.97265625 -8.392578125 l 1
 156.904296875 -2.6142578125 l 1
 156.834960938 3.1630859375 l 1
 313.942382812 44.0625 l 1
 443.64453125 133.155273438 l 1
 547.939453125 271.435546875 l 1
 626.817382812 459.834960938 l 1
 632.591796875 481.385742188 l 1
 638.591796875 481.385742188 l 1
575.095703125 375.78515625 m 1
 580.543945312 374.36328125 l 1
 488.206054688 193.963867188 l 2
 487.69921875 192.97265625 486.930664062 192.029296875 486.061523438 191.302734375 c 2
 338.650390625 68.1025390625 l 2
 337.770507812 67.3681640625 336.71875 66.798828125 335.71875 66.4931640625 c 2
 163.170898438 13.693359375 l 1
 162.798828125 19.3857421875 l 1
 162.426757812 25.0771484375 l 1
 333.389648438 77.392578125 l 1
 478.0859375 198.32421875 l 1
 569.647460938 377.20703125 l 1
 575.095703125 375.78515625 l 1
EndSplineSet
EndChar

StartChar: colon
Encoding: 58 58 25
Width: 244
VWidth: -2581
Flags: HW
LayerCount: 2
Fore
SplineSet
136.502929688 92 m 1
 143.174804688 82.8857421875 l 1
 154.731445312 92 l 1
 148.059570312 101.114257812 l 1
 136.502929688 92 l 1
124.911132812 96.2421875 m 2
 147.2265625 113.841796875 l 2
 150.483398438 116.41015625 154.379882812 115.663085938 155.711914062 113.841796875 c 2
 168.595703125 96.2421875 l 2
 170.475585938 93.6748046875 168.630859375 89.578125 166.322265625 87.7578125 c 2
 144.006835938 70.158203125 l 2
 140.750976562 67.58984375 136.854492188 68.3369140625 135.521484375 70.158203125 c 2
 122.637695312 87.7578125 l 2
 120.7578125 90.3251953125 122.602539062 94.421875 124.911132812 96.2421875 c 2
106.583007812 92 m 1
 135.158203125 52.9658203125 l 1
 184.651367188 92 l 1
 156.076171875 131.034179688 l 1
 106.583007812 92 l 1
94.9912109375 96.2421875 m 2
 155.243164062 143.76171875 l 2
 158.5 146.330078125 162.396484375 145.583007812 163.728515625 143.76171875 c 2
 198.515625 96.2421875 l 2
 200.395507812 93.6748046875 198.55078125 89.578125 196.2421875 87.7578125 c 2
 135.990234375 40.23828125 l 2
 132.734375 37.669921875 128.837890625 38.4169921875 127.504882812 40.23828125 c 2
 92.7177734375 87.7578125 l 2
 90.837890625 90.3251953125 92.6826171875 94.421875 94.9912109375 96.2421875 c 2
207.241210938 356 m 1
 213.9140625 346.885742188 l 1
 225.469726562 356 l 1
 218.797851562 365.114257812 l 1
 207.241210938 356 l 1
195.649414062 360.2421875 m 2
 217.96484375 377.841796875 l 2
 221.221679688 380.41015625 225.118164062 379.663085938 226.450195312 377.841796875 c 2
 239.333984375 360.2421875 l 2
 241.21484375 357.674804688 239.370117188 353.578125 237.060546875 351.7578125 c 2
 214.745117188 334.158203125 l 2
 211.490234375 331.58984375 207.59375 332.336914062 206.259765625 334.158203125 c 2
 193.375976562 351.7578125 l 2
 191.497070312 354.325195312 193.341796875 358.421875 195.649414062 360.2421875 c 2
177.321289062 356 m 1
 205.896484375 316.965820312 l 1
 255.389648438 356 l 1
 226.814453125 395.034179688 l 1
 177.321289062 356 l 1
165.729492188 360.2421875 m 2
 225.982421875 407.76171875 l 2
 229.23828125 410.330078125 233.134765625 409.583007812 234.467773438 407.76171875 c 2
 269.25390625 360.2421875 l 2
 271.134765625 357.674804688 269.290039062 353.578125 266.98046875 351.7578125 c 2
 206.728515625 304.23828125 l 2
 203.47265625 301.669921875 199.576171875 302.416992188 198.243164062 304.23828125 c 2
 163.456054688 351.7578125 l 2
 161.577148438 354.325195312 163.421875 358.421875 165.729492188 360.2421875 c 2
EndSplineSet
EndChar

StartChar: semicolon
Encoding: 59 59 26
Width: 222
VWidth: -2534
Flags: HW
LayerCount: 2
Fore
SplineSet
115.684570312 66 m 1
 117.291992188 72 l 1
 159.092773438 72 l 2
 163.09375 72 164.478515625 68.02734375 163.115234375 64.95703125 c 2
 129.872070312 -9.8427734375 l 2
 129.49609375 -10.6884765625 128.877929688 -11.5732421875 128.260742188 -12.21484375 c 2
 73.333984375 -69.4150390625 l 1
 69.3154296875 -66 l 1
 65.296875 -62.5849609375 l 1
 119.1875 -6.4638671875 l 1
 148.7265625 60 l 1
 114.077148438 60 l 1
 115.684570312 66 l 1
97.1689453125 39.6005859375 m 1
 98.7763671875 45.6005859375 l 1
 123.857421875 45.6005859375 l 2
 127.858398438 45.6005859375 129.243164062 41.6279296875 127.87890625 38.5576171875 c 2
 107.934570312 -6.3232421875 l 2
 107.55859375 -7.1689453125 106.939453125 -8.0537109375 106.322265625 -8.6953125 c 2
 73.365234375 -43.0146484375 l 1
 69.34765625 -39.599609375 l 1
 65.330078125 -36.1845703125 l 1
 97.25 -2.9443359375 l 1
 113.490234375 33.6005859375 l 1
 95.560546875 33.6005859375 l 1
 97.1689453125 39.6005859375 l 1
201.819335938 364 m 5
 208.4921875 354.885742188 l 5
 220.047851562 364 l 5
 213.375976562 373.115234375 l 5
 201.819335938 364 l 5
190.227539062 368.2421875 m 6
 212.543945312 385.842773438 l 6
 215.799804688 388.411132812 219.696289062 387.6640625 221.030273438 385.842773438 c 6
 233.913085938 368.2421875 l 6
 235.676757812 365.83203125 234.333984375 361.8828125 231.638671875 359.7578125 c 6
 209.323242188 342.158203125 l 6
 206.068359375 339.58984375 202.171875 340.336914062 200.838867188 342.158203125 c 6
 187.955078125 359.7578125 l 6
 186.19140625 362.16796875 187.533203125 366.1171875 190.227539062 368.2421875 c 6
176.453125 364 m 4
 171.3515625 344.958984375 182.651367188 329.51953125 201.6953125 329.51953125 c 4
 220.736328125 329.51953125 240.311523438 344.956054688 245.4140625 364 c 4
 250.516601562 383.041015625 239.215820312 398.481445312 220.172851562 398.481445312 c 4
 201.131835938 398.481445312 181.556640625 383.043945312 176.453125 364 c 4
164.453125 364 m 4
 171.331054688 389.668945312 197.716796875 410.481445312 223.388671875 410.481445312 c 4
 249.05859375 410.481445312 264.29296875 389.671875 257.4140625 364 c 4
 250.536132812 338.331054688 224.151367188 317.51953125 198.479492188 317.51953125 c 4
 172.810546875 317.51953125 157.57421875 338.328125 164.453125 364 c 4
EndSplineSet
EndChar

StartChar: less
Encoding: 60 60 27
Width: 510
VWidth: -2618
Flags: HW
LayerCount: 2
Fore
SplineSet
550.704101562 464.390625 m 1
 551.440429688 458.819335938 l 1
 201.490234375 332.390625 l 1
 483.6875 205.961914062 l 1
 479.965820312 200.390625 l 1
 476.245117188 194.819335938 l 1
 181.614257812 326.819335938 l 2
 180.610351562 327.26953125 179.548828125 328.384765625 179.244140625 329.732421875 c 0
 178.543945312 332.82421875 181.053710938 336.680664062 184.599609375 337.961914062 c 2
 549.96875 469.961914062 l 1
 550.704101562 464.390625 l 1
537.423828125 435.352539062 m 1
 538.159179688 429.78125 l 1
 418.696289062 387 l 1
 485.967773438 235 l 1
 482.247070312 229.428710938 l 1
 478.525390625 223.857421875 l 1
 398.819335938 381.428710938 l 2
 397.817382812 381.87890625 396.754882812 382.994140625 396.450195312 384.341796875 c 0
 395.75 387.43359375 398.259765625 391.290039062 401.805664062 392.571289062 c 2
 536.688476562 440.923828125 l 1
 537.423828125 435.352539062 l 1
EndSplineSet
EndChar

StartChar: equal
Encoding: 61 61 28
Width: 339
VWidth: -2709
Flags: HW
LayerCount: 2
Fore
SplineSet
140.700195312 234 m 5
 142.307617188 240 l 5
 318.307617188 240 l 5
 316.700195312 234 l 5
 315.092773438 228 l 5
 139.092773438 228 l 5
 140.700195312 234 l 5
133.625976562 207.599609375 m 5
 135.233398438 213.599609375 l 5
 311.233398438 213.599609375 l 5
 309.625976562 207.599609375 l 5
 308.018554688 201.599609375 l 5
 132.018554688 201.599609375 l 5
 133.625976562 207.599609375 l 5
173.92578125 358 m 1
 175.533203125 364 l 1
 351.533203125 364 l 1
 349.92578125 358 l 1
 348.318359375 352 l 1
 172.318359375 352 l 1
 173.92578125 358 l 1
166.8515625 331.599609375 m 1
 168.459960938 337.599609375 l 1
 344.459960938 337.599609375 l 1
 342.8515625 331.599609375 l 1
 341.244140625 325.599609375 l 1
 165.244140625 325.599609375 l 1
 166.8515625 331.599609375 l 1
EndSplineSet
EndChar

StartChar: question
Encoding: 63 63 29
Width: 443
VWidth: -2419
Flags: HW
LayerCount: 2
Fore
SplineSet
558.131835938 614.071289062 m 1
 552.6328125 610 l 1
 498.56640625 692.48828125 l 1
 400.19140625 722.524414062 l 1
 285.720703125 692.48828125 l 1
 187.44921875 610 l 1
 184.131835938 614.071289062 l 1
 180.814453125 618.141601562 l 1
 280.568359375 701.874023438 l 2
 281.311523438 702.498046875 282.65625 703.276367188 283.803710938 703.578125 c 2
 401.779296875 734.533203125 l 2
 402.658203125 734.763671875 404.053710938 734.833984375 405.0390625 734.533203125 c 2
 506.427734375 703.578125 l 2
 507.182617188 703.346679688 508.21484375 702.6875 508.749023438 701.874023438 c 2
 563.630859375 618.141601562 l 1
 558.131835938 614.071289062 l 1
558.131835938 614.071289062 m 1
 564.341796875 615.514648438 l 1
 562.306640625 513.721679688 l 2
 562.287109375 512.734375 561.979492188 511.66015625 561.465820312 510.706054688 c 2
 506.869140625 409.48828125 l 2
 506.33984375 408.505859375 505.551757812 407.577148438 504.671875 406.869140625 c 2
 411.306640625 331.811523438 l 2
 410.401367188 331.083007812 409.331054688 330.534179688 408.307617188 330.251953125 c 2
 299.774414062 300.3203125 l 1
 299.603515625 306.071289062 l 1
 299.431640625 311.821289062 l 1
 406.3515625 341.30859375 l 1
 496.942382812 414.135742188 l 1
 549.915039062 512.345703125 l 1
 551.920898438 612.626953125 l 1
 558.131835938 614.071289062 l 1
202.685546875 44.0703125 m 1
 209.358398438 34.9560546875 l 1
 220.915039062 44.0703125 l 1
 214.243164062 53.185546875 l 1
 202.685546875 44.0703125 l 1
191.09375 48.3134765625 m 2
 213.41015625 65.9130859375 l 2
 216.466796875 68.3232421875 220.33984375 68.0380859375 221.895507812 65.9130859375 c 2
 234.779296875 48.3134765625 l 2
 236.543945312 45.9033203125 235.201171875 41.9541015625 232.505859375 39.828125 c 2
 210.190429688 22.2275390625 l 2
 206.934570312 19.6591796875 203.038085938 20.40625 201.705078125 22.2275390625 c 2
 188.8203125 39.828125 l 2
 186.94140625 42.396484375 188.78515625 46.4921875 191.09375 48.3134765625 c 2
172.766601562 44.0703125 m 1
 201.341796875 5.0361328125 l 1
 250.833984375 44.0703125 l 1
 222.259765625 83.1044921875 l 1
 172.766601562 44.0703125 l 1
161.174804688 48.3134765625 m 2
 221.426757812 95.83203125 l 2
 224.483398438 98.2421875 228.356445312 97.95703125 229.912109375 95.83203125 c 2
 264.698242188 48.3134765625 l 2
 266.462890625 45.9033203125 265.120117188 41.9541015625 262.424804688 39.828125 c 2
 202.173828125 -7.69140625 l 2
 198.91796875 -10.259765625 195.021484375 -9.5126953125 193.688476562 -7.69140625 c 2
 158.901367188 39.828125 l 2
 157.022460938 42.396484375 158.8671875 46.4921875 161.174804688 48.3134765625 c 2
299.603515625 306.071289062 m 1
 305.603515625 306.071289062 l 1
 270.76953125 176.071289062 l 1
 264.76953125 176.071289062 l 1
 258.76953125 176.071289062 l 1
 293.603515625 306.071289062 l 1
 299.603515625 306.071289062 l 1
273.204101562 306.071289062 m 1
 279.204101562 306.071289062 l 1
 244.370117188 176.071289062 l 1
 238.370117188 176.071289062 l 1
 232.370117188 176.071289062 l 1
 267.204101562 306.071289062 l 1
 273.204101562 306.071289062 l 1
271.161132812 314.87109375 m 1
 270.1171875 320.322265625 l 1
 450.1171875 393.959960938 l 1
 508.596679688 465 l 5
 403.41015625 580 l 1
 271.310546875 658 l 1
 208.481445312 609.293945312 l 1
 206.131835938 614.071289062 l 1
 203.780273438 618.84765625 l 1
 268.7421875 668.900390625 l 2
 270.045898438 669.723632812 271.98828125 670.724609375 273.059570312 670.112304688 c 2
 410.220703125 591.80078125 l 2
 411.278320312 591.262695312 413.0859375 590.354492188 414.109375 589.2109375 c 2
 521.275390625 469.491210938 l 6
 522.307617188 468.499023438 521.705078125 466.198242188 520.771484375 464.486328125 c 6
 459.354492188 388.064453125 l 2
 458.180664062 386.603515625 456.853515625 384.95703125 455.047851562 384.21875 c 2
 272.205078125 309.418945312 l 1
 271.161132812 314.87109375 l 1
EndSplineSet
EndChar

StartChar: at
Encoding: 64 64 30
Width: 619
VWidth: -2438
Flags: HW
LayerCount: 2
Fore
SplineSet
561.411132812 388.618164062 m 1
 567.411132812 388.618164062 l 1
 497.563476562 127.944335938 l 1
 522.525390625 109.204101562 l 1
 591.500976562 130.310546875 l 1
 591.873046875 124.618164062 l 1
 592.245117188 118.926757812 l 1
 520.350585938 96.9267578125 l 2
 518.575195312 96.3837890625 516.696289062 96.5830078125 515.434570312 97.5302734375 c 2
 486.129882812 119.530273438 l 2
 484.717773438 120.590820312 484.120117188 122.5546875 484.672851562 124.618164062 c 2
 555.411132812 388.618164062 l 1
 561.411132812 388.618164062 l 1
587.811523438 388.618164062 m 1
 593.811523438 388.618164062 l 1
 526.610351562 137.818359375 l 1
 520.610351562 137.818359375 l 1
 514.610351562 137.818359375 l 1
 581.811523438 388.618164062 l 1
 587.811523438 388.618164062 l 1
543.7265625 322.618164062 m 1
 538.58984375 318.076171875 l 1
 489.916992188 372.721679688 l 1
 409.907226562 378.086914062 l 1
 329.659179688 333.325195312 l 1
 280.348632812 254.594726562 l 1
 275.2421875 256.618164062 l 1
 270.135742188 258.642578125 l 1
 320.630859375 339.264648438 l 2
 321.303710938 340.336914062 322.504882812 341.540039062 323.791992188 342.2578125 c 2
 407.991210938 389.22265625 l 2
 409.110351562 389.84765625 410.65234375 390.278320312 411.935546875 390.192382812 c 2
 495.884765625 384.563476562 l 2
 497 384.489257812 498.260742188 383.974609375 499.022460938 383.119140625 c 2
 548.86328125 327.161132812 l 1
 543.7265625 322.618164062 l 1
502.461914062 168.618164062 m 1
 505.0390625 163.989257812 l 1
 419.258789062 106.05859375 l 2
 417.953125 105.176757812 416.374023438 104.694335938 415.103515625 104.688476562 c 2
 323.92578125 104.24609375 l 2
 322.538085938 104.239257812 321.254882812 104.782226562 320.482421875 105.579101562 c 2
 264.999023438 162.822265625 l 2
 264.154296875 163.693359375 263.747070312 165.017578125 263.818359375 166.258789062 c 2
 269.040039062 255.388671875 l 1
 275.2421875 256.618164062 l 1
 281.4453125 257.848632812 l 1
 276.345703125 170.810546875 l 1
 329.22265625 116.255859375 l 1
 416.120117188 116.677734375 l 1
 499.885742188 173.248046875 l 1
 502.461914062 168.618164062 l 1
570.188476562 142.217773438 m 1
 569.129882812 136.243164062 l 1
 519.551757812 131.84375 l 1
 520.610351562 137.818359375 l 1
 521.66796875 143.793945312 l 1
 571.24609375 148.193359375 l 1
 570.188476562 142.217773438 l 1
690.088867188 491.166992188 m 1
 684.576171875 487.118164062 l 1
 635.3671875 563.229492188 l 1
 564.689453125 606.0703125 l 1
 478.447265625 614.569335938 l 1
 382.645507812 586.741210938 l 1
 289.18359375 524.715820312 l 1
 209.831054688 437.208007812 l 1
 150.376953125 331.9453125 l 1
 116.360351562 216.014648438 l 1
 110.403320312 216.166992188 l 1
 104.446289062 216.3203125 l 1
 138.696289062 333.044921875 l 2
 138.817382812 333.458007812 139.080078125 334.107421875 139.358398438 334.599609375 c 2
 199.700195312 441.43359375 l 2
 199.94140625 441.860351562 200.384765625 442.495117188 200.802734375 442.956054688 c 2
 281.548828125 532 l 2
 281.956054688 532.44921875 282.620117188 533.0390625 283.22265625 533.438476562 c 2
 378.684570312 596.791015625 l 2
 379.29296875 597.1953125 380.166015625 597.623046875 380.932617188 597.845703125 c 2
 479.169921875 626.381835938 l 2
 479.900390625 626.59375 480.83984375 626.70703125 481.612304688 626.630859375 c 2
 570.169921875 617.903320312 l 2
 570.819335938 617.83984375 571.61328125 617.604492188 572.196289062 617.250976562 c 2
 644.57421875 573.379882812 l 2
 645.022460938 573.108398438 645.557617188 572.618164062 645.88671875 572.109375 c 2
 695.602539062 495.216796875 l 1
 690.088867188 491.166992188 l 1
564.393554688 22.064453125 m 1
 567.736328125 18.015625 l 1
 476.814453125 -58.876953125 l 2
 476.211914062 -59.38671875 475.415039062 -59.8759765625 474.819335938 -60.1484375 c 2
 378.932617188 -104.014648438 l 2
 378.162109375 -104.3671875 377.241210938 -104.602539062 376.55859375 -104.666015625 c 2
 283.323242188 -113.393554688 l 2
 282.509765625 -113.469726562 281.630859375 -113.356445312 281.013671875 -113.14453125 c 2
 198.069335938 -84.6083984375 l 2
 197.421875 -84.3857421875 196.779296875 -83.9580078125 196.38671875 -83.5537109375 c 2
 134.875 -20.201171875 l 2
 134.487304688 -19.8017578125 134.139648438 -19.2119140625 133.97265625 -18.7626953125 c 2
 100.9453125 70.28125 l 2
 100.7734375 70.7421875 100.669921875 71.376953125 100.658203125 71.8037109375 c 2
 97.5693359375 178.637695312 l 2
 97.5546875 179.129882812 97.6396484375 179.779296875 97.7392578125 180.192382812 c 2
 126.041015625 296.912109375 l 1
 132.080078125 297.064453125 l 1
 138.119140625 297.217773438 l 1
 110.009765625 181.291992188 l 1
 113.053710938 76.029296875 l 1
 145.510742188 -11.478515625 l 1
 205.733398438 -73.50390625 l 1
 286.622070312 -101.33203125 l 1
 377.41796875 -92.8330078125 l 1
 471.053710938 -49.9970703125 l 1
 561.05078125 26.1142578125 l 1
 564.393554688 22.064453125 l 1
591.873046875 124.618164062 m 1
 585.873046875 124.618164062 l 1
 680.190429688 476.618164062 l 1
 686.190429688 476.618164062 l 1
 692.190429688 476.618164062 l 1
 597.873046875 124.618164062 l 1
 591.873046875 124.618164062 l 1
569.952148438 141.336914062 m 1
 563.952148438 141.336914062 l 1
 624.0703125 365.69921875 l 1
 630.0703125 365.69921875 l 1
 636.0703125 365.69921875 l 1
 575.952148438 141.336914062 l 1
 569.952148438 141.336914062 l 1
632.19140625 373.618164062 m 1
 626.94140625 369.209960938 l 1
 511.151367188 482 l 1
 383.946289062 564.84375 l 1
 271.465820312 486.181640625 l 1
 154.264648438 291.265625 l 1
 139.216796875 221 l 5
 251.971679688 82 l 1
 429.40625 -47 l 1
 566.158203125 41.52734375 l 1
 568.29296875 36.6181640625 l 1
 570.426757812 31.708984375 l 1
 431.400390625 -58.1630859375 l 2
 429.958984375 -59.015625 427.72265625 -60.0419921875 426.889648438 -59.2021484375 c 2
 245.215820312 70.3759765625 l 2
 244.440429688 70.9541015625 242.931640625 71.322265625 242.161132812 72.154296875 c 2
 127.376953125 214.056640625 l 6
 126.706054688 214.638671875 126.484375 216.122070312 126.641601562 217.37890625 c 6
 142.107421875 290.970703125 l 2
 142.29296875 291.831054688 142.561523438 292.836914062 143.08984375 293.715820312 c 2
 262.143554688 491.715820312 l 2
 262.698242188 492.639648438 263.828125 493.795898438 264.943359375 494.57421875 c 2
 381.044921875 575.545898438 l 2
 382.08203125 576.20703125 383.594726562 576.754882812 384.877929688 576.788085938 c 2
 516.502929688 494.059570312 l 2
 517.358398438 493.521484375 519.422851562 493.552734375 520.3046875 492.470703125 c 2
 637.442382812 378.02734375 l 1
 632.19140625 373.618164062 l 1
501.17578125 203.366210938 m 1
 497.053710938 198 l 1
 359.815429688 324 l 1
 332.848632812 298 l 1
 382.020507812 224 l 1
 464.551757812 170 l 1
 494.55859375 182.685546875 l 1
 496.020507812 177.41796875 l 1
 497.482421875 172.151367188 l 1
 464.506835938 158.052734375 l 2
 462.979492188 157.326171875 460.1875 156.61328125 459.157226562 157.828125 c 2
 371.197265625 214.536132812 l 2
 369.672851562 215.51953125 369.541015625 217.950195312 369.034179688 219.828125 c 2
 315.498046875 297.103515625 l 2
 314.668945312 298.439453125 318.1171875 300.607421875 319.801757812 302.428710938 c 2
 359.69140625 339.9765625 l 2
 361.28515625 341.4765625 364.296875 341.40625 365.559570312 340.217773438 c 2
 505.296875 208.733398438 l 1
 501.17578125 203.366210938 l 1
EndSplineSet
EndChar

StartChar: A
Encoding: 65 65 31
Width: 604
VWidth: -2448
Flags: HW
LayerCount: 2
Fore
SplineSet
390.15625 538 m 5
 396.353515625 539.950195312 l 5
 523.37109375 341 l 5
 548.928710938 0.9501953125 l 5
 542.732421875 -1 l 5
 536.536132812 -2.9501953125 l 5
 511.057617188 336 l 5
 383.959960938 536.049804688 l 5
 390.15625 538 l 5
517.64453125 710 m 5
 523.840820312 711.950195312 l 5
 575.329101562 0.9501953125 l 5
 569.1328125 -1 l 5
 562.936523438 -2.9501953125 l 5
 511.448242188 708.049804688 l 5
 517.64453125 710 l 5
391.202148438 541.900390625 m 5
 396.353515625 539.950195312 l 5
 63.8837890625 -2.9501953125 l 5
 58.732421875 -1 l 5
 53.5810546875 0.9501953125 l 5
 386.05078125 543.850585938 l 5
 391.202148438 541.900390625 l 5
464.84375 710 m 5
 469.995117188 708.049804688 l 5
 37.4833984375 -2.9501953125 l 5
 32.33203125 -1 l 5
 27.1806640625 0.9501953125 l 5
 459.692382812 711.950195312 l 5
 464.84375 710 l 5
273.782226562 350 m 5
 275.389648438 356 l 5
 533.26953125 210 l 5
 531.662109375 204 l 5
 530.053710938 198 l 5
 272.174804688 344 l 5
 273.782226562 350 l 5
172.587890625 177.599609375 m 5
 174.1953125 183.599609375 l 5
 526.1953125 183.599609375 l 5
 524.587890625 177.599609375 l 5
 522.979492188 171.599609375 l 5
 170.979492188 171.599609375 l 5
 172.587890625 177.599609375 l 5
EndSplineSet
EndChar

StartChar: B
Encoding: 66 66 32
Width: 596
VWidth: -2445
Flags: HW
LayerCount: 2
Fore
SplineSet
172.817382812 186.940429688 m 1
 166.817382812 186.940429688 l 1
 300.041015625 684.139648438 l 1
 306.041015625 684.139648438 l 1
 312.041015625 684.139648438 l 1
 178.817382812 186.940429688 l 1
 172.817382812 186.940429688 l 1
97.3017578125 3.6357421875 m 1
 91.3017578125 3.6357421875 l 1
 281.494140625 713.444335938 l 1
 287.494140625 713.444335938 l 1
 293.494140625 713.444335938 l 1
 103.301757812 3.6357421875 l 1
 97.3017578125 3.6357421875 l 1
478.397460938 358.540039062 m 1
 480.004882812 364.540039062 l 1
 484.404296875 364.540039062 l 2
 484.786132812 364.540039062 485.275390625 364.481445312 485.55078125 364.423828125 c 2
 537.602539062 353.423828125 l 2
 538.477539062 353.239257812 539.282226562 352.797851562 539.829101562 352.249023438 c 2
 572.787109375 319.249023438 l 2
 573.30859375 318.7265625 573.702148438 317.983398438 573.872070312 317.30859375 c 2
 587.735351562 262.30859375 l 2
 587.859375 261.818359375 587.8984375 261.157226562 587.869140625 260.716796875 c 2
 582.63671875 183.716796875 l 1
 576.4375 182.540039062 l 1
 570.23828125 181.36328125 l 1
 575.415039062 257.528320312 l 1
 562.030273438 310.62890625 l 1
 530.760742188 341.938476562 l 1
 480.595703125 352.540039062 l 1
 476.790039062 352.540039062 l 1
 478.397460938 358.540039062 l 1
478.397460938 358.540039062 m 1
 480.004882812 364.540039062 l 1
 482.587890625 364.540039062 l 1
 557.033203125 406.6484375 l 1
 623.51953125 493.223632812 l 1
 628.166015625 490.540039062 l 1
 632.813476562 487.856445312 l 1
 565.234375 399.856445312 l 2
 564.533203125 398.943359375 563.59765625 398.125 562.577148438 397.547851562 c 2
 484.787109375 353.547851562 l 2
 483.848632812 353.016601562 482.377929688 352.540039062 481.189453125 352.540039062 c 2
 476.790039062 352.540039062 l 1
 478.397460938 358.540039062 l 1
98.0791015625 6.5400390625 m 1
 99.6875 12.5400390625 l 1
 389.493164062 12.5400390625 l 1
 445.33984375 23.1416015625 l 1
 493.387695312 54.451171875 l 1
 535.228515625 107.551757812 l 1
 570.869140625 183.716796875 l 1
 576.4375 182.540039062 l 1
 582.005859375 181.36328125 l 1
 545.974609375 104.36328125 l 2
 545.767578125 103.922851562 545.374023438 103.26171875 544.987304688 102.771484375 c 2
 501.650390625 47.771484375 l 2
 501.118164062 47.0966796875 500.326171875 46.353515625 499.524414062 45.8310546875 c 2
 448.8828125 12.8310546875 l 2
 448.041015625 12.2822265625 447 11.8408203125 446.026367188 11.65625 c 2
 388.079101562 0.65625 l 2
 387.7734375 0.5986328125 387.252929688 0.5400390625 386.87109375 0.5400390625 c 2
 96.4716796875 0.5400390625 l 1
 98.0791015625 6.5400390625 l 1
172.817382812 186.940429688 m 1
 174.424804688 192.940429688 l 1
 446.325195312 46 l 1
 444.717773438 40 l 1
 443.110351562 34 l 1
 171.208984375 180.940429688 l 1
 172.817382812 186.940429688 l 1
286.715820312 710.540039062 m 1
 288.323242188 716.540039062 l 1
 490.72265625 716.540039062 l 2
 490.837890625 716.540039062 490.999023438 716.534179688 491.083007812 716.529296875 c 2
 580.359375 711.029296875 l 2
 581.314453125 710.969726562 582.220703125 710.647460938 582.884765625 710.165039062 c 2
 635.818359375 671.665039062 l 2
 636.625976562 671.078125 637.228515625 670.008789062 637.411132812 669.223632812 c 2
 654.001953125 597.723632812 l 2
 654.161132812 597.040039062 654.150390625 596.178710938 654.025390625 595.512695312 c 2
 634.274414062 491.012695312 l 1
 628.166015625 490.540039062 l 1
 622.05859375 490.067382812 l 1
 641.588867188 593.40234375 l 1
 625.59765625 662.3125 l 1
 574.961914062 699.140625 l 1
 487.326171875 704.540039062 l 1
 285.108398438 704.540039062 l 1
 286.715820312 710.540039062 l 1
306.041015625 684.139648438 m 5
 307.6484375 690.139648438 l 5
 461.573242188 603 l 5
 459.965820312 597 l 5
 458.358398438 591 l 5
 304.43359375 678.139648438 l 5
 306.041015625 684.139648438 l 5
459.965820312 597 m 5
 462.98046875 602.821289062 l 5
 543.538085938 531.86328125 l 6
 544.938476562 530.951171875 546.373046875 529.643554688 546.713867188 528.059570312 c 6
 592.411132812 468.19140625 l 6
 592.999023438 467.421875 592.106445312 465.514648438 591.516601562 464.469726562 c 6
 556.219726562 414.036132812 l 6
 555.106445312 412.4453125 553.55078125 411.068359375 551.942382812 410.278320312 c 6
 471.067382812 370.538085938 l 6
 470.200195312 370.185546875 469.2109375 370 468.44140625 370 c 6
 255.291992188 494.740234375 l 5
 256.899414062 500.740234375 l 5
 258.506835938 506.740234375 l 5
 470.356445312 382 l 5
 547.109375 420.069335938 l 5
 578.328125 464 l 5
 534.6015625 521 l 5
 456.951171875 591.178710938 l 5
 459.965820312 597 l 5
444.717773438 40 m 1
 442.333984375 44.755859375 l 1
 487.043945312 80.7294921875 l 1
 542.400390625 161.073242188 l 1
 546.802734375 288.26953125 l 1
 445.579101562 339.33984375 l 1
 213.65234375 339.33984375 l 1
 215.259765625 345.33984375 l 1
 216.868164062 351.33984375 l 1
 450.068359375 351.33984375 l 2
 450.817382812 351.33984375 451.696289062 351.161132812 452.366210938 350.822265625 c 2
 557.017578125 298.022460938 l 2
 558.274414062 297.388671875 559.38671875 295.7890625 559.3203125 293.903320312 c 2
 554.750976562 161.903320312 l 2
 554.71484375 160.852539062 554.256835938 159.383789062 553.44921875 158.211914062 c 2
 495.849609375 74.6123046875 l 2
 495.206054688 73.677734375 494.241210938 72.9150390625 493.327148438 72.1845703125 c 2
 447.1015625 35.244140625 l 1
 444.717773438 40 l 1
EndSplineSet
EndChar

StartChar: C
Encoding: 67 67 33
Width: 596
VWidth: -2448
Flags: HW
LayerCount: 2
Fore
SplineSet
689.077148438 599.723632812 m 5
 683.604492188 595.614257812 l 5
 636.397460938 665.875976562 l 5
 569.151367188 704.079101562 l 5
 487.62890625 709.418945312 l 5
 397.6953125 680.127929688 l 5
 310.978515625 618.661132812 l 5
 238.790039062 533.915039062 l 5
 186.54296875 433.619140625 l 5
 155.936523438 311.834960938 l 5
 149.908203125 311.723632812 l 5
 143.87890625 311.612304688 l 5
 174.685546875 434.200195312 l 6
 174.790039062 434.619140625 175.029296875 435.278320312 175.291992188 435.783203125 c 6
 228.373046875 537.6796875 l 6
 228.59765625 538.112304688 229.020507812 538.758789062 229.424804688 539.233398438 c 6
 302.95703125 625.557617188 l 6
 303.349609375 626.017578125 303.995117188 626.627929688 304.5859375 627.047851562 c 6
 393.274414062 689.911132812 l 6
 393.876953125 690.337890625 394.744140625 690.795898438 395.512695312 691.046875 c 6
 487.90234375 721.137695312 l 6
 488.646484375 721.379882812 489.599609375 721.526367188 490.39453125 721.473632812 c 6
 574.3046875 715.977539062 l 6
 574.981445312 715.93359375 575.801757812 715.717773438 576.41015625 715.372070312 c 6
 645.434570312 676.159179688 l 6
 645.908203125 675.889648438 646.46484375 675.403320312 646.811523438 674.88671875 c 6
 694.55078125 603.833007812 l 5
 689.077148438 599.723632812 l 5
559.163085938 114.875976562 m 5
 562.43359375 110.766601562 l 5
 476.6171875 39.712890625 l 6
 475.994140625 39.1962890625 475.17578125 38.7099609375 474.557617188 38.4404296875 c 6
 384.51953125 -0.7724609375 l 6
 383.725585938 -1.1181640625 382.790039062 -1.333984375 382.08984375 -1.3779296875 c 6
 295.234375 -6.8740234375 l 6
 294.411132812 -6.9267578125 293.537109375 -6.7802734375 292.921875 -6.5380859375 c 6
 216.658203125 23.552734375 l 6
 216.0234375 23.8037109375 215.40234375 24.26171875 215.028320312 24.6884765625 c 6
 160.028320312 87.5517578125 l 6
 159.663085938 87.9716796875 159.34375 88.58203125 159.198242188 89.0419921875 c 6
 131.926757812 175.366210938 l 6
 131.776367188 175.840820312 131.701171875 176.487304688 131.70703125 176.919921875 c 6
 133.233398438 278.81640625 l 6
 133.240234375 279.321289062 133.354492188 279.98046875 133.474609375 280.399414062 c 6
 168.36328125 402.987304688 l 5
 174.33203125 402.875976562 l 5
 180.301757812 402.764648438 l 5
 145.643554688 280.98046875 l 5
 144.141601562 180.684570312 l 5
 170.916015625 95.9384765625 l 5
 224.692382812 34.4716796875 l 5
 298.928710938 5.1806640625 l 5
 383.313476562 10.5205078125 l 5
 471.032226562 48.7236328125 l 5
 555.891601562 118.985351562 l 5
 559.163085938 114.875976562 l 5
656.05078125 450.181640625 m 5
 651.184570312 445.36328125 l 5
 525.444335938 554 l 5
 378.559570312 644 l 5
 309.715820312 593.345703125 l 5
 219.11328125 452 l 5
 189.744140625 320 l 5
 291.458984375 188.327148438 l 5
 476.560546875 73 l 5
 561.178710938 135.638671875 l 5
 563.4296875 130.799804688 l 5
 565.681640625 125.9609375 l 5
 479.076171875 62.1044921875 l 6
 477.9296875 61.40234375 476.375 60.9072265625 475.045898438 60.9462890625 c 6
 285.477539062 176.40234375 l 6
 284.584960938 176.946289062 282.657226562 177.149414062 281.825195312 178.229492188 c 6
 177.905273438 313.057617188 l 6
 177.364257812 313.831054688 176.890625 315.115234375 177.168945312 316.37890625 c 6
 206.946289062 451.641601562 l 6
 207.005859375 452.428710938 207.372070312 453.426757812 207.862304688 454.272460938 c 6
 300.296875 598.782226562 l 6
 300.950195312 599.803710938 302.086914062 600.9765625 303.268554688 601.821289062 c 6
 403.998046875 673.821289062 l 6
 405.045898438 674.521484375 378.094726562 661.459960938 379.133789062 661 c 6
 530.641601562 566 l 6
 531.40625 565.520507812 533.297851562 565.776367188 533.900390625 564.818359375 c 6
 660.916992188 455 l 5
 656.05078125 450.181640625 l 5
EndSplineSet
EndChar

StartChar: D
Encoding: 68 68 34
Width: 625
VWidth: -2445
Flags: HW
LayerCount: 2
Fore
SplineSet
173.268554688 198.80078125 m 5
 167.268554688 198.80078125 l 5
 297.27734375 684 l 5
 303.27734375 684 l 5
 309.27734375 684 l 5
 179.268554688 198.80078125 l 5
 173.268554688 198.80078125 l 5
94.5361328125 3.49609375 m 5
 88.5361328125 3.49609375 l 5
 278.729492188 713.3046875 l 5
 284.729492188 713.3046875 l 5
 290.729492188 713.3046875 l 5
 100.536132812 3.49609375 l 5
 94.5361328125 3.49609375 l 5
95.314453125 6.400390625 m 5
 96.921875 12.400390625 l 5
 272.715820312 12.400390625 l 5
 393.076171875 20.5322265625 l 5
 496.90625 76.6904296875 l 5
 586.568359375 181.856445312 l 5
 662.215820312 337.67578125 l 5
 667.73828125 336.400390625 l 5
 673.259765625 335.125 l 5
 597.159179688 178.375 l 6
 596.9140625 177.872070312 596.4609375 177.15625 596.005859375 176.622070312 c 6
 504.567382812 69.3720703125 l 6
 503.90234375 68.591796875 502.993164062 67.8408203125 502.047851562 67.330078125 c 6
 395.274414062 9.580078125 l 6
 394.333007812 9.0703125 393.241210938 8.732421875 392.233398438 8.6640625 c 6
 270.123046875 0.4140625 l 6
 270.0234375 0.408203125 269.837890625 0.400390625 269.70703125 0.400390625 c 6
 93.70703125 0.400390625 l 5
 95.314453125 6.400390625 l 5
173.268554688 198.80078125 m 5
 174.875976562 204.80078125 l 5
 347.833007812 118.80078125 l 5
 346.224609375 112.80078125 l 5
 344.6171875 106.80078125 l 5
 171.661132812 192.80078125 l 5
 173.268554688 198.80078125 l 5
283.951171875 710.400390625 m 5
 285.55859375 716.400390625 l 5
 461.626953125 716.400390625 l 5
 580.859375 713.6484375 l 6
 582.030273438 713.622070312 583.221679688 713.119140625 583.852539062 712.58203125 c 6
 658.205078125 649.33203125 l 6
 658.870117188 648.766601562 659.341796875 647.963867188 659.545898438 647.112304688 c 6
 689.086914062 523.362304688 l 6
 689.206054688 522.862304688 689.237304688 522.19140625 689.200195312 521.7421875 c 6
 673.9296875 337.4921875 l 5
 667.73828125 336.400390625 l 5
 661.545898438 335.30859375 l 5
 676.745117188 518.708984375 l 5
 647.7109375 640.333007812 l 5
 575.581054688 701.693359375 l 5
 458.274414062 704.400390625 l 5
 282.342773438 704.400390625 l 5
 283.951171875 710.400390625 l 5
303.27734375 684 m 5
 304.884765625 690 l 5
 457.573242188 603 l 5
 455.965820312 597 l 5
 454.358398438 591 l 5
 301.669921875 678 l 5
 303.27734375 684 l 5
455.965820312 597 m 5
 458.046875 602.98046875 l 5
 553.36328125 548.180664062 l 6
 554.80078125 548.063476562 556.028320312 547.374023438 556.739257812 546.333007812 c 6
 637.045898438 474.333007812 l 6
 637.487304688 473.686523438 637.748046875 472.831054688 637.791992188 472.05078125 c 6
 659.640625 416.250976562 l 6
 659.670898438 415.729492188 659.591796875 415.045898438 659.48828125 414.600585938 c 6
 631.19921875 292.600585938 l 6
 631.063476562 292.024414062 630.775390625 291.311523438 630.532226562 290.854492188 c 6
 559.961914062 158.854492188 l 6
 559.495117188 157.982421875 558.783203125 157.110351562 558.069335938 156.478515625 c 6
 472.283203125 73.6787109375 l 6
 471.19140625 72.71484375 469.711914062 72.00390625 468.590820312 71.7578125 c 6
 346.022460938 106.958007812 l 5
 346.224609375 112.80078125 l 5
 346.426757812 118.643554688 l 5
 468.510742188 85 l 5
 549.907226562 163.278320312 l 5
 619.305664062 293.087890625 l 5
 647.188476562 413.354492188 l 5
 625.458984375 467.0546875 l 5
 546.9609375 536.40234375 l 5
 453.884765625 591.01953125 l 5
 455.965820312 597 l 5
EndSplineSet
EndChar

StartChar: E
Encoding: 69 69 35
Width: 540
VWidth: -2445
Flags: HW
LayerCount: 2
Fore
SplineSet
173.65625 188.036132812 m 5
 167.65625 188.036132812 l 5
 300.612304688 684.235351562 l 5
 306.612304688 684.235351562 l 5
 312.612304688 684.235351562 l 5
 179.65625 188.036132812 l 5
 173.65625 188.036132812 l 5
97.8720703125 3.7314453125 m 5
 91.8720703125 3.7314453125 l 5
 282.064453125 713.540039062 l 5
 288.064453125 713.540039062 l 5
 294.064453125 713.540039062 l 5
 103.872070312 3.7314453125 l 5
 97.8720703125 3.7314453125 l 5
217.010742188 349.8359375 m 5
 218.618164062 355.8359375 l 5
 456.217773438 355.8359375 l 5
 454.610351562 349.8359375 l 5
 453.002929688 343.8359375 l 5
 215.403320312 343.8359375 l 5
 217.010742188 349.8359375 l 5
265.616210938 531.235351562 m 5
 267.224609375 537.235351562 l 5
 463.291992188 382.235351562 l 5
 461.68359375 376.235351562 l 5
 460.076171875 370.235351562 l 5
 264.008789062 525.235351562 l 5
 265.616210938 531.235351562 l 5
98.650390625 6.6357421875 m 5
 100.2578125 12.6357421875 l 5
 496.2578125 12.6357421875 l 5
 494.650390625 6.6357421875 l 5
 493.041992188 0.6357421875 l 5
 97.0419921875 0.6357421875 l 5
 98.650390625 6.6357421875 l 5
173.325195312 188.036132812 m 5
 174.93359375 194.036132812 l 5
 503.663085938 39.0361328125 l 5
 502.0546875 33.0361328125 l 5
 500.447265625 27.0361328125 l 5
 171.717773438 182.036132812 l 5
 173.325195312 188.036132812 l 5
287.286132812 710.635742188 m 5
 288.893554688 716.635742188 l 5
 684.893554688 716.635742188 l 5
 683.286132812 710.635742188 l 5
 681.678710938 704.635742188 l 5
 285.678710938 704.635742188 l 5
 287.286132812 710.635742188 l 5
306.28125 684.235351562 m 5
 307.889648438 690.235351562 l 5
 640.370117188 549.235351562 l 5
 638.762695312 543.235351562 l 5
 637.155273438 537.235351562 l 5
 304.673828125 678.235351562 l 5
 306.28125 684.235351562 l 5
EndSplineSet
EndChar

StartChar: F
Encoding: 70 70 36
Width: 484
VWidth: -2447
Flags: HW
LayerCount: 2
Fore
SplineSet
260.616210938 531.235351562 m 5
 262.224609375 537.235351562 l 5
 458.291992188 382.235351562 l 5
 456.68359375 376.235351562 l 5
 455.076171875 370.235351562 l 5
 259.008789062 525.235351562 l 5
 260.616210938 531.235351562 l 5
301.28125 684.235351562 m 5
 302.889648438 690.235351562 l 5
 635.370117188 549.235351562 l 5
 633.762695312 543.235351562 l 5
 632.155273438 537.235351562 l 5
 299.673828125 678.235351562 l 5
 301.28125 684.235351562 l 5
117.838867188 -0.599609375 m 1
 111.838867188 -0.599609375 l 1
 295.27734375 684 l 1
 301.27734375 684 l 1
 307.27734375 684 l 1
 123.838867188 -0.599609375 l 1
 117.838867188 -0.599609375 l 1
91.3447265625 -0.9521484375 m 1
 85.3447265625 -0.9521484375 l 1
 276.044921875 710.752929688 l 1
 282.044921875 710.752929688 l 1
 288.044921875 710.752929688 l 1
 97.3447265625 -0.9521484375 l 1
 91.3447265625 -0.9521484375 l 1
212.157226562 351.400390625 m 1
 213.765625 357.400390625 l 1
 451.365234375 357.400390625 l 1
 449.756835938 351.400390625 l 1
 448.149414062 345.400390625 l 1
 210.549804688 345.400390625 l 1
 212.157226562 351.400390625 l 1
281.951171875 710.400390625 m 1
 283.55859375 716.400390625 l 1
 679.55859375 716.400390625 l 1
 677.951171875 710.400390625 l 1
 676.342773438 704.400390625 l 1
 280.342773438 704.400390625 l 1
 281.951171875 710.400390625 l 1
EndSplineSet
EndChar

StartChar: G
Encoding: 71 71 37
Width: 600
VWidth: -2448
Flags: HW
LayerCount: 2
Fore
SplineSet
656.05078125 450.181640625 m 1
 651.184570312 445.36328125 l 1
 525.444335938 554 l 1
 378.559570312 644 l 1
 309.715820312 593.345703125 l 1
 219.11328125 452 l 1
 189.744140625 320 l 1
 291.458984375 188.327148438 l 1
 468.560546875 73 l 5
 531.178710938 135.638671875 l 1
 533.4296875 130.799804688 l 1
 535.681640625 125.9609375 l 1
 471.076171875 62.1044921875 l 6
 469.9296875 61.40234375 468.375 60.9072265625 467.045898438 60.9462890625 c 6
 285.477539062 176.40234375 l 2
 284.584960938 176.946289062 282.657226562 177.149414062 281.825195312 178.229492188 c 2
 177.905273438 313.057617188 l 2
 177.364257812 313.831054688 176.890625 315.115234375 177.168945312 316.37890625 c 2
 206.946289062 451.641601562 l 2
 207.005859375 452.428710938 207.372070312 453.426757812 207.862304688 454.272460938 c 2
 300.296875 598.782226562 l 2
 300.950195312 599.803710938 302.086914062 600.9765625 303.268554688 601.821289062 c 2
 403.998046875 673.821289062 l 2
 405.045898438 674.521484375 378.094726562 661.459960938 379.133789062 661 c 2
 530.641601562 566 l 2
 531.40625 565.520507812 533.297851562 565.776367188 533.900390625 564.818359375 c 2
 660.916992188 455 l 1
 656.05078125 450.181640625 l 1
684.720703125 597.377929688 m 1
 679.247070312 593.268554688 l 1
 632.041015625 663.53125 l 1
 564.793945312 701.734375 l 1
 483.271484375 707.073242188 l 1
 393.338867188 677.782226562 l 1
 306.62109375 616.315429688 l 1
 234.431640625 531.569335938 l 1
 182.185546875 431.2734375 l 1
 152.383789062 312.490234375 l 1
 146.354492188 312.377929688 l 1
 140.326171875 312.266601562 l 1
 170.328125 431.854492188 l 2
 170.432617188 432.2734375 170.671875 432.93359375 170.934570312 433.4375 c 2
 224.014648438 535.333984375 l 2
 224.241210938 535.766601562 224.662109375 536.413085938 225.06640625 536.887695312 c 2
 298.599609375 623.211914062 l 2
 298.991210938 623.671875 299.637695312 624.282226562 300.229492188 624.702148438 c 2
 388.916992188 687.565429688 l 2
 389.51953125 687.9921875 390.38671875 688.450195312 391.15625 688.701171875 c 2
 483.544921875 718.791992188 l 2
 484.290039062 719.034179688 485.243164062 719.180664062 486.036132812 719.127929688 c 2
 569.946289062 713.631835938 l 2
 570.623046875 713.587890625 571.443359375 713.372070312 572.052734375 713.026367188 c 2
 641.077148438 673.813476562 l 2
 641.549804688 673.543945312 642.108398438 673.057617188 642.455078125 672.541015625 c 2
 690.193359375 601.487304688 l 1
 684.720703125 597.377929688 l 1
555.609375 115.530273438 m 1
 558.880859375 111.420898438 l 1
 473.064453125 40.3671875 l 2
 472.440429688 39.8505859375 471.622070312 39.3642578125 471.004882812 39.095703125 c 2
 380.966796875 -0.1171875 l 2
 380.171875 -0.4638671875 379.236328125 -0.6796875 378.53515625 -0.7236328125 c 2
 291.6796875 -6.2197265625 l 2
 290.858398438 -6.271484375 289.983398438 -6.1259765625 289.369140625 -5.8837890625 c 2
 213.10546875 24.20703125 l 2
 212.470703125 24.4580078125 211.848632812 24.916015625 211.475585938 25.3427734375 c 2
 156.475585938 88.2060546875 l 2
 156.108398438 88.6259765625 155.790039062 89.236328125 155.64453125 89.6962890625 c 2
 128.373046875 176.020507812 l 2
 128.22265625 176.495117188 128.147460938 177.141601562 128.153320312 177.57421875 c 2
 129.678710938 279.470703125 l 2
 129.6875 279.975585938 129.801757812 280.634765625 129.921875 281.0546875 c 2
 164.005859375 400.642578125 l 1
 169.974609375 400.530273438 l 1
 175.944335938 400.418945312 l 1
 142.08984375 281.634765625 l 1
 140.587890625 181.338867188 l 1
 167.361328125 96.5927734375 l 1
 221.139648438 35.1259765625 l 1
 295.375 5.8349609375 l 1
 379.758789062 11.1748046875 l 1
 467.478515625 49.3779296875 l 1
 552.338867188 119.639648438 l 1
 555.609375 115.530273438 l 1
392.930664062 329.454101562 m 1
 394.538085938 335.454101562 l 1
 614.538085938 335.454101562 l 2
 618.169921875 335.454101562 619.620117188 332.029296875 618.930664062 329.454101562 c 2
 565.875976562 131.454101562 l 1
 559.875976562 131.454101562 l 1
 553.875976562 131.454101562 l 1
 605.322265625 323.454101562 l 1
 391.322265625 323.454101562 l 1
 392.930664062 329.454101562 l 1
386.627929688 303.87890625 m 1
 388.236328125 309.87890625 l 1
 554.208984375 210.87890625 l 2
 557.840820312 210.87890625 559.291015625 207.454101562 558.6015625 204.87890625 c 2
 538.706054688 130.62890625 l 1
 532.706054688 130.62890625 l 1
 526.706054688 130.62890625 l 1
 544.993164062 198.87890625 l 1
 385.020507812 297.87890625 l 1
 386.627929688 303.87890625 l 1
EndSplineSet
EndChar

StartChar: H
Encoding: 72 72 38
Width: 656
VWidth: -2448
Flags: HW
LayerCount: 2
Fore
SplineSet
135 0 m 1
 129 0 l 1
 192.861328125 238.333007812 256.72265625 476.666992188 320.583984375 715 c 1
 326.583984375 715 l 1
 332.583984375 715 l 1
 268.72265625 476.666992188 204.861328125 238.333007812 141 0 c 1
 135 0 l 1
108.599609375 0 m 1
 102.599609375 0 l 1
 294.18359375 715 l 1
 300.18359375 715 l 1
 306.18359375 715 l 1
 114.599609375 0 l 1
 108.599609375 0 l 1
214.098632812 295.200195312 m 5
 215.706054688 301.200195312 l 5
 611.706054688 301.200195312 l 5
 610.098632812 295.200195312 l 5
 608.491210938 289.200195312 l 5
 212.491210938 289.200195312 l 5
 214.098632812 295.200195312 l 5
265.116210938 485.599609375 m 5
 266.723632812 491.599609375 l 5
 618.780273438 327.599609375 l 5
 617.171875 321.599609375 l 5
 615.564453125 315.599609375 l 5
 263.508789062 479.599609375 l 5
 265.116210938 485.599609375 l 5
531 0 m 1
 525 0 l 1
 716.583984375 715 l 1
 722.583984375 715 l 1
 728.583984375 715 l 1
 537 0 l 1
 531 0 l 1
557.400390625 0 m 1
 551.400390625 0 l 1
 742.984375 715 l 1
 748.984375 715 l 1
 754.984375 715 l 1
 563.400390625 0 l 1
 557.400390625 0 l 1
EndSplineSet
EndChar

StartChar: I
Encoding: 73 73 39
Width: 270
VWidth: -2448
Flags: HW
LayerCount: 2
Fore
SplineSet
161.196289062 -3 m 5
 155.196289062 -3 l 5
 347.315429688 714 l 5
 353.315429688 714 l 5
 359.315429688 714 l 5
 167.196289062 -3 l 5
 161.196289062 -3 l 5
134.795898438 -3 m 5
 128.795898438 -3 l 5
 291.708984375 605 l 5
 223.915039062 714 l 5
 229.915039062 714 l 5
 235.915039062 714 l 5
 303.9765625 606 l 5
 140.795898438 -3 l 5
 134.795898438 -3 l 5
EndSplineSet
EndChar

StartChar: J
Encoding: 74 74 40
Width: 505
VWidth: -2436
Flags: HW
LayerCount: 2
Fore
SplineSet
480.600585938 252.287109375 m 1
 486.422851562 251.723632812 l 1
 444.504882812 136 l 2
 444.178710938 135.102539062 443.600585938 134.163085938 442.977539062 133.451171875 c 2
 361.765625 40.6123046875 l 2
 360.936523438 39.6640625 359.64453125 38.77734375 358.783203125 38.388671875 c 2
 260.690429688 -5.93359375 l 2
 259.35546875 -6.537109375 257.825195312 -6.70703125 256.7421875 -6.5048828125 c 2
 168.857421875 9.9267578125 l 2
 167.704101562 10.142578125 166.645507812 10.8671875 166.1171875 11.583984375 c 2
 112.6953125 84.2314453125 l 2
 112.186523438 84.923828125 111.896484375 85.8271484375 111.862304688 86.72265625 c 2
 107.655273438 195.528320312 l 1
 113.86328125 197.287109375 l 1
 120.0703125 199.045898438 l 1
 124.221679688 91.6728515625 l 1
 175.889648438 21.4111328125 l 1
 260.112304688 5.6640625 l 1
 354.442382812 48.2861328125 l 1
 433.356445312 138.498046875 l 1
 474.77734375 252.850585938 l 1
 480.600585938 252.287109375 l 1
605.387695312 718 m 1
 611.387695312 718 l 1
 479.82421875 227 l 1
 473.82421875 227 l 1
 467.82421875 227 l 1
 599.387695312 718 l 1
 605.387695312 718 l 1
480.987304688 718 m 5
 486.987304688 718 l 5
 558.99609375 621 l 1
 453.423828125 227 l 1
 447.423828125 227 l 1
 441.423828125 227 l 1
 546.99609375 621 l 1
 474.987304688 718 l 5
 480.987304688 718 l 5
141.021484375 285.63671875 m 1
 147.168945312 288 l 1
 241.03515625 183 l 1
 331.6484375 116.9296875 l 1
 379.8984375 109.706054688 l 1
 441.946289062 228.36328125 l 1
 447.423828125 227 l 1
 452.901367188 225.63671875 l 1
 389.6796875 104.63671875 l 2
 389.077148438 103.434570312 387.57421875 102.041992188 386.139648438 100.978515625 c 2
 332.134765625 105 l 2
 330.375976562 104.021484375 327.424804688 103.48828125 326.075195312 104.655273438 c 2
 231.088867188 173.25 l 2
 228.168945312 175.010742188 229.681640625 175.284179688 229.0625 176.252929688 c 2
 134.874023438 283.2734375 l 1
 141.021484375 285.63671875 l 1
EndSplineSet
EndChar

StartChar: K
Encoding: 75 75 41
Width: 552
VWidth: -2448
Flags: HW
LayerCount: 2
Fore
SplineSet
119.732421875 -1 m 1
 113.732421875 -1 l 1
 302.368164062 703 l 1
 308.368164062 703 l 1
 314.368164062 703 l 1
 125.732421875 -1 l 1
 119.732421875 -1 l 1
93.3330078125 -1 m 1
 87.3330078125 -1 l 1
 275.96875 703 l 1
 281.96875 703 l 1
 287.96875 703 l 1
 99.3330078125 -1 l 1
 93.3330078125 -1 l 1
199.270507812 263 m 1
 195.829101562 266.963867188 l 1
 700.926757812 706.963867188 l 1
 704.368164062 703 l 1
 707.810546875 699.036132812 l 1
 202.711914062 259.036132812 l 1
 199.270507812 263 l 1
164.071289062 263 m 1
 160.629882812 266.963867188 l 1
 665.7265625 706.963867188 l 1
 669.16796875 703 l 1
 672.610351562 699.036132812 l 1
 167.512695312 259.036132812 l 1
 164.071289062 263 l 1
524.532226562 -1 m 1
 518.637695312 -4.3037109375 l 1
 356.662109375 409.295898438 l 1
 362.555664062 412.599609375 l 1
 368.450195312 415.903320312 l 1
 530.42578125 2.3037109375 l 1
 524.532226562 -1 l 1
489.333007812 -1 m 1
 483.438476562 -4.3037109375 l 1
 202.09375 265.392578125 l 5
 207.98828125 268.696289062 l 5
 213.881835938 272 l 5
 495.2265625 2.3037109375 l 1
 489.333007812 -1 l 1
EndSplineSet
EndChar

StartChar: L
Encoding: 76 76 42
Width: 521
VWidth: -2448
Flags: HW
LayerCount: 2
Fore
SplineSet
104.443359375 6.880859375 m 1
 98.443359375 6.880859375 l 1
 288.151367188 714.880859375 l 1
 294.151367188 714.880859375 l 1
 300.151367188 714.880859375 l 1
 110.443359375 6.880859375 l 1
 104.443359375 6.880859375 l 1
183.4375 203.162109375 m 5
 177.4375 203.162109375 l 5
 314.315429688 714 l 1
 320.315429688 714 l 1
 326.315429688 714 l 1
 189.4375 203.162109375 l 5
 183.4375 203.162109375 l 5
104.443359375 6.880859375 m 1
 106.05078125 12.880859375 l 1
 502.05078125 12.880859375 l 1
 500.443359375 6.880859375 l 1
 498.8359375 0.880859375 l 1
 102.8359375 0.880859375 l 1
 104.443359375 6.880859375 l 1
183.862304688 202.28125 m 5
 185.469726562 208.28125 l 5
 508.462890625 39.28125 l 1
 506.85546875 33.28125 l 1
 505.247070312 27.28125 l 1
 182.254882812 196.28125 l 5
 183.862304688 202.28125 l 5
EndSplineSet
EndChar

StartChar: M
Encoding: 77 77 43
Width: 743
VWidth: -2447
Flags: HW
LayerCount: 2
Fore
SplineSet
94 0 m 1
 88 0 l 1
 276.63671875 704 l 1
 282.63671875 704 l 1
 288.63671875 704 l 1
 100 0 l 1
 94 0 l 1
120.1640625 -0.880859375 m 1
 114.1640625 -0.880859375 l 1
 267.903320312 572.880859375 l 1
 273.903320312 572.880859375 l 1
 279.903320312 572.880859375 l 1
 126.1640625 -0.880859375 l 1
 120.1640625 -0.880859375 l 1
282.63671875 704 m 1
 288.784179688 706.361328125 l 1
 505.092773438 228 l 5
 498.944335938 225.638671875 l 5
 492.795898438 223.27734375 l 5
 276.48828125 701.638671875 l 1
 282.63671875 704 l 1
832.63671875 704 m 1
 837.51953125 701.638671875 l 1
 503.827148438 223.27734375 l 5
 498.944335938 225.638671875 l 5
 494.061523438 228 l 5
 827.752929688 706.361328125 l 1
 832.63671875 704 l 1
644 0 m 1
 638 0 l 1
 826.63671875 704 l 1
 832.63671875 704 l 1
 838.63671875 704 l 1
 650 0 l 1
 644 0 l 1
617.36328125 -0.880859375 m 1
 611.36328125 -0.880859375 l 1
 765.102539062 572.880859375 l 1
 771.102539062 572.880859375 l 1
 777.102539062 572.880859375 l 1
 623.36328125 -0.880859375 l 1
 617.36328125 -0.880859375 l 1
273.666992188 572 m 1
 279.811523438 574.391601562 l 1
 373.033203125 15.052734375 l 1
 766.004882812 574.391601562 l 1
 770.866210938 572 l 1
 775.728515625 569.608398438 l 1
 373.862304688 -2.3916015625 l 2
 373.130859375 -3.431640625 371.778320312 -4.6552734375 370.396484375 -5.2978515625 c 0
 366.916992188 -6.9169921875 363.383789062 -5.5546875 362.856445312 -2.3916015625 c 2
 267.5234375 569.608398438 l 1
 273.666992188 572 l 1
EndSplineSet
EndChar

StartChar: N
Encoding: 78 78 44
Width: 637
VWidth: -2448
Flags: HW
LayerCount: 2
Fore
SplineSet
82.4638671875 -2 m 5
 76.4638671875 -2 l 5
 267.244140625 710 l 5
 273.244140625 710 l 5
 279.244140625 710 l 5
 88.4638671875 -2 l 5
 82.4638671875 -2 l 5
109.336914062 -0.23828125 m 5
 103.336914062 -0.23828125 l 5
 269.592773438 620.23828125 l 5
 275.592773438 620.23828125 l 5
 281.592773438 620.23828125 l 5
 115.336914062 -0.23828125 l 5
 109.336914062 -0.23828125 l 5
273.244140625 710 m 5
 279.061523438 713.487304688 l 5
 600.614257812 271 l 5
 594.796875 267.512695312 l 5
 588.979492188 264.025390625 l 5
 267.426757812 706.512695312 l 5
 273.244140625 710 l 5
594.796875 267.512695312 m 5
 588.796875 267.512695312 l 5
 707.244140625 710 l 5
 713.244140625 710 l 5
 719.244140625 710 l 5
 600.796875 267.512695312 l 5
 594.796875 267.512695312 l 5
549.100585938 -1.119140625 m 5
 543.100585938 -1.119140625 l 5
 733.408203125 709.119140625 l 5
 739.408203125 709.119140625 l 5
 745.408203125 709.119140625 l 5
 555.100585938 -1.119140625 l 5
 549.100585938 -1.119140625 l 5
276.064453125 622 m 5
 281.881835938 625.487304688 l 5
 554.681640625 1.4873046875 l 5
 548.864257812 -2 l 5
 543.046875 -5.4873046875 l 5
 270.247070312 618.512695312 l 5
 276.064453125 622 l 5
EndSplineSet
EndChar

StartChar: O
Encoding: 79 79 45
Width: 664
VWidth: -2434
Flags: HW
LayerCount: 2
Fore
SplineSet
152.674804688 357.904296875 m 5
 138.1484375 222.189453125 l 5
 166.618164062 106.802734375 l 5
 233.483398438 29.43359375 l 5
 332.627929688 1.21484375 l 5
 446.895507812 29.43359375 l 5
 555.223632812 106.802734375 l 5
 645.52734375 222.189453125 l 5
 703.732421875 357.904296875 l 5
 718.5234375 494.614257812 l 5
 690.0546875 610 l 5
 623.189453125 687.37109375 l 5
 524.044921875 715.592773438 l 5
 409.77734375 687.37109375 l 5
 301.44921875 610 l 5
 211.14453125 494.614257812 l 5
 152.674804688 357.904296875 l 5
140.91796875 358.817382812 m 6
 200.181640625 497.40625 l 6
 200.447265625 498.034179688 200.899414062 498.766601562 201.267578125 499.23828125 c 6
 293.036132812 616.495117188 l 6
 293.549804688 617.150390625 294.275390625 617.823242188 294.869140625 618.247070312 c 6
 405.560546875 697.305664062 l 6
 406.421875 697.920898438 407.447265625 698.38671875 408.346679688 698.608398438 c 6
 525.728515625 727.599609375 l 6
 526.801757812 727.865234375 527.884765625 727.859375 528.796875 727.599609375 c 6
 630.641601562 698.608398438 l 6
 631.4765625 698.37109375 632.233398438 697.880859375 632.73046875 697.305664062 c 6
 701.0546875 618.247070312 l 6
 701.4765625 617.758789062 701.80859375 617.063476562 701.948242188 616.495117188 c 6
 730.87890625 499.23828125 l 6
 731.017578125 498.673828125 731.04296875 497.930664062 730.982421875 497.40625 c 6
 715.9765625 358.817382812 l 6
 715.91015625 358.224609375 715.694335938 357.48046875 715.487304688 356.990234375 c 6
 656.490234375 219.397460938 l 6
 656.225585938 218.76953125 655.774414062 218.037109375 655.405273438 217.565429688 c 6
 563.635742188 100.307617188 l 6
 563.124023438 99.65234375 562.396484375 98.9794921875 561.803710938 98.556640625 c 6
 451.112304688 19.4990234375 l 6
 450.250976562 18.8828125 449.225585938 18.4169921875 448.325195312 18.1953125 c 6
 330.9453125 -10.7919921875 l 6
 329.872070312 -11.056640625 328.7890625 -11.0517578125 327.876953125 -10.7919921875 c 6
 226.030273438 18.1953125 l 6
 225.196289062 18.4326171875 224.439453125 18.9228515625 223.942382812 19.4990234375 c 6
 155.618164062 98.556640625 l 6
 155.196289062 99.0439453125 154.864257812 99.7392578125 154.723632812 100.307617188 c 6
 125.793945312 217.565429688 l 6
 125.654296875 218.129882812 125.629882812 218.873046875 125.689453125 219.397460938 c 6
 140.428710938 356.990234375 l 6
 140.49609375 357.583984375 140.7109375 358.327148438 140.91796875 358.817382812 c 6
541.05078125 537.904296875 m 5
 392.970703125 653 l 5
 310.947265625 591.170898438 l 5
 183.892578125 384 l 5
 225.241210938 292 l 5
 326.4765625 180.47265625 l 5
 498.651367188 92 l 5
 582.1484375 164.703125 l 5
 674.947265625 336.407226562 l 5
 624.022460938 433 l 5
 541.05078125 537.904296875 l 5
544.640625 543.904296875 m 5
 548.971679688 546.72265625 l 5
 635.08203125 441.407226562 l 6
 635.849609375 440.696289062 636.302734375 439.428710938 636.427734375 438.1875 c 6
 687.3828125 338.241210938 l 6
 687.64453125 337.540039062 687.170898438 336.396484375 686.749023438 335.487304688 c 6
 592.35546875 160.348632812 l 6
 591.6953125 159.194335938 590.642578125 157.922851562 589.461914062 156.948242188 c 6
 501.654296875 81.240234375 l 6
 500.369140625 80.3447265625 498.42578125 79.6708984375 496.825195312 79.8203125 c 6
 319.970703125 168.728515625 l 6
 318.860351562 169.188476562 317.290039062 169.487304688 316.637695312 170.599609375 c 6
 213.384765625 285.140625 l 6
 212.90234375 285.860351562 213.140625 287.451171875 212.684570312 288.314453125 c 6
 171.705078125 383.64453125 l 6
 171.391601562 384.375 172.18359375 385.646484375 172.767578125 386.584960938 c 6
 301.791992188 596.9140625 l 6
 302.33984375 597.833984375 303.537109375 598.909179688 304.627929688 599.725585938 c 6
 391.586914062 664.821289062 l 6
 392.65625 665.482421875 394.450195312 667 395.741210938 667 c 6
 546.249023438 549.904296875 l 5
 544.640625 543.904296875 l 5
EndSplineSet
EndChar

StartChar: P
Encoding: 80 80 46
Width: 530
VWidth: -2447
Flags: HW
LayerCount: 2
Fore
SplineSet
306.041015625 684.139648438 m 5
 307.6484375 690.139648438 l 5
 461.573242188 603 l 5
 459.965820312 597 l 5
 458.358398438 591 l 5
 304.43359375 678.139648438 l 5
 306.041015625 684.139648438 l 5
459.965820312 597 m 5
 462.98046875 602.821289062 l 5
 543.538085938 531.86328125 l 6
 544.938476562 530.951171875 546.373046875 529.643554688 546.713867188 528.059570312 c 6
 592.411132812 468.19140625 l 6
 592.999023438 467.421875 592.106445312 465.514648438 591.516601562 464.469726562 c 6
 556.219726562 414.036132812 l 6
 555.106445312 412.4453125 553.55078125 411.068359375 551.942382812 410.278320312 c 6
 471.067382812 370.538085938 l 6
 470.200195312 370.185546875 469.2109375 370 468.44140625 370 c 6
 255.291992188 494.740234375 l 5
 256.899414062 500.740234375 l 5
 258.506835938 506.740234375 l 5
 470.356445312 382 l 5
 547.109375 420.069335938 l 5
 578.328125 464 l 5
 534.6015625 521 l 5
 456.951171875 591.178710938 l 5
 459.965820312 597 l 5
120.107421875 0.400390625 m 1
 114.107421875 0.400390625 l 1
 297.27734375 684 l 1
 303.27734375 684 l 1
 309.27734375 684 l 1
 126.107421875 0.400390625 l 1
 120.107421875 0.400390625 l 1
93.6123046875 0.0478515625 m 1
 87.6123046875 0.0478515625 l 1
 278.044921875 710.752929688 l 1
 284.044921875 710.752929688 l 1
 290.044921875 710.752929688 l 1
 99.6123046875 0.0478515625 l 1
 93.6123046875 0.0478515625 l 1
212.49609375 345.200195312 m 1
 214.103515625 351.200195312 l 1
 454.6875 351.200195312 l 1
 492.618164062 367.92578125 l 1
 554.147460938 406.350585938 l 1
 620.754882812 493.083984375 l 1
 625.40234375 490.400390625 l 1
 630.049804688 487.716796875 l 1
 562.469726562 399.716796875 l 2
 561.875976562 398.942382812 561.02734375 398.15625 560.13671875 397.600585938 c 2
 496.725585938 358.000976562 l 2
 496.469726562 357.840820312 496.008789062 357.588867188 495.658203125 357.434570312 c 2
 455.7421875 339.833984375 l 2
 454.86328125 339.446289062 453.815429688 339.200195312 452.888671875 339.200195312 c 2
 210.888671875 339.200195312 l 1
 212.49609375 345.200195312 l 1
283.951171875 710.400390625 m 1
 285.55859375 716.400390625 l 1
 487.958984375 716.400390625 l 2
 488.07421875 716.400390625 488.234375 716.39453125 488.319335938 716.389648438 c 2
 577.595703125 710.889648438 l 2
 578.55078125 710.830078125 579.45703125 710.5078125 580.12109375 710.025390625 c 2
 633.0546875 671.525390625 l 2
 633.862304688 670.938476562 634.46484375 669.869140625 634.646484375 669.083984375 c 2
 651.23828125 597.583984375 l 2
 651.397460938 596.900390625 651.38671875 596.0390625 651.260742188 595.373046875 c 2
 631.510742188 490.873046875 l 1
 625.40234375 490.400390625 l 1
 619.293945312 489.927734375 l 1
 638.82421875 593.262695312 l 1
 622.833984375 662.172851562 l 1
 572.198242188 699.000976562 l 1
 484.561523438 704.400390625 l 1
 282.342773438 704.400390625 l 1
 283.951171875 710.400390625 l 1
EndSplineSet
EndChar

StartChar: Q
Encoding: 81 81 47
Width: 681
VWidth: -2434
Flags: HW
LayerCount: 2
Fore
SplineSet
541.05078125 537.904296875 m 5
 392.970703125 653 l 5
 310.947265625 591.170898438 l 5
 183.892578125 384 l 5
 225.241210938 292 l 5
 326.4765625 180.47265625 l 5
 498.651367188 92 l 5
 582.1484375 164.703125 l 5
 674.947265625 336.407226562 l 5
 624.022460938 433 l 5
 541.05078125 537.904296875 l 5
544.640625 543.904296875 m 5
 548.971679688 546.72265625 l 5
 635.08203125 441.407226562 l 6
 635.849609375 440.696289062 636.302734375 439.428710938 636.427734375 438.1875 c 6
 687.3828125 338.241210938 l 6
 687.64453125 337.540039062 687.170898438 336.396484375 686.749023438 335.487304688 c 6
 592.35546875 160.348632812 l 6
 591.6953125 159.194335938 590.642578125 157.922851562 589.461914062 156.948242188 c 6
 501.654296875 81.240234375 l 6
 500.369140625 80.3447265625 498.42578125 79.6708984375 496.825195312 79.8203125 c 6
 319.970703125 168.728515625 l 6
 318.860351562 169.188476562 317.290039062 169.487304688 316.637695312 170.599609375 c 6
 213.384765625 285.140625 l 6
 212.90234375 285.860351562 213.140625 287.451171875 212.684570312 288.314453125 c 6
 171.705078125 383.64453125 l 6
 171.391601562 384.375 172.18359375 385.646484375 172.767578125 386.584960938 c 6
 301.791992188 596.9140625 l 6
 302.33984375 597.833984375 303.537109375 598.909179688 304.627929688 599.725585938 c 6
 391.586914062 664.821289062 l 6
 392.65625 665.482421875 394.450195312 667 395.741210938 667 c 6
 546.249023438 549.904296875 l 5
 544.640625 543.904296875 l 5
152.674804688 357.904296875 m 1
 138.1484375 222.189453125 l 1
 166.618164062 106.802734375 l 1
 233.483398438 29.43359375 l 1
 332.627929688 1.21484375 l 1
 446.895507812 29.43359375 l 1
 555.223632812 106.802734375 l 1
 645.52734375 222.189453125 l 1
 703.732421875 357.904296875 l 1
 718.5234375 494.614257812 l 1
 690.0546875 610 l 1
 623.189453125 687.37109375 l 1
 524.044921875 715.592773438 l 1
 409.77734375 687.37109375 l 1
 301.44921875 610 l 1
 211.14453125 494.614257812 l 1
 152.674804688 357.904296875 l 1
140.91796875 358.817382812 m 2
 200.181640625 497.40625 l 2
 200.447265625 498.034179688 200.899414062 498.766601562 201.267578125 499.23828125 c 2
 293.036132812 616.495117188 l 2
 293.549804688 617.150390625 294.275390625 617.823242188 294.869140625 618.247070312 c 2
 405.560546875 697.305664062 l 2
 406.421875 697.920898438 407.447265625 698.38671875 408.346679688 698.608398438 c 2
 525.728515625 727.599609375 l 2
 526.801757812 727.865234375 527.884765625 727.859375 528.796875 727.599609375 c 2
 630.641601562 698.608398438 l 2
 631.4765625 698.37109375 632.233398438 697.880859375 632.73046875 697.305664062 c 2
 701.0546875 618.247070312 l 2
 701.4765625 617.758789062 701.80859375 617.063476562 701.948242188 616.495117188 c 2
 730.87890625 499.23828125 l 2
 731.017578125 498.673828125 731.04296875 497.930664062 730.982421875 497.40625 c 2
 715.9765625 358.817382812 l 2
 715.91015625 358.224609375 715.694335938 357.48046875 715.487304688 356.990234375 c 2
 656.490234375 219.397460938 l 2
 656.225585938 218.76953125 655.774414062 218.037109375 655.405273438 217.565429688 c 2
 563.635742188 100.307617188 l 2
 563.124023438 99.65234375 562.396484375 98.9794921875 561.803710938 98.556640625 c 2
 451.112304688 19.4990234375 l 2
 450.250976562 18.8828125 449.225585938 18.4169921875 448.325195312 18.1953125 c 2
 330.9453125 -10.7919921875 l 2
 329.872070312 -11.056640625 328.7890625 -11.0517578125 327.876953125 -10.7919921875 c 2
 226.030273438 18.1953125 l 2
 225.196289062 18.4326171875 224.439453125 18.9228515625 223.942382812 19.4990234375 c 2
 155.618164062 98.556640625 l 2
 155.196289062 99.0439453125 154.864257812 99.7392578125 154.723632812 100.307617188 c 2
 125.793945312 217.565429688 l 2
 125.654296875 218.129882812 125.629882812 218.873046875 125.689453125 219.397460938 c 2
 140.428710938 356.990234375 l 2
 140.49609375 357.583984375 140.7109375 358.327148438 140.91796875 358.817382812 c 2
381.6875 -2.2958984375 m 1
 383.294921875 3.7041015625 l 1
 603.294921875 3.7041015625 l 1
 601.6875 -2.2958984375 l 1
 600.080078125 -8.2958984375 l 1
 380.080078125 -8.2958984375 l 1
 381.6875 -2.2958984375 l 1
388.76171875 24.1044921875 m 1
 390.369140625 30.1044921875 l 1
 610.369140625 30.1044921875 l 1
 608.76171875 24.1044921875 l 1
 607.154296875 18.1044921875 l 1
 387.154296875 18.1044921875 l 1
 388.76171875 24.1044921875 l 1
EndSplineSet
EndChar

StartChar: R
Encoding: 82 82 48
Width: 571
VWidth: -2447
Flags: HW
LayerCount: 2
Fore
SplineSet
306.041015625 684.139648438 m 1
 307.6484375 690.139648438 l 1
 461.573242188 603 l 1
 459.965820312 597 l 1
 458.358398438 591 l 1
 304.43359375 678.139648438 l 1
 306.041015625 684.139648438 l 1
459.965820312 597 m 1
 462.98046875 602.821289062 l 1
 543.538085938 531.86328125 l 2
 544.938476562 530.951171875 546.373046875 529.643554688 546.713867188 528.059570312 c 2
 592.411132812 468.19140625 l 2
 592.999023438 467.421875 592.106445312 465.514648438 591.516601562 464.469726562 c 2
 556.219726562 414.036132812 l 2
 555.106445312 412.4453125 553.55078125 411.068359375 551.942382812 410.278320312 c 2
 471.067382812 370.538085938 l 2
 470.200195312 370.185546875 469.2109375 370 468.44140625 370 c 2
 255.291992188 494.740234375 l 1
 256.899414062 500.740234375 l 1
 258.506835938 506.740234375 l 1
 470.356445312 382 l 1
 547.109375 420.069335938 l 1
 578.328125 464 l 1
 534.6015625 521 l 1
 456.951171875 591.178710938 l 1
 459.965820312 597 l 1
212.49609375 345.200195312 m 1
 214.103515625 351.200195312 l 1
 454.6875 351.200195312 l 1
 492.618164062 367.92578125 l 1
 554.147460938 406.350585938 l 1
 620.754882812 493.083984375 l 1
 625.40234375 490.400390625 l 1
 630.049804688 487.716796875 l 1
 562.469726562 399.716796875 l 2
 561.875976562 398.942382812 561.02734375 398.15625 560.13671875 397.600585938 c 2
 496.725585938 358.000976562 l 2
 496.469726562 357.840820312 496.008789062 357.588867188 495.658203125 357.434570312 c 2
 455.7421875 339.833984375 l 2
 454.86328125 339.446289062 453.815429688 339.200195312 452.888671875 339.200195312 c 2
 210.888671875 339.200195312 l 1
 212.49609375 345.200195312 l 1
283.951171875 710.400390625 m 1
 285.55859375 716.400390625 l 1
 487.958984375 716.400390625 l 2
 488.07421875 716.400390625 488.234375 716.39453125 488.319335938 716.389648438 c 2
 577.595703125 710.889648438 l 2
 578.55078125 710.830078125 579.45703125 710.5078125 580.12109375 710.025390625 c 2
 633.0546875 671.525390625 l 2
 633.862304688 670.938476562 634.46484375 669.869140625 634.646484375 669.083984375 c 2
 651.23828125 597.583984375 l 2
 651.397460938 596.900390625 651.38671875 596.0390625 651.260742188 595.373046875 c 2
 631.510742188 490.873046875 l 1
 625.40234375 490.400390625 l 1
 619.293945312 489.927734375 l 1
 638.82421875 593.262695312 l 1
 622.833984375 662.172851562 l 1
 572.198242188 699.000976562 l 1
 484.561523438 704.400390625 l 1
 282.342773438 704.400390625 l 1
 283.951171875 710.400390625 l 1
119.571289062 -1.599609375 m 1
 113.571289062 -1.599609375 l 1
 297.27734375 684 l 1
 303.27734375 684 l 1
 309.27734375 684 l 1
 125.571289062 -1.599609375 l 1
 119.571289062 -1.599609375 l 1
93.076171875 -1.9521484375 m 1
 87.076171875 -1.9521484375 l 1
 278.044921875 710.752929688 l 1
 284.044921875 710.752929688 l 1
 290.044921875 710.752929688 l 1
 99.076171875 -1.9521484375 l 1
 93.076171875 -1.9521484375 l 1
454.49609375 345.200195312 m 1
 460.670898438 347.377929688 l 1
 499.74609375 0.578125 l 1
 493.571289062 -1.599609375 l 1
 487.397460938 -3.77734375 l 1
 448.321289062 343.022460938 l 1
 454.49609375 345.200195312 l 1
258.696289062 345.200195312 m 5
 264.87109375 347.377929688 l 5
 468.946289062 0.578125 l 1
 462.771484375 -1.599609375 l 1
 456.59765625 -3.77734375 l 1
 252.521484375 343.022460938 l 5
 258.696289062 345.200195312 l 5
EndSplineSet
EndChar

StartChar: S
Encoding: 83 83 49
Width: 559
VWidth: -2442
Flags: HW
LayerCount: 2
Fore
SplineSet
623.646484375 608.581054688 m 5
 618.1484375 604.510742188 l 5
 564.081054688 687 l 5
 465.70703125 717.034179688 l 5
 351.235351562 687 l 5
 252.96484375 604.510742188 l 5
 249.646484375 608.581054688 l 5
 246.329101562 612.651367188 l 5
 346.083007812 696.384765625 l 6
 346.826171875 697.008789062 348.170898438 697.788085938 349.318359375 698.088867188 c 6
 467.294921875 729.04296875 l 6
 468.173828125 729.2734375 469.567382812 729.34375 470.553710938 729.04296875 c 6
 571.94140625 698.088867188 l 6
 572.697265625 697.858398438 573.73046875 697.19921875 574.263671875 696.384765625 c 6
 629.145507812 612.651367188 l 5
 623.646484375 608.581054688 l 5
482.375976562 115.850585938 m 5
 485.598632812 111.701171875 l 5
 417.80859375 64.505859375 l 6
 416.8125 63.791015625 415.435546875 63.0771484375 414.631835938 62.87109375 c 6
 411.205078125 61.9921875 l 6
 410.088867188 61.7060546875 408.6171875 61.333984375 408.014648438 61.9921875 c 6
 250.908203125 151.87109375 l 6
 250.137695312 152.311523438 249.143554688 152.727539062 248.608398438 153.505859375 c 6
 132.009765625 267.83203125 l 5
 137.455078125 271.981445312 l 5
 142.901367188 276.130859375 l 5
 258.67578125 163 l 5
 412.828125 74 l 5
 412.828125 74 l 5
 479.154296875 120 l 5
 482.375976562 115.850585938 l 5
249.646484375 608.581054688 m 5
 255.734375 608.950195312 l 5
 238.153320312 523.715820312 l 5
 239.279296875 419.25 l 5
 293.934570312 346.348632812 l 5
 338.868164062 313 l 5
 335.864257812 307.17578125 l 5
 332.860351562 301.3515625 l 5
 286.762695312 335.009765625 l 6
 286.233398438 335.403320312 285.321289062 335.59375 284.797851562 336.112304688 c 6
 228.543945312 410.599609375 l 6
 228.073242188 411.068359375 227.64453125 411.786132812 227.452148438 412.53125 c 6
 225.741210938 519.2734375 l 6
 225.569335938 519.9453125 225.540039062 520.854492188 225.712890625 521.694335938 c 6
 243.55859375 608.211914062 l 5
 249.646484375 608.581054688 l 5
482.375976562 115.850585938 m 5
 476.30078125 115.541992188 l 5
 504.426757812 177 l 5
 444.14453125 217 l 5
 391.3203125 257.502929688 l 5
 333.086914062 301.297851562 l 5
 335.864257812 307.17578125 l 5
 338.641601562 313.053710938 l 5
 398.115234375 268.991210938 l 6
 398.720703125 268.708007812 399.651367188 268.446289062 400.213867188 267.922851562 c 6
 454.755859375 225.818359375 l 6
 455.26953125 225.338867188 455.525390625 224.254882812 455.9296875 223.8359375 c 6
 516.841796875 181.473632812 l 6
 517.4140625 181.1953125 517.344726562 179.76171875 516.866210938 178.955078125 c 6
 488.450195312 116.159179688 l 5
 482.375976562 115.850585938 l 5
90.5107421875 96.78125 m 5
 95.6806640625 101.28515625 l 5
 183.688476562 24.8056640625 l 5
 343.549804688 11.912109375 l 5
 452.228515625 67.3525390625 l 5
 539.272460938 169.602539062 l 5
 549.791992188 320.033203125 l 5
 450.294921875 413.302734375 l 5
 359.41015625 486.75 l 6
 357.767578125 487.086914062 356.541015625 488.254882812 356.116210938 489.698242188 c 6
 249.439453125 561.639648438 l 6
 248.046875 563.006835938 249.758789062 566.120117188 251.35546875 567.909179688 c 6
 336.35546875 663.13671875 l 6
 337.860351562 664.74609375 340.12109375 665.703125 341.69921875 665.797851562 c 6
 481.52734375 572.169921875 l 6
 482.361328125 571.611328125 484.3984375 571.7734375 485.2890625 570.866210938 c 6
 588.994140625 465.266601562 l 5
 583.990234375 460.581054688 l 5
 578.986328125 455.895507812 l 5
 476.69921875 560.051757812 l 5
 339.166992188 650 l 5
 263.955078125 566.315429688 l 5
 367.438476562 498 l 5
 456.766601562 424.87109375 l 6
 457.1796875 424.533203125 458.064453125 424.458984375 458.57421875 424.079101562 c 6
 560.665039062 328.87890625 l 6
 561.659179688 328.138671875 562.427734375 326.650390625 562.337890625 325.026367188 c 6
 551.551757812 169.826171875 l 6
 551.471679688 168.3984375 550.813476562 166.83984375 549.721679688 165.557617188 c 6
 459.826171875 59.9580078125 l 6
 459.096679688 59.1015625 458.138671875 58.3349609375 457.122070312 57.81640625 c 6
 344.995117188 0.6162109375 l 6
 343.966796875 0.0908203125 342.461914062 -0.2978515625 341.251953125 -0.2001953125 c 6
 177.588867188 13 l 6
 176.48828125 13.0888671875 175.240234375 13.6171875 174.493164062 14.4775390625 c 6
 85.33984375 92.27734375 l 5
 90.5107421875 96.78125 l 5
EndSplineSet
EndChar

StartChar: T
Encoding: 84 84 50
Width: 424
VWidth: -2448
Flags: HW
LayerCount: 2
Fore
SplineSet
226.396484375 -3 m 1
 220.396484375 -3 l 1
 385.345703125 612.599609375 l 5
 391.345703125 612.599609375 l 5
 397.345703125 612.599609375 l 5
 232.396484375 -3 l 1
 226.396484375 -3 l 1
199.99609375 -3 m 1
 193.99609375 -3 l 1
 358.9453125 612.599609375 l 5
 364.9453125 612.599609375 l 5
 370.9453125 612.599609375 l 5
 205.99609375 -3 l 1
 199.99609375 -3 l 1
206.244140625 710 m 1
 207.8515625 716 l 1
 603.8515625 716 l 1
 602.244140625 710 l 1
 600.63671875 704 l 1
 204.63671875 704 l 1
 206.244140625 710 l 1
199.169921875 683.599609375 m 1
 200.77734375 689.599609375 l 1
 560.068359375 552.599609375 l 1
 558.4609375 546.599609375 l 1
 556.853515625 540.599609375 l 1
 197.5625 677.599609375 l 1
 199.169921875 683.599609375 l 1
EndSplineSet
EndChar

StartChar: U
Encoding: 85 85 51
Width: 613
VWidth: -2437
Flags: HW
LayerCount: 2
Fore
SplineSet
573.811523438 165 m 5
 578.8203125 162.82421875 l 5
 531.23046875 90.400390625 l 6
 530.813476562 89.767578125 530.192382812 89.0771484375 529.697265625 88.6416015625 c 6
 464.826171875 31.5615234375 l 6
 464.25390625 31.05859375 463.486328125 30.5615234375 462.922851562 30.2822265625 c 6
 387.201171875 -7.138671875 l 6
 386.521484375 -7.474609375 385.677734375 -7.734375 385.08203125 -7.8349609375 c 6
 304.938476562 -21.267578125 l 6
 304.23046875 -21.3857421875 303.412109375 -21.3681640625 302.864257812 -21.267578125 c 6
 229.91796875 -7.8349609375 l 6
 229.28125 -7.716796875 228.596679688 -7.423828125 228.171875 -7.138671875 c 6
 172.504882812 30.2822265625 l 6
 172.013671875 30.6123046875 171.54296875 31.13671875 171.287109375 31.5615234375 c 6
 137.00390625 88.6416015625 l 6
 136.696289062 89.154296875 136.478515625 89.8623046875 136.4140625 90.400390625 c 6
 127.63671875 162.82421875 l 5
 133.811523438 165 l 5
 139.986328125 167.17578125 l 5
 148.646484375 95.7236328125 l 5
 181.991210938 40.203125 l 5
 236.137695312 3.8046875 l 5
 307.1171875 -9.265625 l 5
 385.100585938 3.8046875 l 5
 458.752929688 40.203125 l 5
 521.8515625 95.7236328125 l 5
 568.802734375 167.17578125 l 5
 573.811523438 165 l 5
721.18359375 715 m 5
 727.18359375 715 l 5
 579.811523438 165 l 5
 573.811523438 165 l 5
 567.811523438 165 l 5
 715.18359375 715 l 5
 721.18359375 715 l 5
694.783203125 715 m 5
 700.783203125 715 l 5
 548.051757812 145 l 5
 542.051757812 145 l 5
 536.051757812 145 l 5
 688.783203125 715 l 5
 694.783203125 715 l 5
281.18359375 715 m 5
 287.18359375 715 l 5
 139.811523438 165 l 5
 133.811523438 165 l 5
 127.811523438 165 l 5
 275.18359375 715 l 5
 281.18359375 715 l 5
307.583984375 715 m 5
 313.583984375 715 l 5
 199.4375 289 l 5
 193.4375 289 l 5
 187.4375 289 l 5
 301.583984375 715 l 5
 307.583984375 715 l 5
193.4375 289 m 5
 199.353515625 292.244140625 l 5
 253.784179688 201.16796875 l 5
 341.172851562 135 l 5
 479.115234375 90 l 5
 537.541992188 147.857421875 l 5
 542.051757812 145 l 5
 546.561523438 142.142578125 l 5
 480.408203125 77.5712890625 l 6
 479.638671875 76.6201171875 478.310546875 75.1669921875 477.037109375 75.015625 c 6
 338.663085938 124.302734375 l 6
 337.8046875 124.608398438 335.95703125 123.57421875 334.740234375 123.838867188 c 6
 245.87890625 189.922851562 l 6
 244.91796875 190.561523438 243.264648438 191.173828125 242.747070312 192.555664062 c 6
 187.521484375 285.755859375 l 5
 193.4375 289 l 5
EndSplineSet
EndChar

StartChar: V
Encoding: 86 86 52
Width: 596
VWidth: -2448
Flags: HW
LayerCount: 2
Fore
SplineSet
221.63671875 704 m 1
 227.818359375 706.106445312 l 1
 253.778320312 503 l 5
 428.322265625 199 l 1
 422.139648438 196.893554688 l 1
 415.95703125 194.787109375 l 1
 241.604492188 497 l 5
 215.454101562 701.893554688 l 1
 221.63671875 704 l 1
195.236328125 704 m 1
 201.41796875 706.106445312 l 1
 276.782226562 2.1064453125 l 1
 270.599609375 0 l 1
 264.416992188 -2.1064453125 l 1
 189.053710938 701.893554688 l 1
 195.236328125 704 l 1
749.63671875 704 m 1
 754.690429688 701.893554688 l 1
 427.713867188 193 l 1
 422.66015625 195.106445312 l 1
 417.606445312 197.212890625 l 1
 744.58203125 706.106445312 l 1
 749.63671875 704 l 1
776.037109375 704 m 1
 781.090820312 701.893554688 l 1
 328.454101562 -2.1064453125 l 1
 323.400390625 0 l 1
 318.346679688 2.1064453125 l 1
 770.982421875 706.106445312 l 1
 776.037109375 704 l 1
EndSplineSet
EndChar

StartChar: W
Encoding: 87 87 53
Width: 801
VWidth: -2448
Flags: HW
LayerCount: 2
Fore
SplineSet
234.63671875 704 m 1
 240.84375 705.3515625 l 1
 237.6875 484 l 5
 335.987304688 250 l 1
 329.779296875 248.6484375 l 1
 323.571289062 247.296875 l 1
 225.223632812 480 l 5
 228.428710938 702.6484375 l 1
 234.63671875 704 l 1
208.236328125 704 m 1
 214.443359375 705.3515625 l 1
 188.608398438 1.3515625 l 1
 182.400390625 0 l 1
 176.192382812 -1.3515625 l 1
 202.028320312 702.6484375 l 1
 208.236328125 704 l 1
938.63671875 704 m 1
 944.120117188 702.6484375 l 1
 717.5234375 252 l 1
 712.040039062 253.3515625 l 1
 706.555664062 254.703125 l 1
 933.15234375 705.3515625 l 1
 938.63671875 704 l 1
965.037109375 704 m 1
 970.520507812 702.6484375 l 1
 619.083007812 -1.3515625 l 1
 613.599609375 0 l 1
 608.116210938 1.3515625 l 1
 959.552734375 705.3515625 l 1
 965.037109375 704 l 1
613.037109375 704 m 1
 619.244140625 705.3515625 l 1
 616.615234375 480 l 5
 718.247070312 254.703125 l 1
 712.040039062 253.3515625 l 1
 705.83203125 252 l 1
 604.188476562 477 l 5
 606.829101562 702.6484375 l 1
 613.037109375 704 l 1
586.63671875 704 m 1
 592.84375 705.3515625 l 1
 567.0078125 1.3515625 l 1
 560.799804688 0 l 1
 554.591796875 -1.3515625 l 1
 580.428710938 702.6484375 l 1
 586.63671875 704 l 1
560.236328125 704 m 1
 565.719726562 702.6484375 l 1
 335.262695312 247.296875 l 1
 329.779296875 248.6484375 l 1
 324.295898438 250 l 1
 554.751953125 705.3515625 l 1
 560.236328125 704 l 1
586.63671875 704 m 1
 592.120117188 702.6484375 l 1
 240.68359375 -1.3515625 l 1
 235.200195312 0 l 1
 229.716796875 1.3515625 l 1
 581.15234375 705.3515625 l 1
 586.63671875 704 l 1
EndSplineSet
EndChar

StartChar: X
Encoding: 88 88 54
Width: 551
VWidth: -2448
Flags: HW
LayerCount: 2
Fore
SplineSet
265.83203125 701 m 1
 271.772460938 704.1796875 l 1
 460.844726562 451 l 5
 523.135742188 0.1796875 l 1
 517.196289062 -3 l 1
 511.255859375 -6.1796875 l 1
 449.55078125 443 l 5
 259.892578125 697.8203125 l 1
 265.83203125 701 l 1
235.032226562 701 m 1
 240.97265625 704.1796875 l 1
 299.150390625 273 l 1
 492.3359375 0.1796875 l 1
 486.396484375 -3 l 1
 480.456054688 -6.1796875 l 1
 289.998046875 259 l 1
 229.092773438 697.8203125 l 1
 235.032226562 701 l 1
665.6328125 701 m 1
 669.869140625 697.8203125 l 1
 41.232421875 -6.1796875 l 1
 36.9970703125 -3 l 1
 32.7607421875 0.1796875 l 1
 661.397460938 704.1796875 l 1
 665.6328125 701 l 1
696.432617188 701 m 1
 700.668945312 697.8203125 l 1
 72.0322265625 -6.1796875 l 1
 67.796875 -3 l 1
 63.560546875 0.1796875 l 1
 692.197265625 704.1796875 l 1
 696.432617188 701 l 1
EndSplineSet
EndChar

StartChar: Y
Encoding: 89 89 55
Width: 550
VWidth: -2448
Flags: HW
LayerCount: 2
Fore
SplineSet
184.568359375 703 m 5
 190.540039062 706.086914062 l 5
 336.642578125 266.086914062 l 5
 330.670898438 263 l 5
 324.69921875 259.913085938 l 5
 178.596679688 699.913085938 l 5
 184.568359375 703 l 5
215.368164062 703 m 5
 220.440429688 707 l 5
 471.654296875 431.086914062 l 5
 465.682617188 428 l 5
 459.7109375 424.913085938 l 5
 209.396484375 699.913085938 l 5
 215.368164062 703 l 5
738.96875 703 m 5
 743.286132812 699.913085938 l 5
 361.388671875 259.913085938 l 5
 357.071289062 263 l 5
 352.75390625 266.086914062 l 5
 734.651367188 706.086914062 l 5
 738.96875 703 l 5
708.168945312 703 m 5
 712.486328125 699.913085938 l 5
 469.778320312 424.086914062 l 5
 465.4609375 427.173828125 l 5
 461.143554688 430.260742188 l 5
 703.8515625 706.086914062 l 5
 708.168945312 703 l 5
259.932617188 -1 m 5
 253.932617188 -1 l 5
 324.670898438 263 l 5
 330.670898438 263 l 5
 336.670898438 263 l 5
 265.932617188 -1 l 5
 259.932617188 -1 l 5
286.333007812 -1 m 5
 280.333007812 -1 l 5
 351.071289062 263 l 5
 357.071289062 263 l 5
 363.071289062 263 l 5
 292.333007812 -1 l 5
 286.333007812 -1 l 5
EndSplineSet
EndChar

StartChar: Z
Encoding: 90 90 56
Width: 585
VWidth: -2448
Flags: HW
LayerCount: 2
Fore
SplineSet
533.49609375 543 m 1
 531.888671875 537 l 1
 247.686523438 670.599609375 l 1
 249.293945312 676.599609375 l 1
 250.90234375 682.599609375 l 1
 535.104492188 549 l 1
 533.49609375 543 l 1
69.607421875 6 m 1
 65.216796875 9.001953125 l 1
 524.705078125 546.001953125 l 1
 529.095703125 543 l 1
 533.487304688 539.998046875 l 1
 73.9990234375 2.998046875 l 1
 69.607421875 6 l 1
69.607421875 6 m 1
 71.2158203125 12 l 1
 511.215820312 12 l 1
 509.607421875 6 l 1
 508 0 l 1
 68 0 l 1
 69.607421875 6 l 1
256.368164062 703 m 1
 257.975585938 709 l 1
 697.975585938 709 l 2
 701.424804688 709 703.415039062 705.967773438 702.223632812 702.529296875 c 0
 701.9140625 701.63671875 701.229492188 700.547851562 700.758789062 699.998046875 c 2
 247.283203125 169 l 5
 518.2890625 38.400390625 l 1
 516.681640625 32.400390625 l 1
 515.07421875 26.400390625 l 1
 233.670898438 157 l 6
 233.099609375 157 231.938476562 157.204101562 231.2421875 157.5859375 c 4
 228.528320312 159.071289062 228.361328125 163.016601562 230.887695312 166.001953125 c 6
 684.36328125 697 l 1
 254.760742188 697 l 1
 256.368164062 703 l 1
EndSplineSet
EndChar

StartChar: bracketleft
Encoding: 91 91 57
Width: 281
VWidth: -2448
Flags: HW
LayerCount: 2
Fore
SplineSet
239.875976562 7 m 5
 238.267578125 1 l 5
 62.267578125 1 l 6
 58.6357421875 1 57.185546875 4.4248046875 57.8759765625 7 c 6
 246.51171875 711 l 6
 247.485351562 714.631835938 251.543945312 717 254.119140625 717 c 6
 430.119140625 717 l 5
 428.51171875 711 l 5
 426.904296875 705 l 5
 256.904296875 705 l 5
 71.4833984375 13 l 5
 241.483398438 13 l 5
 239.875976562 7 l 5
245.575195312 36.48046875 m 5
 243.966796875 30.48046875 l 5
 130.498046875 132.48046875 l 6
 126.866210938 132.48046875 125.416015625 135.905273438 126.10546875 138.48046875 c 6
 270.43359375 677.119140625 l 6
 271.40625 680.750976562 275.465820312 683.119140625 278.041015625 683.119140625 c 6
 387.758789062 567.119140625 l 5
 386.151367188 561.119140625 l 5
 384.543945312 555.119140625 l 5
 278.4140625 662.119140625 l 5
 139.713867188 144.48046875 l 5
 247.182617188 42.48046875 l 5
 245.575195312 36.48046875 l 5
EndSplineSet
EndChar

StartChar: backslash
Encoding: 92 92 58
Width: 471
VWidth: -2380
Flags: HW
LayerCount: 2
Fore
SplineSet
389.927734375 -4 m 1
 383.841796875 -6.6826171875 l 1
 179.637695312 873.317382812 l 1
 185.723632812 876 l 1
 191.80859375 878.68359375 l 1
 396.013671875 -1.31640625 l 1
 389.927734375 -4 l 1
420.728515625 -4 m 1
 414.642578125 -6.6826171875 l 1
 210.438476562 873.317382812 l 1
 216.524414062 876 l 1
 222.609375 878.68359375 l 1
 426.814453125 -1.31640625 l 1
 420.728515625 -4 l 1
EndSplineSet
EndChar

StartChar: bracketright
Encoding: 93 93 59
Width: 281
VWidth: -2448
Flags: HW
LayerCount: 2
Fore
SplineSet
246.51171875 711 m 5
 248.119140625 717 l 5
 424.119140625 717 l 6
 427.750976562 717 429.202148438 713.575195312 428.51171875 711 c 6
 239.875976562 7 l 6
 238.90234375 3.3681640625 234.842773438 1 232.267578125 1 c 6
 56.267578125 1 l 5
 57.8759765625 7 l 5
 59.4833984375 13 l 5
 229.483398438 13 l 5
 414.904296875 705 l 5
 244.904296875 705 l 5
 246.51171875 711 l 5
240.8125 681.51953125 m 5
 242.420898438 687.51953125 l 5
 355.889648438 585.51953125 l 6
 359.521484375 585.51953125 360.971679688 582.094726562 360.282226562 579.51953125 c 6
 215.954101562 40.880859375 l 6
 214.98046875 37.2490234375 210.921875 34.880859375 208.346679688 34.880859375 c 6
 98.62890625 150.880859375 l 5
 100.236328125 156.880859375 l 5
 101.84375 162.880859375 l 5
 207.973632812 55.880859375 l 5
 346.673828125 573.51953125 l 5
 239.205078125 675.51953125 l 5
 240.8125 681.51953125 l 5
EndSplineSet
EndChar

StartChar: asciicircum
Encoding: 94 94 60
Width: 433
VWidth: -2646
Flags: HW
LayerCount: 2
Fore
SplineSet
190.870117188 539.7578125 m 5
 187.764648438 544 l 5
 418.547851562 754 l 5
 421.654296875 749.7578125 l 5
 424.759765625 745.514648438 l 5
 193.975585938 535.514648438 l 5
 190.870117188 539.7578125 l 5
213.733398438 526.55859375 m 5
 210.627929688 530.80078125 l 5
 316.6640625 622 l 5
 319.76953125 617.7578125 l 5
 322.875976562 613.514648438 l 5
 216.83984375 522.315429688 l 5
 213.733398438 526.55859375 l 5
542.870117188 539.7578125 m 5
 537.490234375 535.514648438 l 5
 416.274414062 745.514648438 l 5
 421.654296875 749.7578125 l 5
 427.033203125 754 l 5
 548.25 544 l 5
 542.870117188 539.7578125 l 5
512.932617188 526.55859375 m 5
 507.553710938 522.315429688 l 5
 314.390625 613.514648438 l 5
 319.76953125 617.7578125 l 5
 325.149414062 622 l 5
 518.3125 530.80078125 l 5
 512.932617188 526.55859375 l 5
EndSplineSet
EndChar

StartChar: underscore
Encoding: 95 95 61
Width: 537
VWidth: -2709
Flags: HW
LayerCount: 2
Fore
SplineSet
54.392578125 -6 m 1
 56 0 l 1
 496 0 l 1
 494.392578125 -6 l 1
 492.784179688 -12 l 1
 52.7841796875 -12 l 1
 54.392578125 -6 l 1
47.318359375 -32.400390625 m 1
 48.92578125 -26.400390625 l 1
 488.92578125 -26.400390625 l 1
 487.318359375 -32.400390625 l 1
 485.7109375 -38.400390625 l 1
 45.7109375 -38.400390625 l 1
 47.318359375 -32.400390625 l 1
EndSplineSet
EndChar

StartChar: grave
Encoding: 96 96 62
Width: 452
VWidth: -2658
Flags: HW
LayerCount: 2
Fore
SplineSet
303.62890625 828.485351562 m 5
 307.469726562 834 l 5
 580.100585938 702 l 5
 576.259765625 696.485351562 l 5
 572.418945312 690.970703125 l 5
 299.788085938 822.970703125 l 5
 303.62890625 828.485351562 l 5
253.724609375 675.084960938 m 5
 257.565429688 680.599609375 l 5
 564.225585938 675.599609375 l 5
 560.384765625 670.084960938 l 5
 556.543945312 664.5703125 l 5
 249.883789062 669.5703125 l 5
 253.724609375 675.084960938 l 5
EndSplineSet
EndChar

StartChar: a
Encoding: 97 97 63
Width: 625
VWidth: -2521
Flags: HW
LayerCount: 2
Fore
SplineSet
571.0078125 235.930664062 m 5
 566.439453125 230.861328125 l 5
 443.729492188 361 l 5
 307.43359375 442 l 5
 224.141601562 370 l 5
 177.09765625 284 l 5
 267.211914062 165 l 5
 442.61328125 62 l 5
 518.204101562 115.907226562 l 5
 520.341796875 111 l 5
 522.48046875 106.092773438 l 5
 448.951171875 52.45703125 l 6
 447.70703125 51.720703125 441.46875 49.16015625 440.609375 49.873046875 c 6
 259.547851562 150.244140625 l 6
 258.334960938 150.916992188 257.344726562 154.732421875 256.581054688 155.754882812 c 6
 164.729492188 278.6875 l 6
 163.887695312 279.052734375 163.939453125 281.09375 164.598632812 282.322265625 c 6
 212.856445312 372.44140625 l 6
 213.348632812 373.627929688 214.16015625 375.079101562 215.286132812 376.169921875 c 6
 302.318359375 451.509765625 l 6
 303.534179688 452.561523438 305.466796875 454.09765625 306.5859375 453.55859375 c 6
 447.490234375 373.192382812 l 6
 448.524414062 372.842773438 450.787109375 373.421875 451.315429688 372.322265625 c 6
 575.576171875 241 l 5
 571.0078125 235.930664062 l 5
512.8671875 1 m 5
 506.8671875 1 l 5
 636.5546875 485 l 5
 642.5546875 485 l 5
 648.5546875 485 l 5
 518.8671875 1 l 5
 512.8671875 1 l 5
539.267578125 1 m 5
 533.267578125 1 l 5
 662.955078125 485 l 5
 668.955078125 485 l 5
 674.955078125 485 l 5
 545.267578125 1 l 5
 539.267578125 1 l 5
618.975585938 397 m 5
 613.452148438 392.966796875 l 5
 575.614257812 452.091796875 l 5
 518.006835938 488.76953125 l 5
 445.767578125 501.624023438 l 5
 364.517578125 488.497070312 l 5
 285.32421875 450.282226562 l 5
 218.837890625 393.038085938 l 5
 170.04296875 322.315429688 l 5
 143.596679688 242.6171875 l 5
 137.7109375 243 l 5
 131.825195312 243.3828125 l 5
 158.608398438 324.094726562 l 6
 158.793945312 324.651367188 159.170898438 325.434570312 159.590820312 326.044921875 c 6
 209.666015625 398.624023438 l 6
 210.013671875 399.126953125 210.603515625 399.803710938 211.166015625 400.2890625 c 6
 279.3984375 459.036132812 l 6
 279.881835938 459.452148438 280.634765625 459.96484375 281.299804688 460.286132812 c 6
 362.543945312 499.490234375 l 6
 363.111328125 499.764648438 363.943359375 500.046875 364.631835938 500.158203125 c 6
 447.986328125 513.625 l 6
 448.5625 513.717773438 449.368164062 513.735351562 449.990234375 513.624023438 c 6
 524.125976562 500.432617188 l 6
 524.639648438 500.341796875 525.327148438 500.098632812 525.815429688 499.788085938 c 6
 584.934570312 462.147460938 l 6
 585.353515625 461.880859375 585.864257812 461.400390625 586.178710938 460.91015625 c 6
 624.498046875 401.033203125 l 5
 618.975585938 397 l 5
542.341796875 111 m 5
 545.923828125 107.16015625 l 5
 478.61328125 46.015625 l 6
 478.0546875 45.5087890625 477.30078125 45.0009765625 476.747070312 44.7138671875 c 6
 399.609375 4.7529296875 l 6
 398.963867188 4.4189453125 398.150390625 4.14453125 397.587890625 4.029296875 c 6
 317.430664062 -12.3076171875 l 6
 316.748046875 -12.4462890625 315.943359375 -12.4658203125 315.409179688 -12.3974609375 c 6
 239.033203125 -2.677734375 l 6
 238.393554688 -2.5966796875 237.693359375 -2.3486328125 237.254882812 -2.09765625 c 6
 175.4453125 33.265625 l 6
 174.932617188 33.55859375 174.424804688 34.0419921875 174.141601562 34.439453125 c 6
 134.69921875 89.7919921875 l 6
 134.369140625 90.255859375 134.106445312 90.9111328125 134.002929688 91.4033203125 c 6
 119.276367188 161.330078125 l 6
 119.150390625 161.92578125 119.154296875 162.698242188 119.240234375 163.251953125 c 6
 131.569335938 242.33203125 l 5
 137.7109375 243 l 5
 143.853515625 243.66796875 l 5
 131.680664062 165.595703125 l 5
 146.026367188 97.482421875 l 5
 184.4453125 43.5654296875 l 5
 244.672851562 9.107421875 l 5
 319.092773438 -0.36328125 l 5
 397.170898438 15.5498046875 l 5
 472.307617188 54.474609375 l 5
 538.760742188 114.83984375 l 5
 542.341796875 111 l 5
EndSplineSet
EndChar

StartChar: b
Encoding: 98 98 64
Width: 625
VWidth: -2419
Flags: HW
LayerCount: 2
Fore
SplineSet
248.486328125 389.200195312 m 1
 246.34765625 394.107421875 l 1
 336.963867188 459.95703125 l 2
 338.22265625 460.702148438 340.133789062 461.56640625 340.8671875 461.047851562 c 2
 487.143554688 358.92578125 l 2
 488.227539062 358.090820312 490.0625 357.6640625 490.97265625 356.845703125 c 2
 615.236328125 236 l 2
 615.994140625 235.270507812 616.236328125 233.471679688 615.682617188 232.244140625 c 2
 572.791992188 137.103515625 l 2
 572.37109375 135.671875 571.469726562 134.264648438 570.393554688 133.158203125 c 2
 473.583984375 48.357421875 l 2
 472.112304688 47.068359375 469.734375 45.431640625 468.635742188 46.1484375 c 2
 314.802734375 143.897460938 l 2
 313.684570312 144.388671875 311.6953125 144.669921875 311.017578125 145.295898438 c 2
 198.43359375 261.8125 l 1
 203.524414062 266.40625 l 1
 208.614257812 271 l 1
 319.799804688 156 l 1
 468.541015625 58 l 1
 561.245117188 139 l 1
 603.084960938 229.783203125 l 1
 480.978515625 347 l 1
 339.309570312 449 l 1
 250.624023438 384.29296875 l 1
 248.486328125 389.200195312 l 1
131.536132812 2 m 1
 125.536132812 2 l 1
 331.856445312 772 l 1
 337.856445312 772 l 1
 343.856445312 772 l 1
 137.536132812 2 l 1
 131.536132812 2 l 1
105.135742188 2 m 1
 99.1357421875 2 l 1
 305.456054688 772 l 1
 311.456054688 772 l 1
 317.456054688 772 l 1
 111.135742188 2 l 1
 105.135742188 2 l 1
237.643554688 398 m 1
 234.282226562 402.033203125 l 1
 304.69140625 461.915039062 l 2
 305.268554688 462.405273438 306.037109375 462.885742188 306.599609375 463.15234375 c 2
 385.888671875 500.788085938 l 2
 386.541992188 501.098632812 387.360351562 501.341796875 387.922851562 501.432617188 c 2
 469.127929688 514.624023438 l 2
 469.809570312 514.735351562 470.60546875 514.717773438 471.131835938 514.625 c 2
 547.26953125 501.159179688 l 2
 547.8984375 501.047851562 548.579101562 500.765625 549 500.491210938 c 2
 609.234375 461.286132812 l 2
 609.727539062 460.96484375 610.204101562 460.452148438 610.46484375 460.036132812 c 2
 647.215820312 401.293945312 l 2
 647.51953125 400.80859375 647.74609375 400.131835938 647.82421875 399.62890625 c 2
 659.00390625 327.045898438 l 2
 659.096679688 326.435546875 659.053710938 325.65234375 658.94140625 325.095703125 c 2
 642.470703125 244.3828125 l 1
 636.379882812 244 l 1
 630.2890625 243.6171875 l 1
 646.553710938 323.31640625 l 1
 635.659179688 394.04296875 l 1
 599.848632812 451.282226562 l 1
 541.134765625 489.498046875 l 1
 466.919921875 502.624023438 l 1
 387.791992188 489.76953125 l 1
 310.530273438 453.096679688 l 1
 241.005859375 393.966796875 l 1
 237.643554688 398 l 1
161.010742188 112 m 1
 166.649414062 115.83984375 l 1
 200.752929688 55.474609375 l 1
 255.029296875 16.5498046875 l 1
 324.580078125 0.6376953125 l 1
 404.075195312 10.107421875 l 1
 482.768554688 44.5654296875 l 1
 550.08203125 98.482421875 l 1
 600.9296875 166.596679688 l 1
 630.595703125 244.66796875 l 1
 636.379882812 244 l 1
 642.163085938 243.33203125 l 1
 612.114257812 164.252929688 l 2
 611.903320312 163.69921875 611.493164062 162.926757812 611.047851562 162.331054688 c 2
 558.84765625 92.4033203125 l 2
 558.48046875 91.9111328125 557.866210938 91.255859375 557.288085938 90.7919921875 c 2
 488.181640625 35.439453125 l 2
 487.685546875 35.0419921875 486.918945312 34.55859375 486.249023438 34.265625 c 2
 405.48828125 -1.09765625 l 2
 404.916015625 -1.3486328125 404.083007812 -1.5966796875 403.399414062 -1.677734375 c 2
 321.814453125 -11.396484375 l 2
 321.243164062 -11.46484375 320.450195312 -11.4453125 319.841796875 -11.306640625 c 2
 248.439453125 5.029296875 l 2
 247.938476562 5.14453125 247.271484375 5.4189453125 246.8046875 5.7529296875 c 2
 191.083007812 45.7138671875 l 2
 190.682617188 46.0009765625 190.201171875 46.5087890625 189.9140625 47.015625 c 2
 155.37109375 108.16015625 l 1
 161.010742188 112 l 1
EndSplineSet
EndChar

StartChar: c
Encoding: 99 99 65
Width: 560
VWidth: -2521
Flags: HW
LayerCount: 2
Fore
SplineSet
565.0078125 235.930664062 m 5
 560.439453125 230.861328125 l 5
 437.729492188 361 l 5
 301.43359375 442 l 5
 218.141601562 370 l 5
 171.09765625 284 l 5
 261.211914062 165 l 5
 436.61328125 62 l 5
 512.204101562 115.907226562 l 5
 514.341796875 111 l 5
 516.48046875 106.092773438 l 5
 442.951171875 52.45703125 l 6
 441.70703125 51.720703125 435.46875 49.16015625 434.609375 49.873046875 c 6
 253.547851562 150.244140625 l 6
 252.334960938 150.916992188 251.344726562 154.732421875 250.581054688 155.754882812 c 6
 158.729492188 278.6875 l 6
 157.887695312 279.052734375 157.939453125 281.09375 158.598632812 282.322265625 c 6
 206.856445312 372.44140625 l 6
 207.348632812 373.627929688 208.16015625 375.079101562 209.286132812 376.169921875 c 6
 296.318359375 451.509765625 l 6
 297.534179688 452.561523438 299.466796875 454.09765625 300.5859375 453.55859375 c 6
 441.490234375 373.192382812 l 6
 442.524414062 372.842773438 444.787109375 373.421875 445.315429688 372.322265625 c 6
 569.576171875 241 l 5
 565.0078125 235.930664062 l 5
616.068359375 401.23046875 m 5
 610.544921875 397.197265625 l 5
 572.70703125 456.322265625 l 5
 515.098632812 493 l 5
 442.858398438 505.854492188 l 5
 361.610351562 492.727539062 l 5
 282.416992188 454.512695312 l 5
 215.930664062 397.268554688 l 5
 167.135742188 326.545898438 l 5
 140.689453125 246.84765625 l 5
 134.803710938 247.23046875 l 5
 128.918945312 247.61328125 l 5
 155.702148438 328.325195312 l 6
 155.88671875 328.881835938 156.262695312 329.665039062 156.68359375 330.275390625 c 6
 206.758789062 402.854492188 l 6
 207.106445312 403.357421875 207.696289062 404.034179688 208.259765625 404.51953125 c 6
 276.4921875 463.266601562 l 6
 276.975585938 463.682617188 277.727539062 464.1953125 278.392578125 464.516601562 c 6
 359.63671875 503.720703125 l 6
 360.204101562 503.995117188 361.036132812 504.27734375 361.724609375 504.388671875 c 6
 445.078125 517.85546875 l 6
 445.654296875 517.948242188 446.458984375 517.965820312 447.08203125 517.854492188 c 6
 521.217773438 504.663085938 l 6
 521.733398438 504.572265625 522.419921875 504.329101562 522.908203125 504.018554688 c 6
 582.02734375 466.377929688 l 6
 582.446289062 466.111328125 582.958007812 465.630859375 583.270507812 465.140625 c 6
 621.590820312 405.263671875 l 5
 616.068359375 401.23046875 l 5
539.434570312 115.23046875 m 5
 543.015625 111.390625 l 5
 475.706054688 50.24609375 l 6
 475.146484375 49.7392578125 474.393554688 49.2314453125 473.838867188 48.9443359375 c 6
 396.702148438 8.9833984375 l 6
 396.056640625 8.6494140625 395.243164062 8.375 394.6796875 8.259765625 c 6
 314.5234375 -8.0771484375 l 6
 313.840820312 -8.2158203125 313.036132812 -8.2353515625 312.501953125 -8.1669921875 c 6
 236.125 1.552734375 l 6
 235.484375 1.6337890625 234.784179688 1.8818359375 234.346679688 2.1328125 c 6
 172.537109375 37.49609375 l 6
 172.024414062 37.7890625 171.516601562 38.2724609375 171.234375 38.6708984375 c 6
 131.791992188 94.0234375 l 6
 131.461914062 94.486328125 131.19921875 95.1416015625 131.095703125 95.6337890625 c 6
 116.368164062 165.560546875 l 6
 116.243164062 166.15625 116.247070312 166.928710938 116.333007812 167.482421875 c 6
 128.662109375 246.5625 l 5
 134.803710938 247.23046875 l 5
 140.9453125 247.8984375 l 5
 128.7734375 169.826171875 l 5
 143.119140625 101.712890625 l 5
 181.537109375 47.7958984375 l 5
 241.764648438 13.337890625 l 5
 316.185546875 3.8671875 l 5
 394.263671875 19.7802734375 l 5
 469.399414062 58.705078125 l 5
 535.853515625 119.0703125 l 5
 539.434570312 115.23046875 l 5
EndSplineSet
EndChar

StartChar: d
Encoding: 100 100 66
Width: 624
VWidth: -2419
Flags: HW
LayerCount: 2
Fore
SplineSet
569.0078125 235.930664062 m 5
 564.439453125 230.861328125 l 5
 441.729492188 361 l 5
 305.43359375 442 l 5
 222.141601562 370 l 5
 175.09765625 284 l 5
 265.211914062 165 l 5
 440.61328125 62 l 5
 516.204101562 115.907226562 l 5
 518.341796875 111 l 5
 520.48046875 106.092773438 l 5
 446.951171875 52.45703125 l 6
 445.70703125 51.720703125 439.46875 49.16015625 438.609375 49.873046875 c 6
 257.547851562 150.244140625 l 6
 256.334960938 150.916992188 255.344726562 154.732421875 254.581054688 155.754882812 c 6
 162.729492188 278.6875 l 6
 161.887695312 279.052734375 161.939453125 281.09375 162.598632812 282.322265625 c 6
 210.856445312 372.44140625 l 6
 211.348632812 373.627929688 212.16015625 375.079101562 213.286132812 376.169921875 c 6
 300.318359375 451.509765625 l 6
 301.534179688 452.561523438 303.466796875 454.09765625 304.5859375 453.55859375 c 6
 445.490234375 373.192382812 l 6
 446.524414062 372.842773438 448.787109375 373.421875 449.315429688 372.322265625 c 6
 573.576171875 241 l 5
 569.0078125 235.930664062 l 5
510.599609375 0 m 5
 504.599609375 0 l 5
 710.920898438 770 l 5
 716.920898438 770 l 5
 722.920898438 770 l 5
 516.599609375 0 l 5
 510.599609375 0 l 5
537 0 m 5
 531 0 l 5
 737.321289062 770 l 5
 743.321289062 770 l 5
 749.321289062 770 l 5
 543 0 l 5
 537 0 l 5
616.70703125 396 m 5
 611.184570312 391.966796875 l 5
 573.34765625 451.096679688 l 5
 515.73828125 487.76953125 l 5
 443.499023438 500.624023438 l 5
 362.25 487.498046875 l 5
 283.056640625 449.282226562 l 5
 216.571289062 392.04296875 l 5
 167.775390625 321.31640625 l 5
 141.329101562 241.6171875 l 5
 135.443359375 242 l 5
 129.557617188 242.3828125 l 5
 156.340820312 323.095703125 l 6
 156.526367188 323.65234375 156.903320312 324.435546875 157.323242188 325.045898438 c 6
 207.399414062 397.62890625 l 6
 207.747070312 398.131835938 208.336914062 398.80859375 208.900390625 399.293945312 c 6
 277.131835938 458.036132812 l 6
 277.615234375 458.452148438 278.3671875 458.96484375 279.032226562 459.286132812 c 6
 360.276367188 498.491210938 l 6
 360.84375 498.765625 361.67578125 499.047851562 362.364257812 499.159179688 c 6
 445.71875 512.625 l 6
 446.293945312 512.717773438 447.099609375 512.735351562 447.72265625 512.624023438 c 6
 521.857421875 499.432617188 l 6
 522.37109375 499.341796875 523.059570312 499.098632812 523.545898438 498.788085938 c 6
 582.666992188 461.15234375 l 6
 583.086914062 460.885742188 583.59765625 460.405273438 583.911132812 459.915039062 c 6
 622.23046875 400.033203125 l 5
 616.70703125 396 l 5
540.07421875 110 m 5
 543.655273438 106.16015625 l 5
 476.344726562 45.015625 l 6
 475.786132812 44.5087890625 475.033203125 44.0009765625 474.478515625 43.7138671875 c 6
 397.341796875 3.7529296875 l 6
 396.696289062 3.4189453125 395.8828125 3.14453125 395.319335938 3.029296875 c 6
 315.163085938 -13.306640625 l 6
 314.48046875 -13.4453125 313.676757812 -13.46484375 313.141601562 -13.396484375 c 6
 236.765625 -3.677734375 l 6
 236.125 -3.5966796875 235.424804688 -3.3486328125 234.987304688 -3.09765625 c 6
 173.177734375 32.265625 l 6
 172.6640625 32.55859375 172.157226562 33.0419921875 171.874023438 33.439453125 c 6
 132.431640625 88.7919921875 l 6
 132.1015625 89.255859375 131.838867188 89.9111328125 131.735351562 90.4033203125 c 6
 117.008789062 160.331054688 l 6
 116.8828125 160.926757812 116.88671875 161.69921875 116.97265625 162.252929688 c 6
 129.301757812 241.33203125 l 5
 135.443359375 242 l 5
 141.584960938 242.66796875 l 5
 129.413085938 164.596679688 l 5
 143.758789062 96.482421875 l 5
 182.177734375 42.5654296875 l 5
 242.405273438 8.107421875 l 5
 316.825195312 -1.3623046875 l 5
 394.903320312 14.5498046875 l 5
 470.0390625 53.474609375 l 5
 536.4921875 113.83984375 l 5
 540.07421875 110 l 5
EndSplineSet
EndChar

StartChar: e
Encoding: 101 101 67
Width: 584
VWidth: -2519
Flags: HW
LayerCount: 2
Fore
SplineSet
597.99609375 255.66015625 m 5
 596.388671875 249.66015625 l 5
 178.388671875 249.66015625 l 5
 179.99609375 255.66015625 l 5
 181.603515625 261.66015625 l 5
 599.603515625 261.66015625 l 5
 597.99609375 255.66015625 l 5
605.0703125 282.060546875 m 5
 603.461914062 276.060546875 l 5
 185.461914062 276.060546875 l 5
 187.0703125 282.060546875 l 5
 188.677734375 288.060546875 l 5
 606.677734375 288.060546875 l 5
 605.0703125 282.060546875 l 5
597.99609375 255.66015625 m 5
 591.904296875 255.271484375 l 5
 604.680664062 318.159179688 l 5
 599.809570312 375.749023438 l 5
 578.221679688 425.786132812 l 5
 540.672851562 465.1875 l 5
 490.280273438 489.970703125 l 5
 431.9921875 498.23046875 l 5
 369.278320312 489.970703125 l 5
 305.604492188 465.1875 l 5
 246.940429688 425.786132812 l 5
 198.538085938 375.749023438 l 5
 162.805664062 318.159179688 l 5
 141.87890625 255.271484375 l 5
 135.99609375 255.66015625 l 5
 130.112304688 256.047851562 l 5
 151.313476562 319.76171875 l 6
 151.458007812 320.194335938 151.758789062 320.86328125 152.072265625 321.368164062 c 6
 188.768554688 380.510742188 l 6
 189.018554688 380.915039062 189.477539062 381.520507812 189.897460938 381.955078125 c 6
 239.60546875 433.341796875 l 6
 239.950195312 433.697265625 240.537109375 434.205078125 241.04296875 434.544921875 c 6
 301.275390625 475 l 6
 301.689453125 475.27734375 302.364257812 475.645507812 302.916992188 475.860351562 c 6
 368.291992188 501.305664062 l 6
 368.737304688 501.479492188 369.440429688 501.67578125 369.991210938 501.748046875 c 6
 434.396484375 510.23046875 l 6
 434.836914062 510.288085938 435.513671875 510.301757812 436.01953125 510.23046875 c 6
 495.879882812 501.748046875 l 6
 496.293945312 501.689453125 496.90625 501.51953125 497.340820312 501.305664062 c 6
 549.081054688 475.860351562 l 6
 549.435546875 475.686523438 549.93359375 475.341796875 550.259765625 475 c 6
 588.8125 434.544921875 l 6
 589.075195312 434.26953125 589.416015625 433.78125 589.60546875 433.341796875 c 6
 611.776367188 381.955078125 l 6
 611.926757812 381.603515625 612.088867188 381.010742188 612.130859375 380.510742188 c 6
 617.131835938 321.368164062 l 6
 617.166992188 320.958984375 617.139648438 320.296875 617.030273438 319.76171875 c 6
 604.086914062 256.047851562 l 5
 597.99609375 255.66015625 l 5
536.875976562 109.66015625 m 5
 540.408203125 105.775390625 l 5
 470.1328125 42.8818359375 l 6
 469.551757812 42.3623046875 468.774414062 41.8525390625 468.1953125 41.5634765625 c 6
 387.877929688 1.568359375 l 6
 387.208984375 1.2353515625 386.375976562 0.9736328125 385.791992188 0.87109375 c 6
 302.952148438 -13.7080078125 l 6
 302.249023438 -13.83203125 301.432617188 -13.8232421875 300.88671875 -13.7294921875 c 6
 223.022460938 -0.3876953125 l 6
 222.372070312 -0.2763671875 221.676757812 0.0126953125 221.2421875 0.2998046875 c 6
 160.07421875 40.6513671875 l 6
 159.568359375 40.984375 159.086914062 41.515625 158.825195312 41.9521484375 c 6
 122.454101562 102.577148438 l 6
 122.151367188 103.083007812 121.93359375 103.78125 121.868164062 104.307617188 c 6
 112.411132812 178.974609375 l 6
 112.331054688 179.608398438 112.3984375 180.4140625 112.536132812 180.9921875 c 6
 129.94921875 255.474609375 l 5
 135.99609375 255.66015625 l 5
 142.04296875 255.844726562 l 5
 124.876953125 182.407226562 l 5
 134.08984375 109.66796875 l 5
 169.521484375 50.607421875 l 5
 229.131835938 11.2841796875 l 5
 305.013671875 -1.7177734375 l 5
 385.713867188 12.484375 l 5
 463.958007812 51.447265625 l 5
 533.342773438 113.543945312 l 5
 536.875976562 109.66015625 l 5
580.735351562 253.618164062 m 5
 574.5234375 252 l 5
 523.293945312 281 l 5
 423.502929688 374.815429688 l 5
 323.787109375 452.373046875 l 5
 187.860351562 328.298828125 l 5
 218.700195312 234 l 5
 299.9765625 138 l 5
 440.077148438 60 l 5
 512.751953125 114.575195312 l 5
 514.875976562 109.66015625 l 5
 516.999023438 104.744140625 l 5
 441.896484375 48.73828125 l 6
 440.599609375 47.9736328125 438.206054688 47.162109375 437.130859375 47.748046875 c 6
 292.350585938 126.629882812 l 6
 291.451171875 127.09765625 289.896484375 128.219726562 289.139648438 129.12890625 c 6
 206.346679688 228.724609375 l 6
 205.586914062 228.935546875 205.872070312 230.91015625 206.19921875 232.131835938 c 6
 176.439453125 330.459960938 l 6
 176.104492188 331.563476562 177.661132812 333.20703125 178.841796875 334.28515625 c 6
 318.631835938 461.885742188 l 6
 319.68359375 462.845703125 322.088867188 464.798828125 323.14453125 464.021484375 c 6
 427.696289062 387 l 6
 429.178710938 387.1640625 430.922851562 386.534179688 431.576171875 385.920898438 c 6
 534.276367188 289.536132812 l 6
 535.4609375 289.586914062 535.194335938 286.573242188 535.69140625 286.271484375 c 6
 586.9453125 255.235351562 l 5
 580.735351562 253.618164062 l 5
EndSplineSet
EndChar

StartChar: f
Encoding: 102 102 68
Width: 365
VWidth: -2431
Flags: HW
LayerCount: 2
Fore
SplineSet
132.360351562 1.5400390625 m 1
 126.360351562 1.5400390625 l 1
 285.521484375 595.540039062 l 1
 291.521484375 595.540039062 l 1
 297.521484375 595.540039062 l 1
 138.360351562 1.5400390625 l 1
 132.360351562 1.5400390625 l 1
158.760742188 1.5400390625 m 1
 152.760742188 1.5400390625 l 1
 311.921875 595.540039062 l 1
 317.921875 595.540039062 l 1
 323.921875 595.540039062 l 1
 164.760742188 1.5400390625 l 1
 158.760742188 1.5400390625 l 1
317.921875 595.540039062 m 1
 313.077148438 597.95703125 l 1
 390.951171875 707.95703125 l 2
 392.26171875 709.807617188 394.43359375 711.125 396.32421875 711.447265625 c 2
 525.418945312 733.447265625 l 1
 524.890625 727.540039062 l 1
 524.36328125 721.633789062 l 1
 398.567382812 700.196289062 l 1
 322.766601562 593.124023438 l 1
 317.921875 595.540039062 l 1
174.046875 485.540039062 m 1
 175.655273438 491.540039062 l 1
 439.655273438 491.540039062 l 1
 438.046875 485.540039062 l 1
 436.439453125 479.540039062 l 1
 172.439453125 479.540039062 l 1
 174.046875 485.540039062 l 1
166.973632812 459.139648438 m 1
 168.581054688 465.139648438 l 1
 398.819335938 339.139648438 l 5
 397.211914062 333.139648438 l 5
 395.604492188 327.139648438 l 5
 165.365234375 453.139648438 l 1
 166.973632812 459.139648438 l 1
530.786132812 749.540039062 m 1
 529.221679688 743.540039062 l 1
 456.0859375 743 l 1
 394.16796875 718.251953125 l 1
 341.344726562 669.086914062 l 1
 296.734375 593.692382812 l 1
 291.521484375 595.540039062 l 1
 286.30859375 597.388671875 l 1
 331.543945312 673.838867188 l 2
 331.895507812 674.432617188 332.490234375 675.193359375 333.094726562 675.756835938 c 2
 388.05078125 726.90625 l 2
 388.791992188 727.596679688 389.764648438 728.231445312 390.728515625 728.616210938 c 2
 455.405273438 754.466796875 l 2
 456.158203125 754.768554688 457.127929688 754.984375 457.951171875 754.990234375 c 2
 532.348632812 755.540039062 l 1
 530.786132812 749.540039062 l 1
EndSplineSet
EndChar

StartChar: g
Encoding: 103 103 69
Width: 621
VWidth: -2437
Flags: HW
LayerCount: 2
Fore
SplineSet
568.0078125 235.930664062 m 5
 563.439453125 230.861328125 l 5
 440.729492188 361 l 5
 304.43359375 442 l 5
 221.141601562 370 l 5
 174.09765625 284 l 5
 264.211914062 165 l 5
 439.61328125 62 l 5
 515.204101562 115.907226562 l 5
 517.341796875 111 l 5
 519.48046875 106.092773438 l 5
 445.951171875 52.45703125 l 6
 444.70703125 51.720703125 438.46875 49.16015625 437.609375 49.873046875 c 6
 256.547851562 150.244140625 l 6
 255.334960938 150.916992188 254.344726562 154.732421875 253.581054688 155.754882812 c 6
 161.729492188 278.6875 l 6
 160.887695312 279.052734375 160.939453125 281.09375 161.598632812 282.322265625 c 6
 209.856445312 372.44140625 l 6
 210.348632812 373.627929688 211.16015625 375.079101562 212.286132812 376.169921875 c 6
 299.318359375 451.509765625 l 6
 300.534179688 452.561523438 302.466796875 454.09765625 303.5859375 453.55859375 c 6
 444.490234375 373.192382812 l 6
 445.524414062 372.842773438 447.787109375 373.421875 448.315429688 372.322265625 c 6
 572.576171875 241 l 5
 568.0078125 235.930664062 l 5
645.385742188 509 m 5
 651.385742188 509 l 5
 504.013671875 -41 l 6
 503.838867188 -41.654296875 503.481445312 -42.4345703125 503.162109375 -42.9560546875 c 6
 454.29296875 -122.706054688 l 6
 453.681640625 -123.703125 452.822265625 -124.609375 451.850585938 -125.291015625 c 6
 377.349609375 -177.541015625 l 6
 376.505859375 -178.1328125 375.495117188 -178.5859375 374.625976562 -178.799804688 c 6
 274.494140625 -203.549804688 l 6
 273.92578125 -203.690429688 273.21875 -203.7578125 272.774414062 -203.749023438 c 6
 147.01171875 -200.999023438 l 5
 148.75 -195 l 5
 150.48828125 -189.000976562 l 5
 275.408203125 -191.733398438 l 5
 373.23046875 -167.553710938 l 5
 444.93359375 -117.265625 l 5
 492.283203125 -39.994140625 l 5
 639.385742188 509 l 5
 645.385742188 509 l 5
671.786132812 509 m 5
 677.786132812 509 l 5
 530.4140625 -41 l 5
 524.4140625 -41 l 5
 518.4140625 -41 l 5
 665.786132812 509 l 5
 671.786132812 509 l 5
615.912109375 399 m 5
 610.388671875 394.966796875 l 5
 572.55078125 454.091796875 l 5
 514.942382812 490.76953125 l 5
 442.703125 503.624023438 l 5
 361.454101562 490.498046875 l 5
 282.260742188 452.282226562 l 5
 215.774414062 395.038085938 l 5
 166.979492188 324.31640625 l 5
 140.533203125 244.6171875 l 5
 134.647460938 245 l 5
 128.76171875 245.3828125 l 5
 155.544921875 326.095703125 l 6
 155.73046875 326.65234375 156.107421875 327.435546875 156.52734375 328.045898438 c 6
 206.602539062 400.624023438 l 6
 206.950195312 401.126953125 207.540039062 401.803710938 208.102539062 402.2890625 c 6
 276.334960938 461.036132812 l 6
 276.818359375 461.452148438 277.571289062 461.96484375 278.236328125 462.286132812 c 6
 359.48046875 501.491210938 l 6
 360.047851562 501.765625 360.879882812 502.047851562 361.568359375 502.159179688 c 6
 444.922851562 515.625 l 6
 445.499023438 515.717773438 446.303710938 515.735351562 446.926757812 515.624023438 c 6
 521.061523438 502.432617188 l 6
 521.576171875 502.341796875 522.263671875 502.098632812 522.751953125 501.788085938 c 6
 581.87109375 464.147460938 l 6
 582.290039062 463.880859375 582.80078125 463.400390625 583.114257812 462.91015625 c 6
 621.434570312 403.033203125 l 5
 615.912109375 399 l 5
539.278320312 113 m 5
 542.859375 109.16015625 l 5
 475.549804688 48.015625 l 6
 474.990234375 47.5087890625 474.237304688 47.0009765625 473.682617188 46.7138671875 c 6
 396.545898438 6.7529296875 l 6
 395.900390625 6.4189453125 395.086914062 6.14453125 394.5234375 6.029296875 c 6
 314.3671875 -10.3076171875 l 6
 313.684570312 -10.4462890625 312.87890625 -10.4658203125 312.345703125 -10.3974609375 c 6
 235.969726562 -0.677734375 l 6
 235.329101562 -0.5966796875 234.62890625 -0.3486328125 234.19140625 -0.09765625 c 6
 172.381835938 35.265625 l 6
 171.869140625 35.55859375 171.361328125 36.0419921875 171.078125 36.439453125 c 6
 131.635742188 91.7919921875 l 6
 131.305664062 92.255859375 131.04296875 92.9111328125 130.939453125 93.4033203125 c 6
 116.212890625 163.331054688 l 6
 116.086914062 163.926757812 116.090820312 164.69921875 116.176757812 165.252929688 c 6
 128.505859375 244.33203125 l 5
 134.647460938 245 l 5
 140.7890625 245.66796875 l 5
 128.6171875 167.596679688 l 5
 142.962890625 99.482421875 l 5
 181.381835938 45.5654296875 l 5
 241.609375 11.107421875 l 5
 316.029296875 1.63671875 l 5
 394.106445312 17.5498046875 l 5
 469.244140625 56.474609375 l 5
 535.697265625 116.83984375 l 5
 539.278320312 113 l 5
524.4140625 -41 m 5
 529.364257812 -43.263671875 l 5
 449.131835938 -162.063476562 l 6
 448.240234375 -163.383789062 446.874023438 -164.508789062 445.516601562 -165.125976562 c 6
 310.2109375 -226.725585938 l 6
 309.243164062 -227.166992188 308.173828125 -227.399414062 307.268554688 -227.399414062 c 6
 140.068359375 -227.399414062 l 5
 141.67578125 -221.399414062 l 5
 143.284179688 -215.399414062 l 5
 309.021484375 -215.399414062 l 5
 440.614257812 -155.490234375 l 5
 519.46484375 -38.736328125 l 5
 524.4140625 -41 l 5
EndSplineSet
EndChar

StartChar: h
Encoding: 104 104 70
Width: 628
VWidth: -2524
Flags: HW
LayerCount: 2
Fore
SplineSet
121.536132812 2 m 5
 115.536132812 2 l 5
 321.856445312 772 l 5
 327.856445312 772 l 5
 333.856445312 772 l 5
 127.536132812 2 l 5
 121.536132812 2 l 5
95.1357421875 2 m 5
 89.1357421875 2 l 5
 295.456054688 772 l 5
 301.456054688 772 l 5
 307.456054688 772 l 5
 101.135742188 2 l 5
 95.1357421875 2 l 5
222.123046875 366.200195312 m 1
 220.366210938 371.3203125 l 1
 359.64453125 442.977539062 l 2
 360.564453125 443.459960938 361.932617188 444.165039062 362.491210938 443.8359375 c 2
 498.943359375 357.235351562 l 2
 500.19140625 356.486328125 502.80859375 356.44921875 503.578125 354.940429688 c 2
 583.174804688 251.68359375 l 1
 577.451171875 248 l 1
 571.728515625 244.31640625 l 1
 493.442382812 345 l 1
 358.217773438 430 l 1
 223.879882812 361.080078125 l 1
 222.123046875 366.200195312 l 1
536 0 m 1
 530 0 l 1
 635.5625 393.96484375 l 1
 595.98828125 473.317382812 l 1
 515.71484375 499.791992188 l 1
 392.65234375 472.8515625 l 1
 225.665039062 390.778320312 l 1
 224.107421875 396 l 1
 222.55078125 401.221679688 l 1
 390.407226562 483.721679688 l 2
 390.866210938 483.947265625 391.58984375 484.216796875 392.169921875 484.34375 c 2
 517.7890625 511.84375 l 2
 518.856445312 512.078125 519.939453125 512.045898438 520.861328125 511.7421875 c 2
 604.2421875 484.2421875 l 2
 605.176757812 483.93359375 606.205078125 483.151367188 606.703125 482.150390625 c 2
 647.84765625 399.650390625 l 2
 648.309570312 398.7265625 648.462890625 397.325195312 648.107421875 396 c 2
 542 0 l 1
 536 0 l 1
509.599609375 0 m 1
 503.599609375 0 l 1
 567.040039062 239 l 1
 573.040039062 239 l 1
 579.040039062 239 l 1
 515.599609375 0 l 1
 509.599609375 0 l 1
EndSplineSet
EndChar

StartChar: i
Encoding: 105 105 71
Width: 250
VWidth: -2429
Flags: HW
LayerCount: 2
Fore
SplineSet
322.786132812 702 m 1
 329.458007812 692.884765625 l 1
 341.014648438 702 l 1
 334.342773438 711.114257812 l 1
 322.786132812 702 l 1
311.1953125 706.2421875 m 2
 333.510742188 723.841796875 l 2
 336.765625 726.41015625 340.662109375 725.663085938 341.995117188 723.841796875 c 2
 354.87890625 706.2421875 l 2
 356.642578125 703.83203125 355.30078125 699.8828125 352.606445312 697.7578125 c 2
 330.291015625 680.157226562 l 2
 327.034179688 677.588867188 323.137695312 678.3359375 321.8046875 680.157226562 c 2
 308.920898438 697.7578125 l 2
 307.157226562 700.16796875 308.5 704.1171875 311.1953125 706.2421875 c 2
292.866210938 702 m 1
 321.44140625 662.965820312 l 1
 370.934570312 702 l 1
 342.359375 741.033203125 l 1
 292.866210938 702 l 1
281.275390625 706.243164062 m 2
 341.52734375 753.76171875 l 2
 344.583007812 756.170898438 348.456054688 755.88671875 350.01171875 753.76171875 c 2
 384.798828125 706.243164062 l 2
 386.678710938 703.674804688 384.833984375 699.578125 382.525390625 697.7578125 c 2
 322.272460938 650.23828125 l 2
 319.017578125 647.669921875 315.12109375 648.416992188 313.788085938 650.23828125 c 2
 279.001953125 697.7578125 l 2
 277.12109375 700.325195312 278.965820312 704.421875 281.275390625 706.243164062 c 2
178.646484375 504 m 5
 184.646484375 504 l 5
 244.583007812 403 l 5
 136.063476562 -2 l 5
 130.063476562 -2 l 5
 124.063476562 -2 l 5
 232.315429688 402 l 5
 172.646484375 504 l 5
 178.646484375 504 l 5
292.046875 504 m 5
 298.046875 504 l 5
 162.463867188 -2 l 5
 156.463867188 -2 l 5
 150.463867188 -2 l 5
 286.046875 504 l 5
 292.046875 504 l 5
EndSplineSet
EndChar

StartChar: j
Encoding: 106 106 72
Width: 244
VWidth: -2353
Flags: HW
LayerCount: 2
Fore
SplineSet
175.563476562 522.350585938 m 1
 181.563476562 522.350585938 l 1
 249.40625 421 l 1
 129.163085938 -27.7529296875 l 1
 105.012695312 -107.606445312 l 2
 104.736328125 -108.521484375 104.202148438 -109.487304688 103.59765625 -110.237304688 c 2
 61.5478515625 -162.487304688 l 2
 60.623046875 -163.63671875 59.2421875 -164.616210938 58.0888671875 -165.091796875 c 2
 -1.8935546875 -189.841796875 l 2
 -2.8505859375 -190.237304688 -3.904296875 -190.426757812 -4.77734375 -190.395507812 c 2
 -82.689453125 -187.645507812 l 1
 -80.873046875 -181.649414062 l 1
 -79.056640625 -175.653320312 l 1
 -2.5634765625 -178.352539062 l 1
 53.9150390625 -155.048828125 l 1
 93.5537109375 -105.793945312 l 1
 117.21875 -27.5458984375 l 1
 237.138671875 420 l 1
 169.563476562 522.350585938 l 1
 175.563476562 522.350585938 l 1
297.405273438 524 m 1
 303.405273438 524 l 1
 133.927734375 -108.5 l 1
 127.927734375 -108.5 l 1
 121.927734375 -108.5 l 1
 291.405273438 524 l 1
 297.405273438 524 l 1
127.190429688 -111.25 m 1
 131.18359375 -114.690429688 l 1
 46.00390625 -202.690429688 l 2
 44.4658203125 -204.280273438 42.1953125 -205.192382812 40.611328125 -205.24609375 c 2
 -88.16796875 -209.645507812 l 1
 -86.767578125 -203.649414062 l 1
 -85.3681640625 -197.653320312 l 1
 40.3916015625 -193.356445312 l 1
 123.197265625 -107.809570312 l 1
 127.190429688 -111.25 l 1
321.806640625 698.350585938 m 1
 328.479492188 689.235351562 l 1
 340.036132812 698.350585938 l 1
 333.364257812 707.46484375 l 1
 321.806640625 698.350585938 l 1
310.216796875 702.59375 m 2
 332.533203125 720.193359375 l 2
 335.588867188 722.602539062 339.461914062 722.318359375 341.016601562 720.192382812 c 2
 353.900390625 702.592773438 l 2
 355.665039062 700.182617188 354.323242188 696.233398438 351.627929688 694.108398438 c 2
 329.3125 676.5078125 l 2
 326.055664062 673.939453125 322.159179688 674.686523438 320.827148438 676.5078125 c 2
 307.942382812 694.108398438 l 2
 306.0625 696.67578125 307.907226562 700.772460938 310.216796875 702.59375 c 2
291.887695312 698.350585938 m 1
 320.462890625 659.31640625 l 1
 369.955078125 698.350585938 l 1
 341.380859375 737.383789062 l 1
 291.887695312 698.350585938 l 1
280.297851562 702.59375 m 2
 340.549804688 750.112304688 l 2
 343.60546875 752.521484375 347.478515625 752.237304688 349.034179688 750.111328125 c 2
 383.819335938 702.592773438 l 2
 385.583984375 700.18359375 384.2421875 696.233398438 381.546875 694.108398438 c 2
 321.295898438 646.588867188 l 2
 318.0390625 644.020507812 314.142578125 644.767578125 312.810546875 646.588867188 c 2
 278.0234375 694.108398438 l 2
 276.143554688 696.67578125 277.98828125 700.772460938 280.297851562 702.59375 c 2
EndSplineSet
EndChar

StartChar: k
Encoding: 107 107 73
Width: 543
VWidth: -2422
Flags: HW
LayerCount: 2
Fore
SplineSet
125.267578125 1 m 1
 119.267578125 1 l 1
 325.588867188 771 l 1
 331.588867188 771 l 1
 337.588867188 771 l 1
 131.267578125 1 l 1
 125.267578125 1 l 1
98.8681640625 1 m 1
 92.8681640625 1 l 1
 299.189453125 771 l 1
 305.189453125 771 l 1
 311.189453125 771 l 1
 104.868164062 1 l 1
 98.8681640625 1 l 1
172.426757812 177 m 1
 169.13671875 181.09375 l 1
 565.560546875 511.09375 l 1
 568.850585938 507 l 1
 572.139648438 502.90625 l 1
 175.716796875 172.90625 l 1
 172.426757812 177 l 1
207.626953125 177 m 1
 204.336914062 181.09375 l 1
 600.760742188 511.09375 l 1
 604.05078125 507 l 1
 607.33984375 502.90625 l 1
 210.916992188 172.90625 l 1
 207.626953125 177 l 1
500.267578125 1 m 1
 494.840820312 -3.17578125 l 1
 228.965820312 198.82421875 l 1
 234.393554688 203 l 1
 239.821289062 207.17578125 l 1
 505.6953125 5.17578125 l 1
 500.267578125 1 l 1
534.467773438 1 m 1
 529.041015625 -3.17578125 l 1
 382.908203125 326.6484375 l 5
 388.3359375 330.82421875 l 5
 393.762695312 335 l 5
 539.895507812 5.17578125 l 1
 534.467773438 1 l 1
EndSplineSet
EndChar

StartChar: l
Encoding: 108 108 74
Width: 228
VWidth: -2422
Flags: HW
LayerCount: 2
Fore
SplineSet
109.33203125 -1 m 5
 103.33203125 -1 l 5
 277.766601562 650 l 5
 222.65234375 769 l 5
 228.65234375 769 l 5
 234.65234375 769 l 5
 290.034179688 651 l 5
 115.33203125 -1 l 5
 109.33203125 -1 l 5
133.732421875 -1 m 5
 127.732421875 -1 l 5
 334.052734375 769 l 5
 340.052734375 769 l 5
 346.052734375 769 l 5
 139.732421875 -1 l 5
 133.732421875 -1 l 5
EndSplineSet
EndChar

StartChar: m
Encoding: 109 109 75
Width: 1009
VWidth: -2524
Flags: HW
LayerCount: 2
Fore
SplineSet
122.267578125 1 m 1
 116.267578125 1 l 1
 251.850585938 507 l 1
 257.850585938 507 l 1
 263.850585938 507 l 1
 128.267578125 1 l 1
 122.267578125 1 l 1
95.8671875 1 m 1
 89.8671875 1 l 1
 225.450195312 507 l 1
 231.450195312 507 l 1
 237.450195312 507 l 1
 101.8671875 1 l 1
 95.8671875 1 l 1
624.375976562 397 m 1
 618.685546875 393.251953125 l 1
 575.553710938 474.3203125 l 1
 498 500.770507812 l 1
 383.359375 473.909179688 l 1
 230.192382812 391.912109375 l 1
 228.375976562 397 l 1
 226.559570312 402.087890625 l 1
 380.665039062 484.587890625 l 2
 381.172851562 484.859375 381.947265625 485.170898438 382.5859375 485.321289062 c 2
 499.955078125 512.821289062 l 2
 500.828125 513.025390625 502.208984375 513.055664062 503.174804688 512.7265625 c 2
 583.805664062 485.2265625 l 2
 584.657226562 484.936523438 585.672851562 484.184570312 586.171875 483.248046875 c 2
 630.065429688 400.748046875 l 1
 624.375976562 397 l 1
914.267578125 1 m 1
 908.267578125 1 l 1
 1013.81152344 394.895507812 l 1
 971.553710938 474.3203125 l 1
 894 500.770507812 l 1
 779.359375 473.909179688 l 1
 626.192382812 391.912109375 l 1
 624.375976562 397 l 1
 622.559570312 402.087890625 l 1
 776.665039062 484.587890625 l 2
 777.172851562 484.859375 777.947265625 485.170898438 778.5859375 485.321289062 c 2
 895.955078125 512.821289062 l 2
 896.828125 513.025390625 898.208984375 513.055664062 899.174804688 512.7265625 c 2
 979.805664062 485.2265625 l 2
 980.657226562 484.936523438 981.672851562 484.184570312 982.171875 483.248046875 c 2
 1026.06542969 400.748046875 l 2
 1026.578125 399.784179688 1026.7421875 398.366210938 1026.37597656 397 c 2
 920.267578125 1 l 1
 914.267578125 1 l 1
887.8671875 1 m 1
 881.8671875 1 l 1
 940.280273438 219 l 1
 946.280273438 219 l 1
 952.280273438 219 l 1
 893.8671875 1 l 1
 887.8671875 1 l 1
220.123046875 366.200195312 m 1
 218.247070312 371.256835938 l 1
 335.857421875 436.056640625 l 2
 336.990234375 436.673828125 338.439453125 437 339.340820312 437 c 2
 502.40234375 334.400390625 l 2
 503.548828125 333.759765625 505.608398438 333.553710938 506.330078125 332.4140625 c 2
 560.323242188 223.4140625 l 2
 561.016601562 222.31640625 561.174804688 220.842773438 560.788085938 219.400390625 c 2
 502.267578125 1 l 1
 496.267578125 1 l 1
 490.267578125 1 l 1
 548.170898438 217.09765625 l 1
 496.514648438 322.400390625 l 1
 337.877929688 425 l 1
 221.999023438 361.143554688 l 1
 220.123046875 366.200195312 l 1
522.666992188 1 m 1
 516.666992188 1 l 1
 614.522460938 366.200195312 l 2
 615.063476562 368.217773438 616.723632812 370.1484375 618.4921875 371.169921875 c 2
 730.517578125 435.912109375 l 2
 731.629882812 436.548828125 733.073242188 436.912109375 733.966796875 436.939453125 c 2
 895.052734375 333.796875 l 2
 896.15625 333.168945312 898.264648438 333.064453125 899.012695312 332.041992188 c 2
 951.659179688 223.2421875 l 1
 946.280273438 219 l 1
 940.901367188 214.7578125 l 1
 889.59765625 321.721679688 l 1
 732.877929688 425 l 1
 625.668945312 363.014648438 l 1
 528.666992188 1 l 1
 522.666992188 1 l 1
EndSplineSet
EndChar

StartChar: n
Encoding: 110 110 76
Width: 624
VWidth: -2524
Flags: HW
LayerCount: 2
Fore
SplineSet
220.123046875 366.200195312 m 5
 218.366210938 371.3203125 l 5
 357.64453125 442.977539062 l 6
 358.564453125 443.459960938 359.932617188 444.165039062 360.491210938 443.8359375 c 6
 495.603515625 352.235351562 l 6
 496.8515625 351.486328125 499.46875 351.44921875 500.23828125 349.940429688 c 6
 579.834960938 246.68359375 l 5
 574.111328125 243 l 5
 568.388671875 239.31640625 l 5
 490.102539062 340 l 5
 356.217773438 430 l 5
 221.879882812 361.080078125 l 5
 220.123046875 366.200195312 l 5
116 0 m 5
 110 0 l 5
 245.58203125 506 l 5
 251.58203125 506 l 5
 257.58203125 506 l 5
 122 0 l 5
 116 0 l 5
89.599609375 0 m 5
 83.599609375 0 l 5
 219.181640625 506 l 5
 225.181640625 506 l 5
 231.181640625 506 l 5
 95.599609375 0 l 5
 89.599609375 0 l 5
534 0 m 5
 528 0 l 5
 633.5625 393.96484375 l 5
 593.98828125 473.317382812 l 5
 513.71484375 499.791992188 l 5
 390.65234375 472.8515625 l 5
 223.665039062 390.778320312 l 5
 222.107421875 396 l 5
 220.55078125 401.221679688 l 5
 388.407226562 483.721679688 l 6
 388.866210938 483.947265625 389.58984375 484.216796875 390.169921875 484.34375 c 6
 515.7890625 511.84375 l 6
 516.856445312 512.078125 517.939453125 512.045898438 518.861328125 511.7421875 c 6
 602.2421875 484.2421875 l 6
 603.176757812 483.93359375 604.205078125 483.151367188 604.703125 482.150390625 c 6
 645.84765625 399.650390625 l 6
 646.309570312 398.7265625 646.462890625 397.325195312 646.107421875 396 c 6
 540 0 l 5
 534 0 l 5
507.599609375 0 m 5
 501.599609375 0 l 5
 563.700195312 234 l 5
 569.700195312 234 l 5
 575.700195312 234 l 5
 513.599609375 0 l 5
 507.599609375 0 l 5
EndSplineSet
EndChar

StartChar: o
Encoding: 111 111 77
Width: 596
VWidth: -2514
Flags: HW
LayerCount: 2
Fore
SplineSet
141.858398438 255.296875 m 5
 133.295898438 153.860351562 l 5
 161.815429688 71.1904296875 l 5
 221.881835938 15.5947265625 l 5
 308.077148438 -4.7568359375 l 5
 405.178710938 15.5947265625 l 5
 495.038085938 71.1904296875 l 5
 567.861328125 153.860351562 l 5
 613.657226562 255.296875 l 5
 622.221679688 356.733398438 l 5
 593.701171875 439.404296875 l 5
 533.634765625 495 l 5
 447.439453125 515.3515625 l 5
 350.337890625 495 l 5
 260.478515625 439.404296875 l 5
 187.65625 356.733398438 l 5
 141.858398438 255.296875 l 5
130.147460938 256.379882812 m 6
 176.9296875 359.999023438 l 6
 177.252929688 360.716796875 177.791015625 361.513671875 178.265625 362.051757812 c 6
 252.80078125 446.666015625 l 6
 253.37109375 447.313476562 254.154296875 447.954101562 254.79296875 448.349609375 c 6
 347.001953125 505.399414062 l 6
 347.807617188 505.897460938 348.776367188 506.274414062 349.553710938 506.4375 c 6
 449.35546875 527.354492188 l 6
 450.256835938 527.543945312 451.225585938 527.52734375 451.95703125 527.354492188 c 6
 540.547851562 506.4375 l 6
 541.31640625 506.256835938 542.05859375 505.84765625 542.54296875 505.399414062 c 6
 604.1796875 448.349609375 l 6
 604.668945312 447.897460938 605.075195312 447.232421875 605.26953125 446.666015625 c 6
 634.4609375 362.051757812 l 6
 634.67578125 361.4296875 634.75 360.620117188 634.697265625 359.999023438 c 6
 625.950195312 256.379882812 l 6
 625.890625 255.673828125 625.64453125 254.822265625 625.369140625 254.213867188 c 6
 578.586914062 150.594726562 l 6
 578.262695312 149.876953125 577.725585938 149.080078125 577.250976562 148.54296875 c 6
 502.715820312 63.9287109375 l 6
 502.145507812 63.2802734375 501.362304688 62.6396484375 500.723632812 62.244140625 c 6
 408.513671875 5.1943359375 l 6
 407.709960938 4.6962890625 406.740234375 4.3193359375 405.961914062 4.15625 c 6
 306.161132812 -16.7607421875 l 6
 305.258789062 -16.94921875 304.291015625 -16.9326171875 303.559570312 -16.7607421875 c 6
 214.967773438 4.15625 l 6
 214.201171875 4.337890625 213.45703125 4.74609375 212.97265625 5.1943359375 c 6
 151.336914062 62.244140625 l 6
 150.84765625 62.697265625 150.44140625 63.3623046875 150.247070312 63.9287109375 c 6
 121.055664062 148.54296875 l 6
 120.840820312 149.165039062 120.767578125 149.974609375 120.819335938 150.594726562 c 6
 129.56640625 254.213867188 l 6
 129.625976562 254.920898438 129.873046875 255.771484375 130.147460938 256.379882812 c 6
518.513671875 271.154296875 m 5
 439.83984375 357.64453125 l 5
 308.577148438 450 l 5
 227.749023438 376 l 5
 181.45703125 304 l 5
 280.374023438 188 l 5
 458.684570312 66 l 5
 522.796875 126.696289062 l 5
 576.805664062 212 l 5
 518.513671875 271.154296875 l 5
524.685546875 275 m 5
 530.897460938 276.6484375 l 5
 589.255859375 213.703125 l 6
 589.646484375 212.864257812 588.986328125 211.552734375 588.427734375 210.508789062 c 6
 532.572265625 121.750976562 l 6
 531.952148438 120.765625 530.818359375 119.643554688 529.775390625 118.674804688 c 6
 461.251953125 54.990234375 l 6
 459.702148438 53.939453125 457.208984375 52.859375 456.047851562 53.7021484375 c 6
 272.701171875 176.626953125 l 6
 271.663085938 177.245117188 270.354492188 178.129882812 269.419921875 179.245117188 c 6
 169.01953125 299.063476562 l 6
 168.575195312 299.92578125 168.4140625 301.432617188 169.013671875 302.6796875 c 6
 216.544921875 378.524414062 l 6
 217.123046875 379.447265625 217.670898438 380.965820312 218.69921875 381.883789062 c 6
 307.615234375 461.280273438 l 6
 308.74609375 462.145507812 310.4765625 463.3125 312.107421875 463.537109375 c 6
 443.600585938 369.836914062 l 6
 444.444335938 369.235351562 446.865234375 370.877929688 447.693359375 369.965820312 c 6
 529.25390625 280.069335938 l 5
 524.685546875 275 l 5
EndSplineSet
EndChar

